<?xml version="1.0" standalone="no"?>
<!DOCTYPE svg PUBLIC "-//W3C//DTD SVG 1.1//EN" "http://www.w3.org/Graphics/SVG/1.1/DTD/svg11.dtd" >
<svg xmlns="http://www.w3.org/2000/svg" xmlns:xlink="http://www.w3.org/1999/xlink" version="1.1">
<metadata></metadata>
<defs>
<font id="iransansmedium" horiz-adv-x="0" >
<font-face units-per-em="2048" ascent="1638" descent="-410" />
<missing-glyph horiz-adv-x="771" />
<glyph unicode="&#xfedf;&#xfee0;&#x651;&#x6c1;" horiz-adv-x="2152" arabic-form="isolated" d="M1573 238q19 -21 66 -21q101 0 121 29q24 28 24 94q0 1 -2 24.5t-7.5 86.5t-10.5 125q-18 214 -57 689l253 57q72 -950 72 -1044t-73 -201q-74 -106 -274 -106h-11q-10 -2 -17 -2h-17q-40 0 -75 11q-36 4 -99 36q-29 15 -45 29q-7 -7 -23 -17q-110 -69 -246 -69l-48 3 q-53 3 -65 5q-13 0 -30 4t-39.5 11.5l-28.5 9.5q-47 14 -103 62q-34 30 -60 72q-82 -8 -137 -8q-419 0 -489 240q-11 37 -11 77q0 70 26 122q110 203 361 319q108 50 119 55q-1 18 -4 70t-3 82v29l254 11q17 -344 34 -531q17 -192 39 -267q8 -54 59.5 -79t124.5 -25h19 q65 3 97 71l-1 43q0 82 -4 170t-11.5 211t-10.5 176q-7 136 -18 304l258 27l38 -532q17 -220 20 -273q6 -94 6 -96q0 -50 30 -84h-1zM1384 1470q-51 -81 -134 -81q-70 0 -103.5 52.5t-33.5 138.5v17q0 46 18 104l103 -22l-4 -30q-6 -48 -6 -81q0 -67 26 -67q14 0 25 7 t19.5 23.5t13.5 27.5t10.5 36t6.5 31t5 29q5 20 6 41l112 -5v-20q0 -83 34 -143q1 -1 2.5 -4l2 -4t2 -3.5t2.5 -3.5l3 -3t3.5 -2.5t3.5 -1.5t4.5 -1.5t5.5 -0.5q15 0 22.5 13.5t8.5 27t1 38.5q0 59 -43 138q-16 29 -17 31l95 54l2 -3q1 -3 4.5 -9t6.5 -12q64 -112 64 -199 q0 -133 -78 -176q-26 -15 -50 -15h-16q-26 0 -50.5 11.5t-35 21t-33.5 32.5q-5 5 -8 13zM697 377q-19 133 -31 285q-23 -11 -77.5 -33t-88 -37t-72 -42t-58.5 -57q-15 -23 -11 -45v-3q0 -11 13.5 -23.5t25.5 -18.5q20 -11 51.5 -15.5t77 -7t62.5 -4.5zM1414 2154 q22 -79 22 -171q0 -96 -22 -198l-102 31q22 79 22 153q0 78 -22 154z" />
<glyph unicode="&#x631;&#xfbfe;&#xfe8e;&#x644;" horiz-adv-x="3108" arabic-form="isolated" d="M1990 -30h-146q-39 0 -69 18q-102 26 -175 97q-96 96 -96 295q4 83 4 285v99q0 469 -39 671l251 75q43 -240 43 -648q0 -32 1 -109t1 -108q0 -13 -0.5 -36.5t-0.5 -34.5v-65q0 -11 -1 -31t-1 -30v-81q0 -79 22 -101q36 -37 149 -39h9q11 0 16 -1h34q60 0 104.5 6t86.5 23 t64 51.5t22 86.5q0 48 -40 177t-94 232l231 114q95 -213 126 -388q12 -67 12 -133q0 -160 -82.5 -260t-221.5 -142q-79 -23 -210 -23zM392 316q-103 -148 -103 -399q0 -211 214 -307q90 -40 166 -40h14q160 0 288 98q150 114 150 322q0 143 -5.5 315t-10.5 281t-16.5 322 t-15.5 286q-4 75 -17 304l261 49q19 -411 46 -1373q3 -110 3 -188q0 -231 -100 -381.5t-277 -228.5q-140 -62 -300 -62h-19q-133 0 -285 73q-149 71 -238 200.5t-89 320.5q0 282 87 456q15 31 31 52zM1664 -514l-172 171l170 171l172 -172zM2042 -516l-172 172l170 170 l172 -171zM2914 714q84 -240 114 -461q6 -45 6 -84q0 -167 -104 -340q-135 -223 -424 -407q-85 -54 -176 -99l-114 229q224 110 388 269q107 105 152 227q22 59 22 121t-13 130t-27.5 113.5t-39.5 117t-35 103.5z" />
<glyph unicode="&#xfedf;&#xfe82;" horiz-adv-x="1362" arabic-form="isolated" d="M577 147q49 0 104 9q-21 238 -177 526q-126 234 -316 478q-14 18 -23 27l188 192q219 -288 381 -650q119 -266 169 -470q65 31 113 94t66 143q7 29 7 64q0 31 -6 64l-153 870l248 60q0 -2 6 -42q79 -526 110 -915q2 -34 2 -50q0 -194 -106 -357q-93 -144 -263 -220 t-400 -76q-94 0 -192 14l44 255q142 -16 198 -16zM-18 1442q0 10 1.5 20t6.5 22t7 17t9.5 20t8.5 16q64 128 185 156q14 2 24 2q5 0 12 0.5t10 0.5q90 0 202 -60q25 -14 50 -14q16 0 32 6t26.5 12.5t26 22.5t21 22t21.5 26t17 22l135 -87q-37 -73 -137 -139 q-67 -44 -135 -44q-42 0 -86 11t-70 22.5t-67 31.5q-22 11 -46 11q-70 0 -90 -110q-6 -29 -8 -35z" />
<glyph unicode="&#xfee0;&#xfe82;" horiz-adv-x="1470" arabic-form="final" d="M399 156q80 -10 153 -10q86 0 153 24q-48 191 -161 426q-148 306 -379 596l180 186q33 -54 104 -159q116 -172 224 -386.5t175 -414.5q31 -94 47 -158q106 71 137 145q12 28 10 61q-26 393 -125 1034l254 48q0 -24 3.5 -55.5t9 -74.5t8.5 -70q56 -559 82 -939 q5 -60 19 -95t49 -56h-1q52 -28 122 -32h7q54 0 91.5 -37t37.5 -91q0 -55 -37 -91.5t-92 -36.5h-9q-225 0 -339 148q-105 -105 -262.5 -163.5t-351.5 -58.5q-91 0 -182 17zM-3 1453q0 10 1.5 20t6.5 22t7 17t9.5 20t8.5 16q64 128 185 156q14 2 24 2q5 0 12 0.5t10 0.5 q90 0 202 -60q25 -14 50 -14q16 0 32 6t26.5 12.5t26 22.5t21 22t21.5 26t17 22l135 -87q-37 -73 -137 -139q-67 -44 -135 -44q-42 0 -86 11t-70 22.5t-67 31.5q-22 11 -46 11q-70 0 -90 -110q-6 -29 -8 -35z" />
<glyph unicode="&#xfedf;&#xfe84;" horiz-adv-x="1388" arabic-form="isolated" d="M595 147q49 0 104 9q-21 238 -177 526q-126 234 -316 478q-14 18 -23 27l188 192q219 -288 381 -650q119 -266 169 -470q65 31 113 94t66 143q7 29 7 64q0 31 -6 64l-153 870l248 60q0 -2 6 -42q79 -526 110 -915q2 -34 2 -50q0 -194 -106 -357q-93 -144 -263 -220 t-400 -76q-94 0 -192 14l44 255q142 -16 198 -16zM172 1721q0 -45 44 -71t99 -26q13 0 27 3t24 6t24 10.5t20.5 11t21 13t18.5 11.5q14 8 49 33l77 -102q-28 -22 -62 -43.5t-55 -33.5t-71 -38.5t-68 -36.5l-240 -133l-62 113l167 93q-52 29 -85 78.5t-33 116.5q0 99 86 171 q68 56 160 56q64 0 138 -24l-36 -111l-33 3q-40 4 -69 4q-27 0 -56 -9q-32 -15 -58.5 -39.5t-26.5 -55.5z" />
<glyph unicode="&#xfee0;&#xfe84;" horiz-adv-x="1470" arabic-form="final" d="M399 156q80 -10 153 -10q86 0 153 24q-48 191 -161 426q-148 306 -379 596l180 186q33 -54 104 -159q116 -172 224 -386.5t175 -414.5q31 -94 47 -158q106 71 137 145q12 28 10 61q-26 393 -125 1034l254 48q0 -24 3.5 -55.5t9 -74.5t8.5 -70q56 -559 82 -939 q5 -60 19 -95t49 -56h-1q52 -28 122 -32h7q54 0 91.5 -37t37.5 -91q0 -55 -37 -91.5t-92 -36.5h-9q-225 0 -339 148q-105 -105 -262.5 -163.5t-351.5 -58.5q-91 0 -182 17zM150 1752q0 -45 44 -71t99 -26q13 0 27 3t24 6t24 10.5t20.5 11t21 13t18.5 11.5q14 8 49 33 l77 -102q-28 -22 -62 -43.5t-55 -33.5t-71 -38.5t-68 -36.5l-240 -133l-62 113l167 93q-52 29 -85 78.5t-33 116.5q0 99 86 171q68 56 160 56q64 0 138 -24l-36 -111l-33 3q-40 4 -69 4q-27 0 -56 -9q-32 -15 -58.5 -39.5t-26.5 -55.5z" />
<glyph unicode="&#xfedf;&#xfe88;" horiz-adv-x="1264" arabic-form="isolated" d="M475 147q49 0 104 9q-21 238 -177 526q-126 234 -316 478q-14 18 -23 27l188 192q219 -288 381 -650q119 -266 169 -470q65 31 113 94t66 143q7 29 7 64q0 31 -6 64l-153 870l248 60q0 -2 6 -42q79 -526 110 -915q2 -34 2 -50q0 -194 -106 -357q-93 -144 -263 -220 t-400 -76q-94 0 -192 14l44 255q142 -16 198 -16zM553 -389q0 -45 44 -71t99 -26q13 0 27 3t24 6t24 10.5t20.5 11t21 13t18.5 11.5q14 8 49 33l77 -102q-28 -22 -62 -43.5t-55 -33.5t-71 -38.5t-68 -36.5l-240 -133l-62 113l167 93q-52 29 -85 78.5t-33 116.5q0 99 86 171 q68 56 160 56q64 0 138 -24l-36 -111l-33 3q-40 4 -69 4q-28 0 -56 -9q-32 -15 -58.5 -39.5t-26.5 -55.5z" />
<glyph unicode="&#xfee0;&#xfe88;" horiz-adv-x="1470" arabic-form="final" d="M399 156q80 -10 153 -10q86 0 153 24q-48 191 -161 426q-148 306 -379 596l180 186q33 -54 104 -159q116 -172 224 -386.5t175 -414.5q31 -94 47 -158q106 71 137 145q12 28 10 61q-26 393 -125 1034l254 48q0 -24 3.5 -55.5t9 -74.5t8.5 -70q56 -559 82 -939 q5 -60 19 -95t49 -56h-1q52 -28 122 -32h7q54 0 91.5 -37t37.5 -91q0 -55 -37 -91.5t-92 -36.5h-9q-225 0 -339 148q-105 -105 -262.5 -163.5t-351.5 -58.5q-91 0 -182 17zM705 -347q0 -45 44 -71t99 -26q13 0 27 3t24 6t24 10.5t20.5 11t21 13t18.5 11.5q14 8 49 33 l77 -102q-28 -22 -62 -43.5t-55 -33.5t-71 -38.5t-68 -36.5l-240 -133l-62 113l167 93q-52 29 -85 78.5t-33 116.5q0 99 86 171q68 56 160 56q64 0 138 -24l-36 -111l-33 3q-40 4 -69 4q-28 0 -56 -9q-32 -15 -58.5 -39.5t-26.5 -55.5z" />
<glyph unicode="&#xfedf;&#xfe8e;" horiz-adv-x="1286" arabic-form="isolated" d="M475 147q49 0 104 9q-21 238 -177 526q-126 234 -316 478q-14 18 -23 27l188 192q219 -288 381 -650q119 -266 169 -470q65 31 113 94t66 143q7 29 7 64q0 31 -6 64l-153 870l248 60q0 -2 6 -42q79 -526 110 -915q2 -34 2 -50q0 -194 -106 -357q-93 -144 -263 -220 t-400 -76q-94 0 -192 14l44 255q142 -16 198 -16z" />
<glyph unicode="&#xfee0;&#xfe8e;" horiz-adv-x="1461" arabic-form="final" d="M399 156q80 -10 153 -10q86 0 153 24q-48 191 -161 426q-148 306 -379 596l180 186q33 -54 104 -159q116 -172 224 -386.5t175 -414.5q31 -94 47 -158q106 71 137 145q12 28 10 61q-26 393 -125 1034l254 48q0 -24 3.5 -55.5t9 -74.5t8.5 -70q56 -559 82 -939 q5 -60 19 -95t49 -56h-1q52 -28 122 -32h7q54 0 91.5 -37t37.5 -91q0 -55 -37 -91.5t-92 -36.5h-9q-225 0 -339 148q-105 -105 -262.5 -163.5t-351.5 -58.5q-91 0 -182 17z" />
<glyph unicode="&#xfedf;&#xfb51;" horiz-adv-x="1286" d="M475 147q49 0 104 9q-21 238 -177 526q-126 234 -316 478q-14 18 -23 27l188 192q219 -288 381 -650q119 -266 169 -470q65 31 113 94t66 143q7 29 7 64q0 31 -6 64l-153 870l248 60q0 -2 6 -42q79 -526 110 -915q2 -34 2 -50q0 -194 -106 -357q-93 -144 -263 -220 t-400 -76q-94 0 -192 14l44 255q142 -16 198 -16zM639 1689q0 -51 -24.5 -89t-67 -59.5t-92.5 -31.5t-109 -10q-37 0 -77 4q-1 0 -2.5 0.5t-2.5 0.5h-5q-38 4 -62 21.5t-49 49.5q-8 5 -20 5q-26 0 -66 -28q-22 -15 -35 -27l-31 93q72 33 109 44q18 5 29 5q20 0 58 -21 l23 -15q20 33 35.5 55.5t41.5 51.5t52 46.5t62.5 30t77.5 12.5q60 0 107.5 -39t47.5 -99zM562 1682q-8 50 -82 50q-57 0 -118 -53h1q-43 -43 -68 -83q14 -2 27 -2h26q136 0 190 41q22 19 24 47z" />
<glyph unicode="&#xfee0;&#xfb51;" horiz-adv-x="1470" d="M399 156q80 -10 153 -10q86 0 153 24q-48 191 -161 426q-148 306 -379 596l180 186q33 -54 104 -159q116 -172 224 -386.5t175 -414.5q31 -94 47 -158q106 71 137 145q12 28 10 61q-26 393 -125 1034l254 48q0 -24 3.5 -55.5t9 -74.5t8.5 -70q56 -559 82 -939 q5 -60 19 -95t49 -56h-1q52 -28 122 -32h7q54 0 91.5 -37t37.5 -91q0 -55 -37 -91.5t-92 -36.5h-9q-225 0 -339 148q-105 -105 -262.5 -163.5t-351.5 -58.5q-91 0 -182 17zM670 1722q0 -51 -24.5 -89t-67 -59.5t-92.5 -31.5t-109 -10q-37 0 -77 4q-1 0 -2.5 0.5t-2.5 0.5h-5 q-38 4 -62 21.5t-49 49.5q-8 5 -20 5q-26 0 -66 -28q-22 -15 -35 -27l-31 93q72 33 109 44q18 5 29 5q20 0 58 -21l23 -15q20 33 35.5 55.5t41.5 51.5t52 46.5t62.5 30t77.5 12.5q60 0 107.5 -39t47.5 -99zM593 1715q-8 50 -82 50q-57 0 -118 -53h1q-42 -42 -68 -83 q14 -2 27 -2h26q136 0 190 41q22 19 24 47z" />
<glyph unicode="&#xfe97;&#xfeee;&#xfee3;&#xfe8e;&#x646;" horiz-adv-x="5160" d="M3968 565q-52 55 -92 55q-52 0 -111 -78q-58 -79 -58 -159q0 -34 13 -60.5t37.5 -43t52.5 -27t66.5 -16t70.5 -7t73 -1.5h52q19 0 49 2q-15 179 -153 336v-1zM4803 1074l-172 172l170 170l172 -171zM4425 1076l-172 171l170 171l172 -172zM2733 343q91 -66 232 -103 q35 -9 55 -9q40 0 60 33.5t20 83.5q0 33 -7 58q-16 60 -51.5 111t-82.5 74q-28 14 -57 14q-28 0 -55 -44q-33 -54 -72 -131zM894 -541q-271 0 -439.5 96.5t-250.5 291.5q-51 122 -51 280q0 331 186 611l197 -143q-85 -119 -136 -325q-18 -74 -18 -149q0 -140 81 -232.5 t207 -137.5q89 -31 191 -31q152 0 271.5 56.5t187.5 151.5q69 96 69 204q0 27 -2.5 53.5t-9 56t-11 48.5t-16 52.5t-15.5 45t-18.5 49t-16.5 42.5q-41 109 -72 168l-14 26l235 131q11 -17 47 -109q77 -200 110 -373q18 -91 18 -173q0 -208 -90 -356t-242 -236 q-170 -98 -398 -98zM889 601l-192 192l191 191l192 -192zM4401 -30h-67q-67 -285 -308 -474q-223 -175 -544 -226l-60 250q281 54 471 186q175 120 214 264h-106q-112 0 -202 21t-160.5 65.5t-109 121t-38.5 181.5q0 209 127 378q110 140 258 140q156 0 283 -138 q83 -93 134 -224.5t61 -288.5h47h42q197 0 301 46q77 34 77 108q0 21 -2 41t-8 42.5t-9.5 37.5t-13.5 40.5t-13.5 35t-15.5 37t-14 32.5q-16 39 -72 155l233 115q93 -166 132 -397q13 -76 13 -124q0 -160 -82.5 -260t-221.5 -142q-88 -23 -247 -23h-99zM2220 226 q118 6 207 99q46 47 87 122.5t82 156t80 129.5q104 121 241 121q126 0 211.5 -69.5t130.5 -178.5q28 -66 35 -139q6 -39 6 -84q0 -206 -120 -320q-45 -42 -93 -62.5t-118 -20.5q-65 0 -132.5 21t-104.5 41t-99 58q-38 23 -50 32q-79 -78 -166.5 -119.5t-207.5 -42.5h-2h-1 h-1h-1q-222 1 -339 115q-96 96 -96 295q4 83 4 285v99q0 469 -39 671l251 75q43 -240 43 -648q0 -32 1 -109t1 -108q0 -13 -0.5 -36.5t-0.5 -34.5v-65q0 -11 -1 -31t-1 -30v-81q0 -79 22 -101q36 -37 149 -39h9q9 0 13 -1z" />
<glyph unicode="&#x66e;" horiz-adv-x="711" d="M-7 -30q-55 0 -91.5 36t-36.5 92t36.5 92t91.5 36h148q60 0 104.5 6t86.5 23t64 51.5t22 86.5q0 48 -40 177t-94 232l231 114q95 -213 126 -388q12 -68 12 -133q0 -160 -82.5 -260t-221.5 -142q-79 -23 -210 -23h-146z" />
<glyph unicode="&#x66e;" horiz-adv-x="705" d="M0 -30q-56 0 -92 36t-36 92q0 55 36.5 91.5t91.5 36.5h17q311 0 311 210q0 14 -1 26.5t-3 26t-3.5 22.5t-6 24t-6 20.5t-7.5 23.5t-7 22q-6 18 -22 77l246 69q49 -194 49 -311q0 -91 32 -150.5t105 -59.5q54 0 91.5 -37t37.5 -91q0 -55 -37 -91.5t-91 -36.5 q-177 0 -278 111q-135 -111 -410 -111h-17z" />
<glyph unicode="&#x66e;" horiz-adv-x="2316" d="M2445 98q0 -56 -36.5 -92t-92.5 -36h-8q-176 0 -284.5 61.5t-172.5 189.5q-275 -254 -823 -254q-305 2 -511.5 74t-307.5 236q-71 122 -71 268q0 77 20 155q33 135 79 205l193 -121q-25 -43 -38 -69.5t-25 -74t-12 -99.5q0 -65 46 -140q33 -53 100.5 -88.5t139 -51 t167.5 -25.5q97 -10 220 -10q337 0 531 78q128 51 186 147q18 30 33.5 69.5t24 68t23 82.5t20.5 76l230 -62q-4 -14 -13 -47t-14 -53t-9.5 -50t-4.5 -57q0 -252 281 -252q56 0 92.5 -36t36.5 -92z" />
<glyph unicode="&#x66f;" horiz-adv-x="947" d="M-3 -30q-55 0 -91.5 36.5t-36.5 91.5t37 91.5t93 36.5q294 0 515 58q58 15 94 34h-102q-157 0 -264 59t-152 172q-22 55 -22 129q0 40 6 79q29 164 113 268v-1q100 131 241 131q135 0 262 -127q125 -143 167 -374q13 -71 13 -146q0 -97 -24 -175.5t-65 -133t-105 -95.5 t-133 -65.5t-161 -40t-176.5 -21t-191.5 -7.5h-17zM562 770q-22 48 -57 87.5t-77 39.5q-18 0 -40 -11q-37 -20 -66 -58.5t-44 -83.5q-9 -27 -9 -56q0 -65 43 -84q72 -31 216 -31q23 0 101 3q-26 106 -67 194z" />
<glyph unicode="&#x66f;" horiz-adv-x="1052" d="M530 711q-114 -20 -172 -127q-21 -39 -21 -95q0 -39 61 -103q63 -66 136 -87h1l2 -1q46 23 85 63t60 87q13 29 13 59q0 59 -32.5 105.5t-78.5 75.5q-30 19 -54 23zM-5 -30q-55 0 -91.5 36t-36.5 92t36 92t92 36h147q80 0 126 5q-63 44 -101 115.5t-38 167.5 q0 94 29 163.5t85 139.5q124 151 279 151q164 0 282 -141q109 -131 109 -297q0 -143 -102 -286q108 -18 244 -18q56 0 92.5 -36t36.5 -92t-36.5 -92t-92.5 -36h-9q-44 0 -69 1l-75 3q-232 10 -369 81q-56 -42 -223 -65q-140 -20 -307 -20h-8z" />
<glyph unicode="&#x66f;" horiz-adv-x="1603" d="M1595 226q56 0 93 -37t37 -92q0 -54 -38 -90.5t-92 -36.5h-65q-27 -139 -89 -259h1q-92 -175 -251 -277.5t-390 -102.5q-310 0 -513 178q-63 55 -107 135v-1q-95 152 -95 354q0 155 41 286t116 279l192 -113q-70 -133 -97 -243q-27 -111 -27 -208t40.5 -174t106.5 -128 q138 -107 338 -107h9q196 0 320 104.5t178 276.5h-6l-199 1q-243 23 -344 155v-1q-83 107 -83 226q0 196 139 383v-1q111 141 257 141q156 0 283 -139q83 -92 133 -222.5t60 -286.5h52zM1221 225q59 0 102 3q-12 169 -142 333q-15 21 -49 37.5t-65 16.5q-70 0 -121 -85 q-45 -75 -45 -152q0 -44 23.5 -75t63.5 -47t83.5 -23t92.5 -7q10 0 29 -0.5t28 -0.5z" />
<glyph unicode="&#x6aa;" horiz-adv-x="2138" d="M465 643q107 -32 345 -32q189 0 301 11q35 3 124.5 13.5t161.5 16.5t138 6q149 0 243 -34.5t176 -111.5q97 -91 188 -301l-101 -156q-24 -9 -29 -9q-491 -44 -861 -62l-1220 -14v253h123q26 0 79 -0.5t80 -0.5h363q198 0 436.5 10.5t385 20.5t417.5 31q-48 67 -109 93.5 t-173 26.5q-128 0 -342 -30l2 1q-5 -1 -7 -1h-2l-2 -1h-3l-5 -1h-4q-4 0 -64 -6q-104 -9 -297 -9h-54q-134 2 -222 13.5t-165 39.5q-69 25 -114.5 75.5t-45.5 120.5v16q0 159 151 304q229 210 729 360l65 -247q-419 -126 -589 -274q-81 -70 -99 -122z" />
<glyph unicode="&#x6aa;" horiz-adv-x="2692" d="M2335 311q48 -52 143 -68.5t237 -16.5v-256q-267 0 -447 69q-110 -14 -557 -46q-380 -28 -697 -28q-13 0 -39 0.5t-38 0.5h-149q-12 0 -36.5 0.5t-36.5 0.5q-43 0 -119 0.5t-108 0.5q-133 0 -194 1q-13 0 -41 0.5t-43 0.5h-178q-15 0 -43.5 0.5t-41.5 0.5v255 q178 -2 265 -2h453q33 0 104.5 1t109.5 1h140q472 0 707 18q123 9 278 25l59 5q-1 2 -8 13t-9.5 14t-9 13t-9.5 13.5t-9.5 12t-11 12.5t-11.5 10t-12.5 9.5t-12.5 7t-14 5.5q-39 11 -141 11q-150 0 -359 -29q-21 -3 -22 -3h-8q-15 -3 -35 -4.5t-48.5 -2.5t-43.5 -2 q-131 -7 -247 -7h-48q-159 3 -266.5 19t-180.5 63q-101 64 -101 167v16q0 164 152 304h-1q177 173 611 321q31 11 83 25.5t72 21.5l64 -238q-46 -20 -141.5 -52.5t-136.5 -48.5q-296 -116 -412 -253q-8 -9 -16 -23t-13 -24l-4 -10q115 -34 344 -34q188 0 302 11 q18 2 128.5 14t183.5 17.5t143 5.5q200 0 282 -49q114 -65 211 -236q9 -17 27 -53z" />
<glyph unicode="&#x6aa;" horiz-adv-x="2771" d="M769 635q115 -34 344 -34q189 0 301 11q20 2 129.5 14t183 17.5t143.5 5.5q200 0 282 -49q114 -65 211 -236q4 -6 13.5 -25t14.5 -27v-1q51 -51 144.5 -68t230.5 -17h6q55 0 91.5 -36.5t36.5 -91.5t-36.5 -91.5t-91.5 -36.5h-2q-196 0 -366 45q-9 3 -38.5 11t-41.5 13 q-110 -14 -558 -46q-525 -38 -1001 -38q-467 0 -775 50l42 252q304 -47 735 -47q714 0 1351 64q-2 3 -10.5 16t-11.5 17.5t-11.5 16t-13 16.5t-13 14t-15 13.5t-15 9.5t-17.5 7q-39 11 -141 11q-151 0 -360 -29l-21 -3h-8q-15 -3 -35 -4.5t-48.5 -2.5t-43.5 -2 q-131 -7 -247 -7h-48q-100 1 -167.5 6.5t-143 21t-128.5 48t-84 83.5q-25 41 -25 90v16q0 164 152 304h-1q180 175 610 321q31 11 83.5 25.5t72.5 21.5q37 -143 64 -238q-46 -20 -141.5 -52.5t-136.5 -48.5q-296 -116 -412 -253q-26 -30 -33 -57z" />
<glyph unicode="&#x6c2;" horiz-adv-x="1023" d="M514 -30q-125 0 -227 51t-155 131q-54 82 -54 195q0 190 170 396q33 40 52 59l44 44q-35 28 -46 39l-18 15l162 198q114 -89 259 -246q251 -287 251 -505q0 -154 -91 -246.5t-240 -120.5q-57 -10 -107 -10zM727 347q0 27 -13.5 61t-23.5 50t-33 52q-61 96 -160 192 q-108 -108 -171 -266q-19 -48 -19 -89q0 -42 34.5 -70t79 -38t93.5 -10q141 0 193 60q20 23 20 58zM289 1449q0 -45 43 -73.5t96 -28.5q13 0 27 3t24 6t24 10.5t20.5 11t21 13t18.5 11.5q14 8 49 33l77 -102q-28 -22 -62 -43.5t-55 -33.5t-71 -38.5t-68 -36.5l-240 -133 l-62 113l167 93q-52 29 -85 78.5t-33 116.5q0 99 86 171q68 56 160 56q64 0 138 -24l-36 -121l-33 8q-45 9 -69 9q-28 0 -56 -9q-31 -14 -56 -37t-25 -53z" />
<glyph unicode="&#x671;" horiz-adv-x="673" arabic-form="final" d="M787 98q0 -55 -37 -91.5t-92 -36.5q-224 0 -342 115q-96 96 -96 295q4 83 4 285v99q0 469 -39 671l251 75q43 -240 43 -648q0 -32 1 -109t1 -108q0 -13 -0.5 -36.5t-0.5 -34.5v-65q0 -11 -1 -31t-1 -30v-81q0 -79 22 -101q36 -37 149 -39h9q54 0 91.5 -38t37.5 -91z M634 1851q0 -51 -24.5 -89t-67 -59.5t-92.5 -31.5t-109 -10q-37 0 -77 4q-1 0 -2.5 0.5t-2.5 0.5h-5q-38 4 -62 21.5t-49 49.5q-8 5 -20 5q-26 0 -66 -28q-22 -15 -35 -27l-31 93q72 33 109 44q18 5 29 5q20 0 58 -21l23 -15q20 33 35.5 55.5t41.5 51.5t52 46.5t62.5 30 t77.5 12.5q60 0 107.5 -39t47.5 -99zM557 1844q-8 50 -82 50q-57 0 -118 -53h1q-42 -43 -68 -83q14 -2 27 -2h26q136 0 190 41q22 19 24 47z" />
<glyph unicode="&#x67e;" horiz-adv-x="2247" arabic-form="final" d="M2366 98q0 -56 -36.5 -92t-92.5 -36h-8q-176 0 -284.5 61.5t-172.5 189.5q-275 -254 -823 -254q-305 2 -511.5 74t-307.5 236q-71 122 -71 268q0 77 20 155q33 135 79 205l193 -121q-25 -43 -38 -69.5t-25 -74t-12 -99.5q0 -65 46 -140q33 -53 100.5 -88.5t139 -51 t167.5 -25.5q97 -10 220 -10q337 0 531 78q128 51 186 147q18 30 33.5 69.5t24 68t23 82.5t20.5 76l230 -62q-4 -14 -13 -47t-14 -53t-9.5 -50t-4.5 -57q0 -252 281 -252q56 0 92.5 -36t36.5 -92zM658 -306l172 171l170 -170l-172 -172zM1036 -305l172 172l170 -171 l-172 -171zM1175 -593l-157 -157l-156 156l157 157z" />
<glyph unicode="&#x67e;" horiz-adv-x="859" arabic-form="initial" d="M-128 98q0 55 36.5 91.5t91.5 36.5h159q197 0 301 46q77 34 77 108q0 21 -2 41t-8 42.5t-9.5 37.5t-13.5 40.5t-13.5 35t-15.5 37t-14 32.5q-16 39 -72 155l233 115q93 -166 132 -397q13 -76 13 -124q0 -160 -82.5 -260t-221.5 -142q-88 -23 -247 -23h-216 q-55 0 -91.5 36.5t-36.5 91.5zM13 -357l172 171l170 -170l-172 -172zM391 -356l172 172l170 -171l-172 -171zM530 -644l-157 -157l-156 156l157 157z" />
<glyph unicode="&#x67e;" horiz-adv-x="859" arabic-form="medial" d="M472 449q0 33 -5.5 68.5t-11 55.5t-18.5 61.5t-17 55.5l245 69q34 -121 43 -238q1 -11 3 -38.5t3 -41t4 -39t6 -40t9 -36t12.5 -33.5t17 -26.5t23 -22t29.5 -13t37 -5.5q56 0 92.5 -36t36.5 -92q0 -55 -37 -91.5t-91 -36.5q-176 0 -279 115q-154 -115 -505 -115h-76 q-55 0 -91.5 36t-36.5 92t36.5 92t91.5 36h76q57 0 101.5 3t93.5 11t84 23.5t64.5 39.5t44.5 61t15 85zM4 -311l172 171l170 -170l-172 -172zM382 -310l172 172l170 -171l-172 -171zM521 -598l-157 -157l-156 156l157 157z" />
<glyph unicode="&#x679;" horiz-adv-x="2236" arabic-form="final" d="M2366 98q0 -56 -36.5 -92t-92.5 -36h-8q-176 0 -284.5 61.5t-172.5 189.5q-275 -254 -823 -254q-305 2 -511.5 74t-307.5 236q-71 122 -71 268q0 77 20 155q33 135 79 205l193 -121q-25 -43 -38 -69.5t-25 -74t-12 -99.5q0 -65 46 -140q33 -53 100.5 -88.5t139 -51 t167.5 -25.5q97 -10 220 -10q337 0 531 78q128 51 186 147q18 30 33.5 69.5t24 68t23 82.5t20.5 76l230 -62q-4 -14 -13 -47t-14 -53t-9.5 -50t-4.5 -57q0 -252 281 -252q56 0 92.5 -36t36.5 -92zM751 997q65 -26 113 -38q6 8 20.5 31.5t25.5 34.5q12 108 12 126 q0 134 -23 281l-9 63l116 32q3 -42 11.5 -115t13.5 -135.5t6 -121.5q91 79 180 94q18 2 26 2q76 0 133.5 -47.5t57.5 -119.5q0 -41 -20.5 -84t-46.5 -69q-62 -55 -135 -82.5t-176 -27.5q-5 0 -15 0.5t-15 0.5q-144 0 -318 68zM973 938q15 -1 38 -1h29q102 0 185 26t111 83 q9 18 9 31q0 27 -28 43t-64 16q-34 0 -71.5 -17t-53.5 -29t-52 -41q-55 -45 -103 -111z" />
<glyph unicode="&#x679;" horiz-adv-x="774" arabic-form="initial" d="M-5 -30q-55 0 -91.5 36t-36.5 92t36.5 92t91.5 36h148q60 0 104.5 6t86.5 23t64 51.5t22 86.5q0 48 -40 177t-94 232l231 114q95 -213 126 -388q12 -68 12 -133q0 -160 -82.5 -260t-221.5 -142q-79 -23 -210 -23h-146zM28 1256q65 -26 113 -38q6 8 20.5 31.5t25.5 34.5 q12 108 12 126q0 134 -23 281l-9 63l116 32q3 -42 11.5 -115t13.5 -135.5t6 -121.5q91 79 180 94q18 2 26 2q76 0 133.5 -47.5t57.5 -119.5q0 -41 -20.5 -84t-46.5 -69q-62 -55 -135 -82.5t-176 -27.5q-5 0 -15 0.5t-15 0.5q-144 0 -318 68zM250 1197q15 -1 38 -1h29 q102 0 185 26t111 83q9 18 9 31q0 27 -28 43t-64 16q-34 0 -71.5 -17t-53.5 -29t-52 -41q-55 -45 -103 -111z" />
<glyph unicode="&#x679;" horiz-adv-x="859" arabic-form="medial" d="M472 449q0 33 -5.5 68.5t-11 55.5t-18.5 61.5t-17 55.5l245 69q34 -121 43 -238q1 -11 3 -38.5t3 -41t4 -39t6 -40t9 -36t12.5 -33.5t17 -26.5t23 -22t29.5 -13t37 -5.5q56 0 92.5 -36t36.5 -92q0 -55 -37 -91.5t-91 -36.5q-176 0 -279 115q-154 -115 -505 -115h-76 q-55 0 -91.5 36t-36.5 92t36.5 92t91.5 36h76q57 0 101.5 3t93.5 11t84 23.5t64.5 39.5t44.5 61t15 85zM89 1146q65 -26 113 -38q6 8 20.5 31.5t25.5 34.5q12 108 12 126q0 134 -23 281l-9 63l116 32q3 -42 11.5 -115t13.5 -135.5t6 -121.5q91 79 180 94q18 2 26 2 q76 0 133.5 -47.5t57.5 -119.5q0 -41 -20.5 -84t-46.5 -69q-62 -55 -135 -82.5t-176 -27.5q-5 0 -15 0.5t-15 0.5q-144 0 -318 68zM311 1087q15 -1 38 -1h29q102 0 185 26t111 83q9 18 9 31q0 27 -28 43t-64 16q-34 0 -71.5 -17t-53.5 -29t-52 -41q-55 -45 -103 -111z" />
<glyph unicode="&#x6a4;" horiz-adv-x="2046" arabic-form="isolated" d="M1277 1024q100 131 241 131q135 0 262 -127q125 -143 167 -374q13 -71 13 -146q0 -78 -17.5 -143.5t-47 -115.5t-76 -90.5t-97 -68.5t-118 -49.5t-132 -34t-145.5 -20.5t-150.5 -11.5t-155.5 -4.5q-163 1 -295.5 16.5t-255.5 51t-211.5 101t-134.5 158.5v-1 q-45 87 -45 192q0 156 105 340q1 3 11 19t15 26l186 -156q-34 -46 -63 -111t-37 -124q-2 -16 -2 -23q0 -26 10 -48q44 -89 236 -137q185 -48 466 -48q354 0 632 80q37 11 62 23h-102q-264 0 -372 136q-68 84 -68 213q0 40 6 79q29 164 113 268v-1zM1652 770q-22 48 -57 87.5 t-77 39.5q-18 0 -40 -11q-37 -20 -66 -58.5t-44 -83.5q-9 -27 -9 -56q0 -65 43 -84q72 -31 216 -31q23 0 101 3q-26 106 -67 194zM1260 1319l-172 171l170 171l172 -172zM1638 1317l-172 172l170 170l172 -171zM1448 1934l157 -157l-156 -156l-157 157z" />
<glyph unicode="&#x6a4;" horiz-adv-x="2101" arabic-form="final" d="M2238 98q0 -56 -36.5 -92t-92.5 -36h-9q-202 0 -396 46q-57 14 -117 45q-39 -27 -152 -49q-210 -42 -469 -42q-306 3 -511.5 74.5t-307.5 234.5q-71 122 -71 268q0 77 20 155q31 130 79 203l193 -121q-35 -61 -55 -116.5t-20 -124.5q1 -56 21.5 -101t51 -74.5t77 -52 t90.5 -35t101 -22.5q116 -21 327 -32l361 7q-62 43 -100.5 117t-38.5 170q0 94 29 163.5t85 139.5q124 151 279 151q164 0 282 -141q109 -131 109 -297q0 -143 -102 -286q138 -24 244 -24q56 0 92.5 -36t36.5 -92zM1584 717q-114 -20 -172 -127q-21 -39 -21 -95 q0 -39 61 -103q63 -66 136 -87h1l2 -1q46 23 85 63t60 87q13 29 13 59q0 59 -32.5 105.5t-78.5 75.5q-30 19 -54 23zM1402 1106l-172 171l170 171l172 -172zM1780 1104l-172 172l170 170l172 -171zM1590 1721l157 -157l-156 -156l-157 157z" />
<glyph unicode="&#x6a4;" horiz-adv-x="957" arabic-form="initial" d="M-3 -30q-55 0 -91.5 36.5t-36.5 91.5t37 91.5t93 36.5q294 0 515 58q58 15 94 34h-102q-157 0 -264 59t-152 172q-22 55 -22 129q0 40 6 79q29 164 113 268v-1q100 131 241 131q135 0 262 -127q125 -143 167 -374q13 -71 13 -146q0 -97 -24 -175.5t-65 -133t-105 -95.5 t-133 -65.5t-161 -40t-176.5 -21t-191.5 -7.5h-17zM562 770q-22 48 -57 87.5t-77 39.5q-18 0 -40 -11q-37 -20 -66 -58.5t-44 -83.5q-9 -27 -9 -56q0 -65 43 -84q72 -31 216 -31q23 0 101 3q-26 106 -67 194zM163 1220l-172 171l170 171l172 -172zM541 1218l-172 172 l170 170l172 -171zM351 1835l157 -157l-156 -156l-157 157z" />
<glyph unicode="&#x6a4;" horiz-adv-x="1056" arabic-form="medial" d="M530 711q-114 -20 -172 -127q-21 -39 -21 -95q0 -39 61 -103q63 -66 136 -87h1l2 -1q46 23 85 63t60 87q13 29 13 59q0 59 -32.5 105.5t-78.5 75.5q-30 19 -54 23zM-5 -30q-55 0 -91.5 36t-36.5 92t36 92t92 36h147q80 0 126 5q-63 44 -101 115.5t-38 167.5 q0 94 29 163.5t85 139.5q124 151 279 151q164 0 282 -141q109 -131 109 -297q0 -143 -102 -286q108 -18 244 -18q56 0 92.5 -36t36.5 -92t-36.5 -92t-92.5 -36h-9q-44 0 -69 1l-75 3q-232 10 -369 81q-56 -42 -223 -65q-140 -20 -307 -20h-8zM340 1117l-172 171l170 171 l172 -172zM718 1115l-172 172l170 170l172 -171zM528 1732l157 -157l-156 -156l-157 157z" />
<glyph unicode="&#x686;" horiz-adv-x="1740" arabic-form="final" d="M543 -57l161 160l159 -159l-161 -161zM896 -56l161 161l159 -160l-161 -160zM1026 -326l-146 -146l-146 146l147 146zM923 -553q156 0 282 48t243 135l150 -210q-154 -110 -334 -174q-177 -63 -379 -63q-263 0 -450.5 107.5t-268.5 297.5q-48 115 -48 248q0 252 184 436 q117 117 289 196.5t377 112.5q118 19 241 19h19q-85 31 -227 102.5t-213 98.5q-57 22 -115 22q-116 0 -213 -107q-26 -29 -47 -69l-213 137q124 215 324 276q66 20 149 20q166 0 351 -104q36 -20 129.5 -79t137.5 -82q178 -93 381 -133l-79 -265l-188 -24q13 -167 337 -167 q54 0 91.5 -38t37.5 -92t-37.5 -90t-91.5 -36q-434 0 -562 264q-23 47 -28 78q-7 40 -6 51q-305 -51 -516 -172q-154 -87 -218 -202q-35 -61 -35 -144q0 -192 161 -299q149 -99 385 -99z" />
<glyph unicode="&#x686;" horiz-adv-x="1598" arabic-form="initial" d="M-131 98q0 55 37 91.5t93 36.5h198q226 0 508 86q231 71 477 191q-95 21 -249 88t-178 76q-60 22 -121 22q-37 0 -71 -13.5t-56.5 -30t-47.5 -48t-37 -49.5t-32 -52l-208 135q123 214 310 289q65 26 142 26q133 0 304 -72q46 -19 138 -62.5t167 -74.5t150 -51 q80 -22 160 -23l-21 -258q-33 -16 -141.5 -69t-162.5 -79t-142.5 -65.5t-163.5 -67.5q-387 -147 -725 -154h-198q-56 0 -93 36.5t-37 91.5zM391 -300l172 171l170 -170l-172 -172zM769 -299l172 172l170 -171l-172 -171zM908 -587l-157 -157l-156 156l157 157z" />
<glyph unicode="&#x686;" horiz-adv-x="1663" arabic-form="medial" d="M0 -30q-56 0 -92.5 35.5t-36.5 91.5q0 55 36.5 92t92.5 37h183q219 0 494 88q184 59 450 189q-68 8 -177 57q-15 7 -67 30.5t-77.5 34.5t-68 26.5t-79.5 24.5q-50 12 -97 12q-63 0 -133 -48q-74 -51 -129 -137l-200 109q52 100 141 182.5t194 125.5q66 27 127 27 q58 0 120.5 -15t94.5 -28t98 -42q12 -6 85.5 -39.5t102 -45.5t85.5 -33.5t105 -35.5q165 -48 287 -48l-43 -244q-24 -11 -71.5 -35t-73.5 -35q29 -63 111.5 -91.5t190.5 -28.5h14q55 0 92 -37t37 -92t-36.5 -91t-92.5 -36h-14q-195 0 -333.5 66.5t-200.5 194.5 q-181 -89 -340 -149t-335 -91q-123 -22 -261 -22zM390 -306l172 171l170 -170l-172 -172zM768 -305l172 172l170 -171l-172 -171zM907 -593l-157 -157l-156 156l157 157z" />
<glyph unicode="&#x688;" horiz-adv-x="1308" arabic-form="final" d="M1288 -30q-210 0 -327 123q-50 -35 -162 -78q-117 -45 -280 -45q-237 0 -443 212l147 207q91 -84 170 -121q81 -38 151 -38q46 0 92 10t70.5 19t71.5 29q35 15 55 31l-319 770l237 99q33 -87 94.5 -231t88.5 -212q52 -130 135 -325l16 -39q16 -40 29.5 -64t36 -47 t56.5 -33.5t81 -10.5q55 0 92 -36.5t37 -91.5t-37 -91.5t-92 -36.5zM224 1475q65 -26 113 -38q6 8 20.5 31.5t25.5 34.5q12 108 12 126q0 134 -23 281l-9 63l116 32q3 -42 11.5 -115t13.5 -135.5t6 -121.5q91 79 180 94q18 2 26 2q76 0 133.5 -47.5t57.5 -119.5 q0 -41 -20.5 -84t-46.5 -69q-62 -55 -135 -82.5t-176 -27.5q-5 0 -15 0.5t-15 0.5q-144 0 -318 68zM446 1416q15 -1 38 -1h29q102 0 185 26t111 83q9 18 9 31q0 27 -28 43t-64 16q-34 0 -71.5 -17t-53.5 -29t-52 -41q-55 -45 -103 -111z" />
<glyph unicode="&#x698;" horiz-adv-x="871" arabic-form="final" d="M1004 97q0 -56 -36.5 -91.5t-93.5 -35.5h-31q-75 0 -141 42q-26 -236 -238 -458q-184 -193 -464 -332l-112 231q239 121 394 268q111 104 160 226q24 60 24 123v16q0 6 -2 16q-9 70 -29.5 139t-54 156t-45.5 123l240 100q39 -117 69.5 -187t73.5 -127q30 -39 65.5 -59.5 t86.5 -20.5h5q55 0 92 -37t37 -92zM254 844l-172 171l170 171l172 -172zM632 842l-172 172l170 170l172 -171zM442 1459l157 -157l-156 -156l-157 157z" />
<glyph unicode="&#x691;" horiz-adv-x="822" arabic-form="final" d="M954 97q0 -56 -36.5 -91.5t-93.5 -35.5h-31q-75 0 -141 42q-26 -236 -238 -458q-184 -193 -464 -332l-112 231q239 121 394 268q111 104 160 226q24 60 24 123v16q0 6 -2 16q-9 70 -29.5 139t-54 156t-45.5 123l240 100q39 -117 69.5 -187t73.5 -127q30 -39 65.5 -59.5 t86.5 -20.5h5q55 0 92 -37t37 -92zM96 1038q65 -26 113 -38q6 8 20.5 31.5t25.5 34.5q12 108 12 126q0 134 -23 281l-9 63l116 32q3 -42 11.5 -115t13.5 -135.5t6 -121.5q91 79 180 94q18 2 26 2q76 0 133.5 -47.5t57.5 -119.5q0 -41 -20.5 -84t-46.5 -69 q-62 -55 -135 -82.5t-176 -27.5q-5 0 -15 0.5t-15 0.5q-144 0 -318 68zM318 979q15 -1 38 -1h29q102 0 185 26t111 83q9 18 9 31q0 27 -28 43t-64 16q-34 0 -71.5 -17t-53.5 -29t-52 -41q-55 -45 -103 -111z" />
<glyph unicode="&#x6a9;" horiz-adv-x="2321" arabic-form="final" d="M2320 -30q-338 0 -526 229q-55 -71 -143 -118.5t-205 -70.5t-229.5 -31.5t-258.5 -8.5h-1q-333 6 -558 85q-218 86 -296 244v-1q-45 87 -45 192q0 156 106 340q16 28 25 45l186 -156q-34 -47 -62.5 -110.5t-36.5 -124.5q-2 -18 -2 -26q0 -37 17 -61.5t49 -46.5 q85 -59 219 -84.5t317 -34.5q77 -4 175 -4q283 0 462 66q87 33 123 77q37 44 37 96q0 49 -29 105q-31 60 -84.5 123.5t-97 103.5t-112.5 98q-89 75 -206 164l26 240l941 405l99 -238l-770 -325q245 -184 376 -405q43 -73 67 -146q25 -68 47 -115t57.5 -97t77.5 -80 t105 -50.5t142 -22.5h8q56 0 92 -36t36 -92q0 -55 -36.5 -91.5t-91.5 -36.5z" />
<glyph unicode="&#x6a9;" horiz-adv-x="1023" arabic-form="initial" d="M-11 -30q-60 0 -99 34.5t-39 92.5q0 59 38.5 94t99.5 35h115q63 0 98.5 1t91 6t89.5 14.5t68 29t52 47.5v-1q35 53 35 122q0 35 -13 91q-10 38 -50 101q-137 217 -389 423l27 239l815 362l101 -238l-678 -283q276 -230 382 -470q56 -128 56 -241q0 -121 -63 -240 q-98 -173 -322 -213v1q-39 -8 -92 -8z" />
<glyph unicode="&#x6a9;" horiz-adv-x="1169" arabic-form="medial" d="M1 -30q-55 0 -92 36.5t-37 91.5q0 54 37.5 91t91.5 37h339q57 0 106.5 30t74.5 72q22 36 22 82q0 94 -61 210q-116 220 -354 411l24 282l875 370l93 -229l-755 -310q194 -172 321 -400q44 -79 72 -134h-1q71 -131 104 -188v1q54 -90 121.5 -142t174.5 -55h41 q81 0 118 -78q10 -21 10 -50q0 -56 -36 -92t-92 -36h-8q-233 0 -365 104q-55 43 -100 94q-126 -188 -398 -198h-326z" />
<glyph unicode="&#x6af;" horiz-adv-x="2309" arabic-form="final" d="M2320 -30q-338 0 -526 229q-55 -71 -143 -118.5t-205 -70.5t-229.5 -31.5t-258.5 -8.5h-1q-333 6 -558 85q-218 86 -296 244v-1q-45 87 -45 192q0 156 106 340q16 28 25 45l186 -156q-34 -47 -62.5 -110.5t-36.5 -124.5q-2 -18 -2 -26q0 -37 17 -61.5t49 -46.5 q85 -59 219 -84.5t317 -34.5q77 -4 175 -4q283 0 462 66q87 33 123 77q37 44 37 96q0 49 -29 105q-31 60 -84.5 123.5t-97 103.5t-112.5 98q-89 75 -206 164l26 240l941 405l99 -238l-770 -325q245 -184 376 -405q43 -73 67 -146q25 -68 47 -115t57.5 -97t77.5 -80 t105 -50.5t142 -22.5h8q56 0 92 -36t36 -92q0 -55 -36.5 -91.5t-91.5 -36.5zM1174 1414l7 128l819 353l47 -101z" />
<glyph unicode="&#x6af;" horiz-adv-x="1040" arabic-form="initial" d="M4 -30q-60 0 -99 34.5t-39 92.5q0 59 38.5 94t99.5 35h115q63 0 98.5 1t91 6t89.5 14.5t68 29t52 47.5v-1q35 53 35 122q0 35 -13 91q-10 38 -50 101q-137 217 -389 423l27 239l815 362l101 -238l-678 -283q276 -230 382 -470q56 -128 56 -241q0 -121 -63 -240 q-98 -173 -322 -213v1q-39 -8 -92 -8zM110 1420l7 128l750 313l47 -101z" />
<glyph unicode="&#x6af;" horiz-adv-x="1187" arabic-form="medial" d="M1 -30q-55 0 -92 36.5t-37 91.5q0 54 37.5 91t91.5 37h339q57 0 106.5 30t74.5 72q22 36 22 82q0 94 -61 210q-116 220 -354 411l24 282l875 370l93 -229l-755 -310q194 -172 321 -400q44 -79 72 -134h-1q71 -131 104 -188v1q54 -90 121.5 -142t174.5 -55h41 q81 0 118 -78q10 -21 10 -50q0 -56 -36 -92t-92 -36h-8q-233 0 -365 104q-55 43 -100 94q-126 -188 -398 -198h-326zM150 1449l7 128l750 313l47 -101z" />
<glyph unicode="&#x6ba;" horiz-adv-x="1756" arabic-form="final" d="M1885 98q0 -55 -36.5 -91.5t-92.5 -36.5q-114 0 -208 42v-14q0 -280 -150 -472q-52 -67 -130 -114h1q-167 -110 -485 -129q-497 0 -652 383q-52 129 -52 278q0 179 45.5 314.5t134.5 298.5l210 -152q-118 -208 -146 -404q-6 -40 -6 -78q0 -143 102 -259 q109 -125 321 -125h17q72 0 196 21q273 48 348 254q21 58 21 123q0 93 -25.5 177.5t-71.5 187.5q-32 72 -88 185l222 141l86 -165q40 -79 78 -128t90 -79t142 -30q56 0 92.5 -36t36.5 -92z" />
<glyph unicode="&#x6c0;" horiz-adv-x="1090" arabic-form="final" d="M749 126q-124 -16 -205 -16q-265 0 -382 136q-60 81 -60 179q0 68 22 122q118 244 463 378q-3 26 -13 152l253 54q3 -18 6.5 -61t4.5 -51q49 -459 80 -625q6 -31 10.5 -50t13.5 -41.5t20 -35.5t30 -23t44 -14q30 -4 54 -4q55 0 92 -36.5t37 -91.5q0 -54 -37.5 -91 t-91.5 -37q-235 0 -341 156zM660 373q-10 60 -25 185.5t-17 143.5q-82 -34 -190 -112q-68 -50 -98 -101q-16 -27 -16 -50q0 -75 224 -75q70 0 122 9zM445 1447q0 -45 43 -73.5t96 -28.5q13 0 27 3t24 6t24 10.5t20.5 11t21 13t18.5 11.5q14 8 49 33l77 -102 q-28 -22 -62 -43.5t-55 -33.5t-71 -38.5t-68 -36.5l-240 -133l-62 113l167 93q-52 29 -85 78.5t-33 116.5q0 99 86 171q68 56 160 56q64 0 138 -24l-36 -121l-33 8q-45 9 -69 9q-28 0 -56 -9q-31 -14 -56 -37t-25 -53z" />
<glyph unicode="&#x6c1;" horiz-adv-x="1001" arabic-form="isolated" d="M504 -30q-125 0 -227 51t-155 131q-54 82 -54 195q0 190 170 396q33 40 52 59l44 44q-35 28 -46 39l-18 15l162 198q114 -89 259 -246q251 -287 251 -505q0 -154 -91 -246.5t-240 -120.5q-57 -10 -107 -10zM717 347q0 27 -13.5 61t-23.5 50t-33 52q-61 96 -160 192 q-108 -108 -171 -266q-19 -48 -19 -89q0 -42 34.5 -70t79 -38t93.5 -10q141 0 193 60q20 23 20 58z" />
<glyph unicode="&#x6c1;" horiz-adv-x="728" arabic-form="initial" d="M103 226q57 0 99 6.5t79.5 24t57 51.5t19.5 85q0 60 -17 131t-33 113t-44 109l-15 33q-3 5 -7 16t-7 17l242 93q37 -71 72.5 -175.5t51.5 -195.5q14 -78 14 -139q0 -160 -82.5 -260t-221.5 -142q-79 -23 -210 -23h-101q-55 0 -91.5 36.5t-36.5 91.5t36.5 91.5t91.5 36.5 h103zM521 -2q39 -24 75 -44q-92 -143 -92 -222q0 -28 27 -52t90 -48q-58 -95 -123 -138q-18 -12 -28 -12h-1q-57 5 -93.5 43.5t-36.5 98.5q0 73 50 171q32 62 132 203z" />
<glyph unicode="&#x6c1;" horiz-adv-x="1085" arabic-form="medial" d="M166 -16q-62 -14 -168 -14q-55 0 -91 36.5t-36 91.5t36 91.5t91 36.5h38q50 0 77.5 7.5t38.5 32.5q5 12 15.5 37.5t19.5 45t19 37.5l229 -81q-37 -85 -37 -203q0 -304 129 -414q-4 50 -4 93q0 180 91 282h-1q117 163 379 163h93q55 0 91.5 -36.5t36.5 -91.5t-36.5 -91.5 t-91.5 -36.5h-92q-66 0 -115 -21t-78.5 -55.5t-47 -87.5t-24 -109.5t-6.5 -129.5q0 -8 0.5 -23.5t0.5 -22.5l-179 -102q-194 123 -287 288q-71 132 -91 277zM981 -193q19 -12 75 -44q-92 -143 -92 -222q0 -29 27 -53q25 -22 90 -47q-58 -95 -123 -138q-18 -12 -28 -12h-1 q-58 6 -94 44t-36 98q0 73 50 171q32 62 132 203z" />
<glyph unicode="&#x6be;" horiz-adv-x="1220" arabic-form="final" d="M145 -80q-53 0 -85.5 32t-32.5 84q0 14 3 26t11.5 23.5t14 19t20.5 18l20 14t24 14.5t21 13l154 62q5 216 122 452q78 158 189 229q58 37 125 37q86 0 162 -74q60 -57 95.5 -141.5t35.5 -186.5q0 -62 -14.5 -111.5t-43.5 -111.5q-56 -120 -152.5 -208.5t-222.5 -121.5 q34 -73 131 -212q29 -40 43 -56q-1 8 -1 24q0 102 62 217q46 83 119.5 148t162.5 96q58 20 112 20q56 0 92.5 -36.5t36.5 -91.5q0 -56 -36.5 -92t-92.5 -36h-7q-80 -7 -141 -60t-92 -126q-21 -50 -21 -100q0 -52 15 -87t46 -68l-159 -193q-191 116 -318.5 267.5 t-198.5 362.5v-2l-2 3v0q-1 2 -1 3l-151 -42q-22 -8 -45 -8zM716 311q98 98 98 214q0 71 -24.5 123.5t-70.5 77.5q-47 -16 -94 -108q-81 -158 -102 -306q-6 -42 -6 -76v-13h2q109 0 197 88z" />
<glyph unicode="&#x6be;" horiz-adv-x="1516" arabic-form="initial" d="M506 31q-188 -61 -507 -61h-9q-55 0 -91.5 36.5t-36.5 92.5q0 80 78 117q21 10 50 10h9q83 0 218 9q-96 121 -96 291q0 128 51.5 223t138.5 154q-10 2 -42 19l-26 14l148 224q4 0 27 -10q117 -52 339.5 -152t276.5 -124q105 -46 178.5 -95.5t129.5 -118.5 q91 -113 91 -276q0 -225 -212 -352q-113 -65 -326 -65q-239 0 -389 64zM737 579q0 61 -60 117q-78 73 -137 73q-67 0 -128 -83q-59 -81 -59 -165q0 -110 104 -185q26 -19 57 -28q41 21 61 32.5t50 32.5t50 45t35 54q27 56 27 107zM976 645q4 -42 4 -71q0 -200 -121 -350 l33 -3q11 -1 31 -1q91 0 162.5 28.5t108.5 80.5q22 31 22 68q0 60 -69 133q-60 63 -171 115z" />
<glyph unicode="&#x6be;" horiz-adv-x="1003" arabic-form="medial" d="M-1 -30q-55 0 -91.5 36t-36.5 92t36.5 92t91.5 36h81q0 132 56 296q95 281 256 385q58 37 124 37q84 0 162 -74q58 -56 94.5 -140t36.5 -183q0 -105 -57 -228q-75 -159 -217 -257q-74 -51 -159 -73q40 -86 130 -212q25 -36 44 -56q-1 9 -1 26q0 100 62 215 q46 83 119.5 148.5t161.5 95.5q58 20 113 20t92 -36.5t37 -91.5q0 -56 -36.5 -92t-92.5 -36h-7q-80 -7 -141 -60t-92 -126q-21 -49 -21 -100q0 -52 15 -87t46 -68l-159 -193q-191 116 -318.5 267.5t-198.5 362.5v-2l-1 3q0 -2 -1 0q-1 1 -1 3h-127zM501 311q99 99 99 220 q0 67 -26 118.5t-70 76.5q-44 -14 -94 -109q-80 -155 -102 -305q-6 -42 -6 -76v-13h2q109 0 197 88z" />
<glyph unicode="&#x6d2;" horiz-adv-x="1631" arabic-form="final" d="M1588 -496q-190 -10 -429 -10q-22 0 -62.5 -1t-60.5 -1h-108q-124 0 -220.5 5.5t-199 21t-185.5 47.5t-141 80q-96 78 -96 189q0 130 128 225q74 54 169 81.5t247 50.5q228 34 518 34h482q55 0 91.5 -36.5t36.5 -91.5t-36.5 -91.5t-91.5 -36.5h-646q-173 0 -403 -26 q-215 -23 -316 -104q38 -25 92 -44t101.5 -30t123.5 -20t119 -12.5t127 -9.5q126 -9 347 -9q185 0 348 5z" />
<glyph unicode="&#x6d3;" horiz-adv-x="1581" arabic-form="final" d="M1550 -496q-190 -10 -429 -10q-22 0 -62.5 -1t-60.5 -1h-108q-124 0 -220.5 5.5t-199 21t-185.5 47.5t-141 80q-96 78 -96 189q0 130 128 225q74 54 169 81.5t247 50.5q228 34 518 34h482q55 0 91.5 -36.5t36.5 -91.5t-36.5 -91.5t-91.5 -36.5h-646q-173 0 -403 -26 q-215 -23 -316 -104q38 -25 92 -44t101.5 -30t123.5 -20t119 -12.5t127 -9.5q126 -9 347 -9q185 0 348 5zM365 677q0 -45 43 -73.5t96 -28.5q13 0 27 3t24 6t24 10.5t20.5 11t21 13t18.5 11.5q14 8 49 33l77 -102q-28 -22 -62 -43.5t-55 -33.5t-71 -38.5t-68 -36.5 l-240 -133l-62 113l167 93q-52 29 -85 78.5t-33 116.5q0 99 86 171q68 56 160 56q64 0 138 -24l-36 -121l-33 8q-45 9 -69 9q-28 0 -56 -9q-31 -14 -56 -37t-25 -53z" />
<glyph unicode="&#x649;" horiz-adv-x="739" arabic-form="initial" d="M-7 -30q-55 0 -91.5 36t-36.5 92t36.5 92t91.5 36h148q60 0 104.5 6t86.5 23t64 51.5t22 86.5q0 48 -40 177t-94 232l231 114q95 -213 126 -388q12 -68 12 -133q0 -160 -82.5 -260t-221.5 -142q-79 -23 -210 -23h-146z" />
<glyph unicode="&#x649;" horiz-adv-x="705" arabic-form="medial" d="M0 -30q-56 0 -92 36t-36 92q0 55 36.5 91.5t91.5 36.5h17q311 0 311 210q0 14 -1 26.5t-3 26t-3.5 22.5t-6 24t-6 20.5t-7.5 23.5t-7 22q-6 18 -22 77l246 69q49 -194 49 -311q0 -91 32 -150.5t105 -59.5q54 0 91.5 -37t37.5 -91q0 -55 -37 -91.5t-91 -36.5 q-177 0 -278 111q-135 -111 -410 -111h-17z" />
<glyph unicode="&#x6cc;" horiz-adv-x="1756" arabic-form="final" d="M1592 -30q64 -79 68 -180q-9 -164 -150 -280q-87 -71 -214 -117.5t-270 -64.5q-80 -10 -152 -10q-506 0 -660 255q-102 149 -102 378v25q0 140 44 318q41 166 122 361l206 -95q-68 -170 -103 -308.5t-35 -304.5q0 -113 43.5 -194t120.5 -119q121 -59 364 -59 q147 0 329 44q143 35 211 96q34 31 34 75q0 7 -18 22q-59 49 -207 107q-31 10 -69 19t-61.5 13.5t-74 13t-67.5 11.5l34 250h775q55 0 92 -36.5t37 -91.5t-37 -91.5t-92 -36.5h-168z" />
<glyph unicode="&#x6cc;" horiz-adv-x="887" arabic-form="initial" d="M189 -514l-172 171l170 171l172 -172zM567 -516l-172 172l170 170l172 -171zM-145 98q0 55 36.5 91.5t91.5 36.5h159q197 0 301 46q77 34 77 108q0 21 -2 41t-8 42.5t-9.5 37.5t-13.5 40.5t-13.5 35t-15.5 37t-14 32.5q-16 39 -72 155l233 115q93 -166 132 -397 q13 -76 13 -124q0 -160 -82.5 -260t-221.5 -142q-88 -23 -247 -23h-216q-55 0 -91.5 36.5t-36.5 91.5z" />
<glyph unicode="&#x6cc;" horiz-adv-x="860" arabic-form="medial" d="M472 449q0 33 -5.5 68.5t-11 55.5t-18.5 61.5t-17 55.5l245 69q34 -121 43 -238q1 -11 3 -38.5t3 -41t4 -39t6 -40t9 -36t12.5 -33.5t17 -26.5t23 -22t29.5 -13t37 -5.5q56 0 92.5 -36t36.5 -92q0 -55 -37 -91.5t-91 -36.5q-176 0 -279 115q-154 -115 -505 -115h-76 q-55 0 -91.5 36t-36.5 92t36.5 92t91.5 36h76q57 0 101.5 3t93.5 11t84 23.5t64.5 39.5t44.5 61t15 85zM167 -549l-172 171l170 171l172 -172zM545 -551l-172 172l170 170l172 -171z" />
<glyph unicode="&#xfc5e;" arabic-form="isolated" d="M371 1153q-68 0 -108 43q-49 -58 -126 -58h-7q-79 4 -124 45t-45 118q0 81 43 153l94 -49q-11 -20 -20.5 -53t-9.5 -57q0 -46 55 -46q24 0 40 12t23.5 34t10 43.5t2.5 50.5l100 43q14 -102 38 -139q17 -26 37 -26q28 2 49.5 17.5t21.5 39.5q0 20 -5.5 39.5t-18 39.5 t-21 31.5t-26.5 32.5t-21 25l97 67q57 -86 80 -157q12 -36 12 -70q0 -89 -79 -148q-43 -31 -92 -31zM-38 1858q61 0 98.5 -45t37.5 -111q0 -17 -6 -56q114 35 171 71q-89 44 -125 92q-34 46 -34 87q0 86 86 142q52 34 102 34q74 0 115.5 -54.5t41.5 -136.5q0 -50 -15 -106 l28 -15l-33 -103l-52 15q-113 -107 -364 -157l-58 82q39 65 47 83q7 15 7 29q0 43 -30 50q-12 0 -26 -5t-23 -10.5t-23.5 -15.5t-18.5 -12q-12 -8 -18 -13l-66 79q30 30 72.5 53t85.5 23zM286 1963q-22 0 -46.5 -15t-37.5 -33q-3 -5 -3 -9q0 -26 64 -60l63 -31q8 30 8 58 q0 67 -39 88z" />
<glyph unicode="&#xfc5f;" arabic-form="isolated" d="M395 1197q-68 0 -108 43q-49 -58 -126 -58h-7q-79 4 -124 45t-45 118q0 81 43 153l94 -49q-11 -20 -20.5 -53t-9.5 -57q0 -46 55 -46q24 0 40 12t23.5 34t10 43.5t2.5 50.5l100 43q14 -102 38 -139q17 -26 37 -26q28 2 49.5 17.5t21.5 39.5q0 20 -5.5 39.5t-18 39.5 t-21 31.5t-26.5 32.5t-21 25l97 67q57 -86 80 -157q12 -36 12 -70q0 -89 -79 -148q-43 -31 -92 -31zM53 568v144l452 179v-136zM53 827v144l452 179v-136z" />
<glyph unicode="&#xfc60;" arabic-form="isolated" d="M347 1332q-68 0 -108 43q-49 -58 -126 -58h-7q-79 4 -124 45t-45 118q0 81 43 153l94 -49q-11 -20 -20.5 -53t-9.5 -57q0 -46 55 -46q24 0 40 12t23.5 34t10 43.5t2.5 50.5l100 43q14 -102 38 -139q17 -26 37 -26q28 2 49.5 17.5t21.5 39.5q0 20 -5.5 39.5t-18 39.5 t-21 31.5t-26.5 32.5t-21 25l97 67q57 -86 80 -157q12 -36 12 -70q0 -89 -79 -148q-43 -31 -92 -31zM-21 1697v144l452 179v-136z" />
<glyph unicode="&#xfc61;" arabic-form="isolated" d="M367 1162q-68 0 -108 43q-49 -58 -126 -58h-7q-79 4 -124 45t-45 118q0 81 43 153l94 -49q-11 -20 -20.5 -53t-9.5 -57q0 -46 55 -46q24 0 40 12t23.5 34t10 43.5t2.5 50.5l100 43q14 -102 38 -139q17 -26 37 -26q28 2 49.5 17.5t21.5 39.5q0 20 -5.5 39.5t-18 39.5 t-21 31.5t-26.5 32.5t-21 25l97 67q57 -86 80 -157q12 -36 12 -70q0 -89 -79 -148q-43 -31 -92 -31zM225 2018q-26 0 -49 -17.5t-34 -39.5v-2q0 -19 48 -51q48 -31 87 -46q3 14 3 36q0 97 -45 117q-5 3 -10 3zM372 1713q-43 11 -55 16q-125 -106 -324 -167l-26 -7l-32 112 q7 2 39 11.5t43.5 13.5t39.5 13t43 15t36.5 15t39 18t32.5 19l-53 23q-108 52 -108 157q0 59 43 105q66 70 145 70q75 0 116 -55.5t41 -137.5q0 -48 -15 -102l29 -7z" />
<glyph unicode="&#xfc62;" arabic-form="isolated" d="M374 1170q-68 0 -108 43q-49 -58 -126 -58h-7q-79 4 -124 45t-45 118q0 81 43 153l94 -49q-11 -20 -20.5 -53t-9.5 -57q0 -46 55 -46q24 0 40 12t23.5 34t10 43.5t2.5 50.5l100 43q14 -102 38 -139q17 -26 37 -26q28 2 49.5 17.5t21.5 39.5q0 20 -5.5 39.5t-18 39.5 t-21 31.5t-26.5 32.5t-21 25l97 67q57 -86 80 -157q12 -36 12 -70q0 -89 -79 -148q-43 -31 -92 -31zM39 842v144l452 179v-136z" />
<glyph unicode="&#xfc63;" arabic-form="isolated" d="M378 1137q-68 0 -108 43q-49 -58 -126 -58h-7q-79 4 -124 45t-45 118q0 81 43 153l94 -49q-11 -20 -20.5 -53t-9.5 -57q0 -46 55 -46q24 0 40 12t23.5 34t10 43.5t2.5 50.5l100 43q14 -102 38 -139q17 -26 37 -26q28 2 49.5 17.5t21.5 39.5q0 20 -5.5 39.5t-18 39.5 t-21 31.5t-26.5 32.5t-21 25l97 67q57 -86 80 -157q12 -36 12 -70q0 -89 -79 -148q-43 -31 -92 -31zM295 1937q26 -94 26 -208q0 -94 -25 -217l-132 40q25 88 25 163q0 96 -25 183z" />
<glyph unicode="&#xfe70;" arabic-form="isolated" d="M-11 1091v144l452 179v-136zM-11 1350v144l452 179v-136z" />
<glyph unicode="&#xfe72;" arabic-form="isolated" d="M14 1434q61 0 98.5 -45t37.5 -111q0 -17 -6 -56q114 35 171 71q-89 44 -125 92q-34 46 -34 87q0 86 86 142q52 34 102 34q74 0 115.5 -54.5t41.5 -136.5q0 -50 -15 -106l28 -15l-33 -103l-52 15q-113 -107 -364 -157l-58 82q39 65 47 83q7 15 7 29q0 43 -30 50 q-12 0 -26 -5t-23 -10.5t-23.5 -15.5t-18.5 -12q-12 -8 -18 -13l-66 79q30 30 72.5 53t85.5 23zM338 1539q-22 0 -46.5 -15t-37.5 -33q-3 -5 -3 -9q0 -26 64 -60l63 -31q8 30 8 58q0 67 -39 88z" />
<glyph unicode="&#xfe74;" arabic-form="isolated" d="M-9 -711v144l452 179v-136zM-9 -452v144l452 179v-136z" />
<glyph unicode="&#xfe76;" arabic-form="isolated" d="M-30 1227v144l452 179v-136z" />
<glyph unicode="&#xfe78;" arabic-form="isolated" d="M225 1522q-26 0 -49 -17.5t-34 -39.5v-2q0 -19 48 -51q48 -31 87 -46q3 14 3 36q0 97 -45 117q-4 3 -10 3zM372 1217q-43 11 -55 16q-125 -106 -324 -167l-26 -7l-32 112q7 2 39 11.5t43.5 13.5t39.5 13t43 15t36.5 15t39 18t32.5 19l-53 23q-108 52 -108 157 q0 59 43 105q66 70 145 70q75 0 116 -55.5t41 -137.5q0 -48 -15 -102l29 -7z" />
<glyph unicode="&#xfe7a;" arabic-form="isolated" d="M-6 -554v144l452 179v-136z" />
<glyph unicode="&#xfe7c;" arabic-form="isolated" d="M378 1137q-68 0 -108 43q-49 -58 -126 -58h-7q-79 4 -124 45t-45 118q0 81 43 153l94 -49q-11 -20 -20.5 -53t-9.5 -57q0 -46 55 -46q24 0 40 12t23.5 34t10 43.5t2.5 50.5l100 43q14 -102 38 -139q17 -26 37 -26q28 2 49.5 17.5t21.5 39.5q0 20 -5.5 39.5t-18 39.5 t-21 31.5t-26.5 32.5t-21 25l97 67q57 -86 80 -157q12 -36 12 -70q0 -89 -79 -148q-43 -31 -92 -31z" />
<glyph unicode="&#xfe7e;" arabic-form="isolated" d="M147 1330q0 -42 28 -70.5t71 -28.5q44 0 72 28t28 71q0 40 -29.5 68.5t-70.5 28.5q-42 0 -70.5 -28t-28.5 -69zM240 1564h11q68 0 119 -44.5t75 -105.5q17 -43 17 -84q0 -72 -38.5 -127.5t-95.5 -86.5q-39 -21 -82 -21q-70 0 -122 44t-78 106q-17 40 -17 85 q0 72 38 127.5t95 86.5q37 20 78 20z" />
<glyph unicode="&#x622;" horiz-adv-x="673" arabic-form="final" d="M787 98q0 -55 -37 -91.5t-92 -36.5q-224 0 -342 115q-96 96 -96 295q4 83 4 285v99q0 469 -39 671l251 75q43 -240 43 -648q0 -32 1 -109t1 -108q0 -13 -0.5 -36.5t-0.5 -34.5v-65q0 -11 -1 -31t-1 -30v-81q0 -79 22 -101q36 -37 149 -39h9q54 0 91.5 -38t37.5 -91z M-20 1620q0 10 1.5 20t6.5 22t7 17t9.5 20t8.5 16q64 128 185 156q14 2 24 2q5 0 12 0.5t10 0.5q90 0 202 -60q25 -14 50 -14q16 0 32 6t26.5 12.5t26 22.5t21 22t21.5 26t17 22l135 -87q-37 -73 -137 -139q-67 -44 -135 -44q-42 0 -86 11t-70 22.5t-67 31.5q-22 11 -46 11 q-70 0 -90 -110q-6 -29 -8 -35z" />
<glyph unicode="&#x623;" horiz-adv-x="673" arabic-form="final" d="M787 98q0 -55 -37 -91.5t-92 -36.5q-224 0 -342 115q-96 96 -96 295q4 83 4 285v99q0 469 -39 671l251 75q43 -240 43 -648q0 -32 1 -109t1 -108q0 -13 -0.5 -36.5t-0.5 -34.5v-65q0 -11 -1 -31t-1 -30v-81q0 -79 22 -101q36 -37 149 -39h9q54 0 91.5 -38t37.5 -91z M147 1878q0 -45 44 -71t99 -26q13 0 27 3t24 6t24 10.5t20.5 11t21 13t18.5 11.5q14 8 49 33l77 -102q-28 -22 -62 -43.5t-55 -33.5t-71 -38.5t-68 -36.5l-240 -133l-62 113l167 93q-52 29 -85 78.5t-33 116.5q0 99 86 171q68 56 160 56q64 0 138 -24l-36 -111l-33 3 q-40 4 -69 4q-28 0 -56 -9q-32 -15 -58.5 -39.5t-26.5 -55.5z" />
<glyph unicode="&#x624;" horiz-adv-x="1045" arabic-form="final" d="M1043 226q56 0 93 -37t37 -92q0 -54 -38 -90.5t-92 -36.5h-67q-67 -285 -308 -474q-223 -175 -544 -226l-60 250q281 54 471 186q175 120 214 264h-106q-112 0 -202 21t-160.5 65.5t-109 121t-38.5 181.5q0 209 127 378q110 140 258 140q156 0 283 -138 q83 -93 134 -224.5t61 -288.5h47zM610 565q-52 55 -92 55q-52 0 -111 -78q-58 -79 -58 -159q0 -34 13 -60.5t37.5 -43t52.5 -27t66.5 -16t70.5 -7t73 -1.5h52q19 0 49 2q-15 179 -153 336v-1zM333 1273q0 -45 43 -73.5t96 -28.5q13 0 27 3t24 6t24 10.5t20.5 11t21 13 t18.5 11.5q14 8 49 33l77 -102q-28 -22 -62 -43.5t-55 -33.5t-71 -38.5t-68 -36.5l-240 -133l-62 113l167 93q-52 29 -85 78.5t-33 116.5q0 99 86 171q68 56 160 56q64 0 138 -24l-36 -121l-33 8q-45 9 -69 9q-28 0 -56 -9q-31 -14 -56 -37t-25 -53z" />
<glyph unicode="&#x625;" horiz-adv-x="673" arabic-form="final" d="M787 98q0 -55 -37 -91.5t-92 -36.5q-224 0 -342 115q-96 96 -96 295q4 83 4 285v99q0 469 -39 671l251 75q43 -240 43 -648q0 -32 1 -109t1 -108q0 -13 -0.5 -36.5t-0.5 -34.5v-65q0 -11 -1 -31t-1 -30v-81q0 -79 22 -101q36 -37 149 -39h9q54 0 91.5 -38t37.5 -91z M261 -306q0 -45 44 -71t99 -26q13 0 27 3t24 6t24 10.5t20.5 11t21 13t18.5 11.5q14 8 49 33l77 -102q-28 -22 -62 -43.5t-55 -33.5t-71 -38.5t-68 -36.5l-240 -133l-62 113l167 93q-52 29 -85 78.5t-33 116.5q0 99 86 171q68 56 160 56q64 0 138 -24l-36 -111l-33 3 q-40 4 -69 4q-28 0 -56 -9q-32 -15 -58.5 -39.5t-26.5 -55.5z" />
<glyph unicode="&#x626;" horiz-adv-x="1756" arabic-form="final" d="M1592 -30q64 -79 68 -180q-9 -164 -150 -280q-87 -71 -214 -117.5t-270 -64.5q-80 -10 -152 -10q-506 0 -660 255q-102 149 -102 378v25q0 140 44 318q41 166 122 361l206 -95q-68 -170 -103 -308.5t-35 -304.5q0 -113 43.5 -194t120.5 -119q121 -59 364 -59 q147 0 329 44q143 35 211 96q34 31 34 75q0 7 -18 22q-59 49 -207 107q-31 10 -69 19t-61.5 13.5t-74 13t-67.5 11.5l34 250h775q55 0 92 -36.5t37 -91.5t-37 -91.5t-92 -36.5h-168zM679 506q0 -45 43.5 -73.5t95.5 -28.5q11 0 20 1.5t19 5t15.5 6t16.5 8l15 7.5 q43 21 98 60l77 -102q-23 -18 -45.5 -33.5t-51.5 -32t-46.5 -26t-57 -30.5t-55.5 -30l-240 -133l-62 113l167 93q-52 29 -85 78.5t-33 116.5q0 100 71.5 163.5t174.5 63.5q64 0 138 -24l-36 -121l-33 8q-45 9 -69 9q-28 0 -56 -9q-32 -13 -56.5 -36.5t-24.5 -53.5z" />
<glyph unicode="&#x626;" horiz-adv-x="719" arabic-form="initial" d="M-7 -30q-55 0 -91.5 36t-36.5 92t36.5 92t91.5 36h148q60 0 104.5 6t86.5 23t64 51.5t22 86.5q0 48 -40 177t-94 232l231 114q95 -213 126 -388q12 -68 12 -133q0 -160 -82.5 -260t-221.5 -142q-79 -23 -210 -23h-146zM258 1324q0 -45 43.5 -73.5t95.5 -28.5q11 0 20 1.5 t19.5 5t15.5 5.5t17 8.5t15 7.5q42 21 97 60l77 -102q-22 -18 -45 -33.5t-51.5 -32t-47 -26.5t-56.5 -30t-56 -30l-240 -133l-62 113l167 93q-52 29 -85 78.5t-33 116.5q0 100 71.5 163.5t174.5 63.5q64 0 138 -24l-36 -121l-33 8q-45 9 -69 9q-27 0 -56 -9q-31 -14 -56 -37 t-25 -53z" />
<glyph unicode="&#x626;" horiz-adv-x="715" arabic-form="medial" d="M0 -30q-56 0 -92 36t-36 92q0 55 36.5 91.5t91.5 36.5h17q311 0 311 210q0 14 -1 26.5t-3 26t-3.5 22.5t-6 24t-6 20.5t-7.5 23.5t-7 22q-6 18 -22 77l246 69q49 -194 49 -311q0 -91 32 -150.5t105 -59.5q54 0 91.5 -37t37.5 -91q0 -55 -37 -91.5t-91 -36.5 q-177 0 -278 111q-135 -111 -410 -111h-17zM246 1207q0 -45 43 -73.5t96 -28.5q13 0 27 3t24 6t24 10.5t20.5 11t21 13t18.5 11.5q20 12 49 33l77 -102q-28 -22 -62 -43.5t-55 -33.5t-71 -38.5t-68 -36.5l-240 -133l-62 113l167 93q-52 29 -85 78.5t-33 116.5q0 99 86 171 q68 56 160 56q64 0 138 -24l-36 -121l-33 8q-45 9 -69 9q-27 0 -56 -9q-51 -23 -73 -63q-8 -14 -8 -27z" />
<glyph unicode="&#x627;" horiz-adv-x="624" arabic-form="final" d="M755 98q0 -55 -37 -91.5t-92 -36.5q-224 0 -342 115q-96 96 -96 295q4 83 4 285v135q0 319 -24 566q-6 63 -15 108l251 75q43 -238 43 -687q0 -32 1 -109t1 -108q0 -13 -0.5 -36.5t-0.5 -34.5v-65q0 -11 -1 -31t-1 -30v-81q0 -79 22 -101q36 -37 149 -39h9q54 0 91.5 -38 t37.5 -91z" />
<glyph unicode="&#x628;" horiz-adv-x="2245" arabic-form="final" d="M2366 98q0 -56 -36.5 -92t-92.5 -36h-8q-176 0 -284.5 61.5t-172.5 189.5q-275 -254 -823 -254q-305 2 -511.5 74t-307.5 236q-71 122 -71 268q0 77 20 155q33 135 79 205l193 -121q-25 -43 -38 -69.5t-25 -74t-12 -99.5q0 -65 46 -140q33 -53 100.5 -88.5t139 -51 t167.5 -25.5q97 -10 220 -10q337 0 531 78q128 51 186 147q18 30 33.5 69.5t24 68t23 82.5t20.5 76l230 -62q-4 -14 -13 -47t-14 -53t-9.5 -50t-4.5 -57q0 -252 281 -252q56 0 92.5 -36t36.5 -92zM991 -552l-192 192l191 191l192 -192z" />
<glyph unicode="&#x628;" horiz-adv-x="741" arabic-form="initial" d="M-7 -30q-55 0 -91.5 36t-36.5 92t36.5 92t91.5 36h148q60 0 104.5 6t86.5 23t64 51.5t22 86.5q0 48 -40 177t-94 232l231 114q95 -213 126 -388q12 -68 12 -133q0 -160 -82.5 -260t-221.5 -142q-79 -23 -210 -23h-146zM295 -566l-192 192l191 191l192 -192z" />
<glyph unicode="&#x628;" horiz-adv-x="718" arabic-form="medial" d="M0 -30q-56 0 -92 36t-36 92q0 55 36.5 91.5t91.5 36.5h17q311 0 311 210q0 14 -1 26.5t-3 26t-3.5 22.5t-6 24t-6 20.5t-7.5 23.5t-7 22q-6 18 -22 77l246 69q49 -194 49 -311q0 -91 32 -150.5t105 -59.5q54 0 91.5 -37t37.5 -91q0 -55 -37 -91.5t-91 -36.5 q-177 0 -278 111q-135 -111 -410 -111h-17zM390 -551l-192 192l191 191l192 -192z" />
<glyph unicode="&#x629;" horiz-adv-x="1126" arabic-form="final" d="M786 126q-124 -16 -205 -16q-265 0 -382 136q-60 81 -60 179q0 68 22 122q118 244 463 378q-3 26 -13 152l253 54q3 -18 6.5 -61t4.5 -51q49 -459 80 -625q6 -31 10.5 -50t13.5 -41.5t20 -35.5t30 -23t44 -14q30 -4 54 -4q55 0 92 -36.5t37 -91.5q0 -54 -37.5 -91 t-91.5 -37q-235 0 -341 156zM697 373q-10 60 -25 185.5t-17 143.5q-82 -34 -190 -112q-68 -50 -98 -101q-16 -27 -16 -50q0 -75 224 -75q69 0 122 9zM441 1256l-172 171l170 171l172 -172zM819 1254l-172 172l170 170l172 -171z" />
<glyph unicode="&#x62a;" horiz-adv-x="2253" arabic-form="final" d="M2366 98q0 -56 -36.5 -92t-92.5 -36h-8q-176 0 -284.5 61.5t-172.5 189.5q-275 -254 -823 -254q-305 2 -511.5 74t-307.5 236q-71 122 -71 268q0 77 20 155q33 135 79 205l193 -121q-25 -43 -38 -69.5t-25 -74t-12 -99.5q0 -65 46 -140q33 -53 100.5 -88.5t139 -51 t167.5 -25.5q97 -10 220 -10q337 0 531 78q128 51 186 147q18 30 33.5 69.5t24 68t23 82.5t20.5 76l230 -62q-4 -14 -13 -47t-14 -53t-9.5 -50t-4.5 -57q0 -252 281 -252q56 0 92.5 -36t36.5 -92zM840 815l-172 171l170 171l172 -172zM1218 813l-172 172l170 170l172 -171z " />
<glyph unicode="&#x62a;" horiz-adv-x="829" arabic-form="initial" d="M237 1076l-172 171l170 171l172 -172zM615 1074l-172 172l170 170l172 -171zM-164 98q0 55 36.5 91.5t91.5 36.5h159q197 0 301 46q77 34 77 108q0 21 -2 41t-8 42.5t-9.5 37.5t-13.5 40.5t-13.5 35t-15.5 37t-14 32.5q-16 39 -72 155l233 115q93 -166 132 -397 q13 -76 13 -124q0 -160 -82.5 -260t-221.5 -142q-88 -23 -247 -23h-216q-55 0 -91.5 36.5t-36.5 91.5z" />
<glyph unicode="&#x62a;" horiz-adv-x="870" arabic-form="medial" d="M472 449q0 33 -5.5 68.5t-11 55.5t-18.5 61.5t-17 55.5l245 69q34 -121 43 -238q1 -11 3 -38.5t3 -41t4 -39t6 -40t9 -36t12.5 -33.5t17 -26.5t23 -22t29.5 -13t37 -5.5q56 0 92.5 -36t36.5 -92q0 -55 -37 -91.5t-91 -36.5q-176 0 -279 115q-154 -115 -505 -115h-76 q-55 0 -91.5 36t-36.5 92t36.5 92t91.5 36h76q57 0 101.5 3t93.5 11t84 23.5t64.5 39.5t44.5 61t15 85zM258 918l-172 171l170 171l172 -172zM636 916l-172 172l170 170l172 -171z" />
<glyph unicode="&#x62b;" horiz-adv-x="2233" arabic-form="final" d="M2366 98q0 -56 -36.5 -92t-92.5 -36h-8q-176 0 -284.5 61.5t-172.5 189.5q-275 -254 -823 -254q-305 2 -511.5 74t-307.5 236q-71 122 -71 268q0 77 20 155q33 135 79 205l193 -121q-25 -43 -38 -69.5t-25 -74t-12 -99.5q0 -65 46 -140q33 -53 100.5 -88.5t139 -51 t167.5 -25.5q97 -10 220 -10q337 0 531 78q128 51 186 147q18 30 33.5 69.5t24 68t23 82.5t20.5 76l230 -62q-4 -14 -13 -47t-14 -53t-9.5 -50t-4.5 -57q0 -252 281 -252q56 0 92.5 -36t36.5 -92zM867 801l-172 171l170 171l172 -172zM1245 799l-172 172l170 170l172 -171z M1055 1416l157 -157l-156 -156l-157 157z" />
<glyph unicode="&#x62b;" horiz-adv-x="869" arabic-form="initial" d="M272 1074l-172 171l170 171l172 -172zM650 1072l-172 172l170 170l172 -171zM460 1689l157 -157l-156 -156l-157 157zM-128 98q0 55 36.5 91.5t91.5 36.5h159q197 0 301 46q77 34 77 108q0 21 -2 41t-8 42.5t-9.5 37.5t-13.5 40.5t-13.5 35t-15.5 37t-14 32.5 q-16 39 -72 155l233 115q93 -166 132 -397q13 -76 13 -124q0 -160 -82.5 -260t-221.5 -142q-88 -23 -247 -23h-216q-55 0 -91.5 36.5t-36.5 91.5z" />
<glyph unicode="&#x62b;" horiz-adv-x="864" arabic-form="medial" d="M472 449q0 33 -5.5 68.5t-11 55.5t-18.5 61.5t-17 55.5l245 69q34 -121 43 -238q1 -11 3 -38.5t3 -41t4 -39t6 -40t9 -36t12.5 -33.5t17 -26.5t23 -22t29.5 -13t37 -5.5q56 0 92.5 -36t36.5 -92q0 -55 -37 -91.5t-91 -36.5q-176 0 -279 115q-154 -115 -505 -115h-76 q-55 0 -91.5 36t-36.5 92t36.5 92t91.5 36h76q57 0 101.5 3t93.5 11t84 23.5t64.5 39.5t44.5 61t15 85zM233 925l-172 171l170 171l172 -172zM611 923l-172 172l170 170l172 -171zM421 1540l157 -157l-156 -156l-157 157z" />
<glyph unicode="&#x62c;" horiz-adv-x="1740" arabic-form="final" d="M923 -553q156 0 282 48t243 135l150 -210q-154 -110 -334 -174q-177 -63 -379 -63q-263 0 -450.5 107.5t-268.5 297.5q-48 115 -48 248q0 252 184 436q117 117 289 196.5t377 112.5q118 19 241 19h19q-85 31 -227 102.5t-213 98.5q-57 22 -115 22q-116 0 -213 -107 q-26 -29 -47 -69l-213 137q124 215 324 276q66 20 149 20q166 0 351 -104q36 -20 129.5 -79t137.5 -82q178 -93 381 -133l-79 -265l-188 -24q13 -167 337 -167q54 0 91.5 -38t37.5 -92t-37.5 -90t-91.5 -36q-434 0 -562 264q-23 47 -28 78q-7 40 -6 51q-305 -51 -516 -172 q-154 -87 -218 -202q-35 -61 -35 -144q0 -192 161 -299q149 -99 385 -99zM927 -329l-192 192l191 191l192 -192z" />
<glyph unicode="&#x62c;" horiz-adv-x="1598" arabic-form="initial" d="M-131 98q0 55 37 91.5t93 36.5h198q226 0 508 86q231 71 477 191q-95 21 -249 88t-178 76q-60 22 -121 22q-37 0 -71 -13.5t-56.5 -30t-47.5 -48t-37 -49.5t-32 -52l-208 135q123 214 310 289q65 26 142 26q133 0 304 -72q46 -19 138 -62.5t167 -74.5t150 -51 q80 -22 160 -23l-21 -258q-33 -16 -141.5 -69t-162.5 -79t-142.5 -65.5t-163.5 -67.5q-387 -147 -725 -154h-198q-56 0 -93 36.5t-37 91.5zM765 -555l-192 192l191 191l192 -192z" />
<glyph unicode="&#x62c;" horiz-adv-x="1663" arabic-form="medial" d="M0 -30q-56 0 -92.5 35.5t-36.5 91.5q0 55 36.5 92t92.5 37h183q219 0 494 88q184 59 450 189q-68 8 -177 57q-15 7 -67 30.5t-77.5 34.5t-68 26.5t-79.5 24.5q-50 12 -97 12q-63 0 -133 -48q-74 -51 -129 -137l-200 109q52 100 141 182.5t194 125.5q66 27 127 27 q58 0 120.5 -15t94.5 -28t98 -42q12 -6 85.5 -39.5t102 -45.5t85.5 -33.5t105 -35.5q165 -48 287 -48l-43 -244q-24 -11 -71.5 -35t-73.5 -35q29 -63 111.5 -91.5t190.5 -28.5h14q55 0 92 -37t37 -92t-36.5 -91t-92.5 -36h-14q-195 0 -333.5 66.5t-200.5 194.5 q-181 -89 -340 -149t-335 -91q-123 -22 -261 -22zM789 -553l-192 192l191 191l192 -192z" />
<glyph unicode="&#x62d;" horiz-adv-x="1740" arabic-form="final" d="M923 -553q156 0 282 48t243 135l150 -210q-154 -110 -334 -174q-177 -63 -379 -63q-263 0 -450.5 107.5t-268.5 297.5q-48 115 -48 248q0 252 184 436q117 117 289 196.5t377 112.5q118 19 241 19h19q-85 31 -227 102.5t-213 98.5q-57 22 -115 22q-116 0 -213 -107 q-26 -29 -47 -69l-213 137q124 215 324 276q66 20 149 20q166 0 351 -104q36 -20 129.5 -79t137.5 -82q178 -93 381 -133l-79 -265l-188 -24q13 -167 337 -167q54 0 91.5 -38t37.5 -92t-37.5 -90t-91.5 -36q-434 0 -562 264q-23 47 -28 78q-7 40 -6 51q-305 -51 -516 -172 q-154 -87 -218 -202q-35 -61 -35 -144q0 -192 161 -299q149 -99 385 -99z" />
<glyph unicode="&#x62d;" horiz-adv-x="1630" arabic-form="initial" d="M-131 98q0 55 37 91.5t93 36.5h198q226 0 508 86q231 71 477 191q-95 21 -249 88t-178 76q-60 22 -121 22q-37 0 -71 -13.5t-56.5 -30t-47.5 -48t-37 -49.5t-32 -52l-208 135q123 214 310 289q65 26 142 26q133 0 304 -72q46 -19 138 -62.5t167 -74.5t150 -51 q80 -22 160 -23l-21 -258q-33 -16 -141.5 -69t-162.5 -79t-142.5 -65.5t-163.5 -67.5q-387 -147 -725 -154h-198q-56 0 -93 36.5t-37 91.5z" />
<glyph unicode="&#x62d;" horiz-adv-x="1667" arabic-form="medial" d="M0 -30q-56 0 -92.5 35.5t-36.5 91.5q0 55 36.5 92t92.5 37h183q219 0 494 88q184 59 450 189q-68 8 -177 57q-15 7 -67 30.5t-77.5 34.5t-68 26.5t-79.5 24.5q-50 12 -97 12q-63 0 -133 -48q-74 -51 -129 -137l-200 109q52 100 141 182.5t194 125.5q66 27 127 27 q58 0 120.5 -15t94.5 -28t98 -42q12 -6 85.5 -39.5t102 -45.5t85.5 -33.5t105 -35.5q165 -48 287 -48l-43 -244q-24 -11 -71.5 -35t-73.5 -35q29 -63 111.5 -91.5t190.5 -28.5h14q55 0 92 -37t37 -92t-36.5 -91t-92.5 -36h-14q-195 0 -333.5 66.5t-200.5 194.5 q-181 -89 -340 -149t-335 -91q-123 -22 -261 -22z" />
<glyph unicode="&#x62e;" horiz-adv-x="1751" arabic-form="final" d="M923 -553q156 0 282 48t243 135l150 -210q-154 -110 -334 -174q-177 -63 -379 -63q-263 0 -450.5 107.5t-268.5 297.5q-48 115 -48 248q0 252 184 436q117 117 289 196.5t377 112.5q118 19 241 19h19q-85 31 -227 102.5t-213 98.5q-57 22 -115 22q-116 0 -213 -107 q-26 -29 -47 -69l-213 137q124 215 324 276q66 20 149 20q166 0 351 -104q36 -20 129.5 -79t137.5 -82q178 -93 381 -133l-79 -265l-188 -24q13 -167 337 -167q54 0 91.5 -38t37.5 -92t-37.5 -90t-91.5 -36q-434 0 -562 264q-23 47 -28 78q-7 40 -6 51q-305 -51 -516 -172 q-154 -87 -218 -202q-35 -61 -35 -144q0 -192 161 -299q149 -99 385 -99zM612 1220l-192 192l191 191l192 -192z" />
<glyph unicode="&#x62e;" horiz-adv-x="1592" arabic-form="initial" d="M-131 98q0 55 37 91.5t93 36.5h198q226 0 508 86q231 71 477 191q-95 21 -249 88t-178 76q-60 22 -121 22q-37 0 -71 -13.5t-56.5 -30t-47.5 -48t-37 -49.5t-32 -52l-208 135q123 214 310 289q65 26 142 26q133 0 304 -72q46 -19 138 -62.5t167 -74.5t150 -51 q80 -22 160 -23l-21 -258q-33 -16 -141.5 -69t-162.5 -79t-142.5 -65.5t-163.5 -67.5q-387 -147 -725 -154h-198q-56 0 -93 36.5t-37 91.5zM592 1094l-192 192l191 191l192 -192z" />
<glyph unicode="&#x62e;" horiz-adv-x="1669" arabic-form="medial" d="M0 -30q-56 0 -92.5 35.5t-36.5 91.5q0 55 36.5 92t92.5 37h183q219 0 494 88q184 59 450 189q-68 8 -177 57q-15 7 -67 30.5t-77.5 34.5t-68 26.5t-79.5 24.5q-50 12 -97 12q-63 0 -133 -48q-74 -51 -129 -137l-200 109q52 100 141 182.5t194 125.5q66 27 127 27 q58 0 120.5 -15t94.5 -28t98 -42q12 -6 85.5 -39.5t102 -45.5t85.5 -33.5t105 -35.5q165 -48 287 -48l-43 -244q-24 -11 -71.5 -35t-73.5 -35q29 -63 111.5 -91.5t190.5 -28.5h14q55 0 92 -37t37 -92t-36.5 -91t-92.5 -36h-14q-195 0 -333.5 66.5t-200.5 194.5 q-181 -89 -340 -149t-335 -91q-123 -22 -261 -22zM562 1092l-192 192l191 191l192 -192z" />
<glyph unicode="&#x62f;" horiz-adv-x="1286" arabic-form="final" d="M1288 -30q-210 0 -327 123q-50 -35 -162 -78q-117 -45 -280 -45q-237 0 -443 212l147 207q91 -84 170 -121q81 -38 151 -38q46 0 92 10t70.5 19t71.5 29q35 15 55 31l-319 770l237 99q33 -87 94.5 -231t88.5 -212q52 -130 135 -325l16 -39q16 -40 29.5 -64t36 -47 t56.5 -33.5t81 -10.5q55 0 92 -36.5t37 -91.5t-37 -91.5t-92 -36.5z" />
<glyph unicode="&#x630;" horiz-adv-x="1291" arabic-form="final" d="M1288 -30q-210 0 -327 123q-50 -35 -162 -78q-117 -45 -280 -45q-237 0 -443 212l147 207q91 -84 170 -121q81 -38 151 -38q46 0 92 10t70.5 19t71.5 29q35 15 55 31l-319 770l237 99q33 -87 94.5 -231t88.5 -212q52 -130 135 -325l16 -39q16 -40 29.5 -64t36 -47 t56.5 -33.5t81 -10.5q55 0 92 -36.5t37 -91.5t-37 -91.5t-92 -36.5zM616 1370l-192 192l191 191l192 -192z" />
<glyph unicode="&#x631;" horiz-adv-x="816" arabic-form="final" d="M954 97q0 -56 -36.5 -91.5t-93.5 -35.5h-31q-75 0 -141 42q-26 -236 -238 -458q-184 -193 -464 -332l-112 231q239 121 394 268q111 104 160 226q24 60 24 123v16q0 6 -2 16q-9 70 -29.5 139t-54 156t-45.5 123l240 100q39 -117 69.5 -187t73.5 -127q30 -39 65.5 -59.5 t86.5 -20.5h5q55 0 92 -37t37 -92z" />
<glyph unicode="&#x632;" horiz-adv-x="819" arabic-form="final" d="M954 97q0 -56 -36.5 -91.5t-93.5 -35.5h-31q-75 0 -141 42q-26 -236 -238 -458q-184 -193 -464 -332l-112 231q239 121 394 268q111 104 160 226q24 60 24 123v16q0 6 -2 16q-9 70 -29.5 139t-54 156t-45.5 123l240 100q39 -117 69.5 -187t73.5 -127q30 -39 65.5 -59.5 t86.5 -20.5h5q55 0 92 -37t37 -92zM387 858l-192 192l191 191l192 -192z" />
<glyph unicode="&#x633;" horiz-adv-x="2949" arabic-form="final" d="M2606 141q-102 -169 -318 -169q-159 0 -240 139q-52 -72 -113 -106t-169 -34q-97 0 -172 36q1 -13 1 -39q0 -312 -245 -490q-231 -168 -558 -168q-151 0 -274.5 49.5t-211.5 134.5q-88 86 -140 208.5t-52 273.5q9 246 140 509q37 74 77 134l207 -153q-129 -208 -166 -366 q-15 -65 -15 -131v-15q0 -131 70.5 -221t182.5 -133q80 -31 178 -31q122 0 220.5 25.5t172.5 77.5t114.5 138t40.5 201q0 160 -86 372q-17 42 -80 190l225 138q3 -8 19 -51.5t21.5 -56.5t20.5 -51.5t23.5 -56t23.5 -49.5t27 -52t28 -43.5t32 -42.5q69 -80 138 -80q14 0 27 3 q33 1 58 12t41 31.5t26.5 44.5t15.5 57.5t7 63.5t2 69l-5 169l245 25l3 -46l3 -72q18 -264 109 -343q23 -20 54 -20q29 0 51.5 14t36 42t22 57t12 71.5t4.5 72.5t1 72v35q0 7 -0.5 17t-0.5 13v44q0 3 -0.5 15t-0.5 20l253 20q18 -195 30 -282q10 -71 50 -120.5t101 -73.5 q33 -13 66 -13h12q59 0 97.5 -35.5t38.5 -93.5t-38.5 -93t-99.5 -35q-124 0 -207 43t-136 129z" />
<glyph unicode="&#x633;" horiz-adv-x="1680" arabic-form="initial" d="M1170 -42h-20q-156 0 -258 158q-52 -76 -123 -117t-180 -41q-90 0 -149.5 42t-111.5 115q-50 -72 -124 -109t-188 -37h-17q-52 3 -86.5 39t-34.5 89t35 89.5t86 39.5q90 0 148.5 49.5t98.5 129.5q45 90 100 306l250 -55q-5 -14 -19.5 -59t-22 -70t-17.5 -63t-16 -70 q-7 -44 -7 -68q0 -109 83 -109q82 0 145 93q90 134 130 406l234 -45q-3 -34 -21.5 -132.5t-18.5 -160.5q0 -158 132 -164q74 0 117.5 37.5t43.5 108.5q0 61 -16.5 131.5t-33 114t-43.5 107.5q-18 42 -40 88l215 120q68 -119 119 -319q35 -138 35 -239q0 -146 -66 -241 t-183 -136q-81 -28 -176 -28z" />
<glyph unicode="&#x633;" horiz-adv-x="1851" arabic-form="medial" d="M1 -30q-60 0 -99.5 35t-39.5 93q0 56 40 90.5t98 37.5q70 0 116.5 23t85.5 71q53 66 86.5 157t64.5 228l245 -69q-6 -19 -21 -66t-22 -72t-14 -68t-7 -85q0 -49 16.5 -84.5t53.5 -35.5q30 0 57.5 16t43 33t35.5 44q98 140 146 394l236 -48q-32 -142 -32 -240 q0 -195 118 -195q27 0 48.5 13.5t35 33.5t23.5 53t15 61t7.5 69t3 65.5t0.5 62.5q0 7 -0.5 17.5t-0.5 13.5v44q0 3 -0.5 14.5t-0.5 19.5l253 20q18 -195 30 -282q21 -144 151 -195q33 -13 66 -13h12q59 0 97.5 -35t38.5 -93q0 -60 -41.5 -94t-106.5 -34q-224 0 -333 172 q-110 -172 -298 -172q-96 0 -172 46.5t-120 118.5q-128 -168 -306 -168q-100 0 -170 46.5t-108 122.5q-48 -86 -126.5 -126t-204.5 -40z" />
<glyph unicode="&#x634;" horiz-adv-x="2960" arabic-form="final" d="M2606 141q-102 -169 -318 -169q-159 0 -240 139q-52 -72 -113 -106t-169 -34q-97 0 -172 36q1 -13 1 -39q0 -312 -245 -490q-231 -168 -558 -168q-151 0 -274.5 49.5t-211.5 134.5q-88 86 -140 208.5t-52 273.5q9 246 140 509q37 74 77 134l207 -153q-129 -208 -166 -366 q-15 -65 -15 -131v-15q0 -131 70.5 -221t182.5 -133q80 -31 178 -31q122 0 220.5 25.5t172.5 77.5t114.5 138t40.5 201q0 160 -86 372q-17 42 -80 190l225 138q3 -8 19 -51.5t21.5 -56.5t20.5 -51.5t23.5 -56t23.5 -49.5t27 -52t28 -43.5t32 -42.5q69 -80 138 -80q14 0 27 3 q33 1 58 12t41 31.5t26.5 44.5t15.5 57.5t7 63.5t2 69l-5 169l245 25l3 -46l3 -72q18 -264 109 -343q23 -20 54 -20q29 0 51.5 14t36 42t22 57t12 71.5t4.5 72.5t1 72v35q0 7 -0.5 17t-0.5 13v44q0 3 -0.5 15t-0.5 20l253 20q18 -195 30 -282q10 -71 50 -120.5t101 -73.5 q33 -13 66 -13h12q59 0 97.5 -35.5t38.5 -93.5t-38.5 -93t-99.5 -35q-124 0 -207 43t-136 129zM1833 905l-172 171l170 171l172 -172zM2211 903l-172 172l170 170l172 -171zM2021 1520l157 -157l-156 -156l-157 157z" />
<glyph unicode="&#x634;" horiz-adv-x="1669" arabic-form="initial" d="M1170 -42h-20q-156 0 -258 158q-52 -76 -123 -117t-180 -41q-90 0 -149.5 42t-111.5 115q-50 -72 -124 -109t-188 -37h-17q-52 3 -86.5 39t-34.5 89t35 89.5t86 39.5q90 0 148.5 49.5t98.5 129.5q45 90 100 306l250 -55q-5 -14 -19.5 -59t-22 -70t-17.5 -63t-16 -70 q-7 -44 -7 -68q0 -109 83 -109q82 0 145 93q90 134 130 406l234 -45q-3 -34 -21.5 -132.5t-18.5 -160.5q0 -158 132 -164q74 0 117.5 37.5t43.5 108.5q0 61 -16.5 131.5t-33 114t-43.5 107.5q-18 42 -40 88l215 120q68 -119 119 -319q35 -138 35 -239q0 -146 -66 -241 t-183 -136q-81 -28 -176 -28zM748 988l-172 171l170 171l172 -172zM1126 986l-172 172l170 170l172 -171zM936 1603l157 -157l-156 -156l-157 157z" />
<glyph unicode="&#x634;" horiz-adv-x="1876" arabic-form="medial" d="M8 -30q-60 0 -99.5 35t-39.5 93q0 56 40 90.5t98 37.5q70 0 116.5 23t85.5 71q53 66 86.5 157t64.5 228l245 -69q-6 -19 -21 -66t-22 -72t-14 -68t-7 -85q0 -49 16.5 -84.5t53.5 -35.5q30 0 57.5 16t43 33t35.5 44q98 140 146 394l236 -48q-32 -142 -32 -240 q0 -195 118 -195q27 0 48.5 13.5t35 33.5t23.5 53t15 61t7.5 69t3 65.5t0.5 62.5q0 7 -0.5 17.5t-0.5 13.5v44q0 3 -0.5 14.5t-0.5 19.5l253 20q18 -195 30 -282q21 -144 151 -195q33 -13 66 -13h12q59 0 97.5 -35t38.5 -93q0 -60 -41.5 -94t-106.5 -34q-224 0 -333 172 q-110 -172 -298 -172q-96 0 -172 46.5t-120 118.5q-128 -168 -306 -168q-100 0 -170 46.5t-108 122.5q-48 -86 -126.5 -126t-204.5 -40zM816 958l-172 171l170 171l172 -172zM1194 956l-172 172l170 170l172 -171zM1004 1573l157 -157l-156 -156l-157 157z" />
<glyph unicode="&#x635;" horiz-adv-x="2894" arabic-form="final" d="M2080 -64q-319 0 -527 129v-32q0 -159 -55.5 -289t-149.5 -222q-208 -201 -529 -201q-265 0 -439.5 98t-243.5 291q-47 133 -47 232q0 183 81 404q49 135 127 274l200 -142q-17 -20 -56 -103q-78 -162 -104 -317q-11 -63 -11 -118q0 -95 38.5 -166t106.5 -112.5 t152.5 -61.5t185.5 -20q161 0 275 64.5t174 178.5q50 97 50 199v25q0 123 -52 297q-9 29 -21.5 63.5t-22 58.5t-25 62.5t-22.5 55.5l231 126l32 -83q54 -136 83 -184q37 -62 82 -95q84 178 277 332q194 155 383 197q55 13 115 13q126 0 223.5 -52t158.5 -137 q75 -105 75 -229q0 -118 -60 -226q40 -20 121 -20h8q56 0 92.5 -37t36.5 -92t-36.5 -91t-92.5 -36q-201 0 -306 96q-209 -130 -508 -130zM1799 241q172 -47 288 -47q162 0 294 44.5t194 131.5q31 45 31 101q0 46 -29 80t-70 53q-63 30 -132 30q-35 0 -73 -10 q-243 -70 -419 -259q-56 -60 -84 -124z" />
<glyph unicode="&#x635;" horiz-adv-x="1926" arabic-form="initial" d="M0 -30q-55 0 -92 36.5t-37 91.5t37 91.5t92 36.5q162 0 226 83q73 106 98 237q17 83 40 161l216 -69q-1 -5 -5 -21.5t-5 -21t-4.5 -19t-4.5 -20t-3.5 -18t-3.5 -20t-2.5 -19.5t-2 -21.5t-1 -21.5t-0.5 -24q0 -50 35 -118q95 197 266 363q135 130 313 193q58 20 110 29 l-1 -1q60 12 113 12q201 0 341 -143h-1q119 -121 119 -278q0 -100 -54 -205q-46 -89 -127.5 -155t-190 -104.5t-231 -56.5t-264.5 -18q-153 0 -260 18t-190 66q-62 35 -121 89q-68 -77 -163 -114.5t-233 -38.5h-9zM781 226q140 -7 211 -7q418 0 565 143q51 50 69 123 q-7 82 -77 124.5t-170 42.5q-57 0 -114.5 -17t-92.5 -35.5t-86 -49.5q-146 -91 -266 -262q-23 -33 -39 -62z" />
<glyph unicode="&#x635;" horiz-adv-x="1933" arabic-form="medial" d="M-1 -30q-56 0 -92 36t-36 91q0 56 36.5 92.5t91.5 36.5h9q111 3 147 21q30 17 54 43t39 52t29.5 68.5t21.5 71t19 80.5q6 29 23.5 83.5t21.5 69.5l232 -77q-42 -99 -42 -181q0 -14 2.5 -28.5t9 -32.5t9 -25.5t12.5 -30.5l10 -22q185 357 465 504q105 56 220 77 q50 10 108 10q208 0 346 -143h-1q119 -119 119 -275q0 -147 -87 -265h167q55 0 92.5 -37t37.5 -92t-37 -91t-93 -36l-252 -1q-76 0 -113 1t-85.5 7.5t-85.5 20.5q-178 -47 -411 -47q-128 0 -237 13q-3 0 -11.5 1t-11.5 1q-94 9 -161 41l1 -1q-90 36 -153 119q0 -1 0.5 -1 t0.5 -1q-1 1 -3 4q-143 -157 -412 -157zM1641 481q-12 77 -85.5 127t-165.5 50q-145 0 -310 -105q-96 -61 -200 -199q-51 -68 -85 -128q95 -13 221 -13q418 0 570 157q44 46 55 111z" />
<glyph unicode="&#x636;" horiz-adv-x="2894" arabic-form="final" d="M2080 -64q-319 0 -527 129v-32q0 -159 -55.5 -289t-149.5 -222q-208 -201 -529 -201q-265 0 -439.5 98t-243.5 291q-47 133 -47 232q0 183 81 404q49 135 127 274l200 -142q-17 -20 -56 -103q-78 -162 -104 -317q-11 -63 -11 -118q0 -95 38.5 -166t106.5 -112.5 t152.5 -61.5t185.5 -20q161 0 275 64.5t174 178.5q50 97 50 199v25q0 123 -52 297q-9 29 -21.5 63.5t-22 58.5t-25 62.5t-22.5 55.5l231 126l32 -83q54 -136 83 -184q37 -62 82 -95q84 178 277 332q194 155 383 197q55 13 115 13q126 0 223.5 -52t158.5 -137 q75 -105 75 -229q0 -118 -60 -226q40 -20 121 -20h8q56 0 92.5 -37t36.5 -92t-36.5 -91t-92.5 -36q-201 0 -306 96q-209 -130 -508 -130zM1799 241q172 -47 288 -47q162 0 294 44.5t194 131.5q31 45 31 101q0 46 -29 80t-70 53q-63 30 -132 30q-35 0 -73 -10 q-243 -70 -419 -259q-56 -60 -84 -124zM2296 1011l-192 192l191 191l192 -192z" />
<glyph unicode="&#x636;" horiz-adv-x="1926" arabic-form="initial" d="M0 -30q-55 0 -92 36.5t-37 91.5t37 91.5t92 36.5q162 0 226 83q73 106 98 237q17 83 40 161l216 -69q-1 -5 -5 -21.5t-5 -21t-4.5 -19t-4.5 -20t-3.5 -18t-3.5 -20t-2.5 -19.5t-2 -21.5t-1 -21.5t-0.5 -24q0 -50 35 -118q95 197 266 363q135 130 313 193q58 20 110 29 l-1 -1q60 12 113 12q201 0 341 -143h-1q119 -121 119 -278q0 -100 -54 -205q-46 -89 -127.5 -155t-190 -104.5t-231 -56.5t-264.5 -18q-153 0 -260 18t-190 66q-62 35 -121 89q-68 -77 -163 -114.5t-233 -38.5h-9zM781 226q140 -7 211 -7q418 0 565 143q51 50 69 123 q-7 82 -77 124.5t-170 42.5q-57 0 -114.5 -17t-92.5 -35.5t-86 -49.5q-146 -91 -266 -262q-23 -33 -39 -62zM1299 1059l-192 192l191 191l192 -192z" />
<glyph unicode="&#x636;" horiz-adv-x="1931" arabic-form="medial" d="M-1 -30q-56 0 -92 36t-36 91q0 56 36.5 92.5t91.5 36.5h9q111 3 147 21q30 17 54 43t39 52t29.5 68.5t21.5 71t19 80.5q6 29 23.5 83.5t21.5 69.5l232 -77q-42 -99 -42 -181q0 -14 2.5 -28.5t9 -32.5t9 -25.5t12.5 -30.5l10 -22q185 357 465 504q105 56 220 77 q50 10 108 10q208 0 346 -143h-1q119 -119 119 -275q0 -147 -87 -265h167q55 0 92.5 -37t37.5 -92t-37 -91t-93 -36l-252 -1q-76 0 -113 1t-85.5 7.5t-85.5 20.5q-178 -47 -411 -47q-128 0 -237 13q-3 0 -11.5 1t-11.5 1q-94 9 -161 41l1 -1q-90 36 -153 119q0 -1 0.5 -1 t0.5 -1q-1 1 -3 4q-143 -157 -412 -157zM1641 481q-12 77 -85.5 127t-165.5 50q-145 0 -310 -105q-96 -61 -200 -199q-51 -68 -85 -128q95 -13 221 -13q418 0 570 157q44 46 55 111zM1354 1037l-192 192l191 191l192 -192z" />
<glyph unicode="&#x637;" horiz-adv-x="1867" arabic-form="final" d="M1288 2q-117 -32 -292 -32h-90q-249 0 -443.5 38t-360.5 119l94 241q14 -5 63 -23.5t70 -26t59 -19t70 -19.5q38 56 116 156q24 144 24 298q0 36 -16 279q-11 162 -51 524l256 68q7 -78 27 -252.5t31 -313t11 -269.5v-37q8 7 25 22q109 98 173 136q125 74 283 74 q126 0 219 -54t148 -145q49 -80 49 -161q0 -225 -142 -379h256q56 0 92 -35.5t36 -91.5q0 -55 -36.5 -92t-92.5 -37h-318q-161 0 -260 32zM699 226q96 -12 184 -12q181 0 327 44t241 128q93 83 93 165q0 76 -64 114.5t-153 38.5q-67 0 -149 -36q-144 -63 -266.5 -179.5 t-212.5 -262.5z" />
<glyph unicode="&#x637;" horiz-adv-x="1543" arabic-form="initial" d="M505 226q122 0 218 7.5t197.5 27.5t176 62t115.5 105q31 47 31 114q0 80 -63.5 118.5t-159.5 38.5q-132 0 -280 -104q-185 -130 -330 -369h95zM-3 -30q-56 0 -92.5 36.5t-36.5 91.5q0 54 37.5 91t91.5 37h135q52 97 135 205q18 125 22 367q0 14 -0.5 41t-0.5 40 q0 79 -5.5 170.5t-10.5 145t-17.5 170t-16.5 152.5l263 68q51 -381 51 -774v-81q90 77 177 130.5t190 82.5q67 19 144 19q124 0 212.5 -55.5t138.5 -148.5q43 -80 43 -174q0 -398 -447 -550q-193 -65 -412 -65l-592 1h-9z" />
<glyph unicode="&#x637;" horiz-adv-x="1583" arabic-form="medial" d="M-3 -30q-56 0 -92.5 36.5t-36.5 91.5q0 54 37.5 91t91.5 37h135q52 97 135 205q18 125 22 367q0 14 -0.5 41t-0.5 40q0 79 -5.5 170.5t-10.5 145t-17.5 170t-16.5 152.5l263 68q51 -381 51 -774v-81q90 77 177 130.5t190 82.5q67 19 144 19q124 0 212.5 -55.5 t138.5 -148.5q42 -79 42 -172q0 -213 -135 -360h264q56 0 92 -35.5t36 -91.5q0 -55 -36.5 -92t-92.5 -37h-247q-216 0 -391 44q-170 -45 -348 -45l-592 1h-9zM505 226q122 0 218 7.5t197.5 27.5t176 62t115.5 105q31 47 31 114q0 80 -63.5 118.5t-159.5 38.5 q-132 0 -280 -104q-185 -130 -330 -369h95z" />
<glyph unicode="&#x638;" horiz-adv-x="1882" arabic-form="final" d="M1288 2q-117 -32 -292 -32h-90q-249 0 -443.5 38t-360.5 119l94 241q14 -5 63 -23.5t70 -26t59 -19t70 -19.5q38 56 116 156q24 144 24 298q0 36 -16 279q-11 162 -51 524l256 68q7 -78 27 -252.5t31 -313t11 -269.5v-37q8 7 25 22q109 98 173 136q125 74 283 74 q126 0 219 -54t148 -145q49 -80 49 -161q0 -225 -142 -379h256q56 0 92 -35.5t36 -91.5q0 -55 -36.5 -92t-92.5 -37h-318q-161 0 -260 32zM699 226q96 -12 184 -12q181 0 327 44t241 128q93 83 93 165q0 76 -64 114.5t-153 38.5q-67 0 -149 -36q-144 -63 -266.5 -179.5 t-212.5 -262.5zM1283 1164l-192 192l191 191l192 -192z" />
<glyph unicode="&#x638;" horiz-adv-x="1520" arabic-form="initial" d="M505 226q122 0 218 7.5t197.5 27.5t176 62t115.5 105q31 47 31 114q0 80 -63.5 118.5t-159.5 38.5q-132 0 -280 -104q-185 -130 -330 -369h95zM-3 -30q-56 0 -92.5 36.5t-36.5 91.5q0 54 37.5 91t91.5 37h135q52 97 135 205q18 125 22 367q0 14 -0.5 41t-0.5 40 q0 79 -5.5 170.5t-10.5 145t-17.5 170t-16.5 152.5l263 68q51 -381 51 -774v-81q90 77 177 130.5t190 82.5q67 19 144 19q124 0 212.5 -55.5t138.5 -148.5q43 -80 43 -174q0 -398 -447 -550q-193 -65 -412 -65l-592 1h-9zM1048 1152l-192 192l191 191l192 -192z" />
<glyph unicode="&#x638;" horiz-adv-x="1570" arabic-form="medial" d="M-3 -30q-56 0 -92.5 36.5t-36.5 91.5q0 54 37.5 91t91.5 37h135q52 97 135 205q18 125 22 367q0 14 -0.5 41t-0.5 40q0 79 -5.5 170.5t-10.5 145t-17.5 170t-16.5 152.5l263 68q51 -381 51 -774v-81q90 77 177 130.5t190 82.5q67 19 144 19q124 0 212.5 -55.5 t138.5 -148.5q42 -79 42 -172q0 -213 -135 -360h264q56 0 92 -35.5t36 -91.5q0 -55 -36.5 -92t-92.5 -37h-247q-216 0 -391 44q-170 -45 -348 -45l-592 1h-9zM505 226q122 0 218 7.5t197.5 27.5t176 62t115.5 105q31 47 31 114q0 80 -63.5 118.5t-159.5 38.5 q-132 0 -280 -104q-185 -130 -330 -369h95zM1057 1163l-192 192l191 191l192 -192z" />
<glyph unicode="&#x639;" horiz-adv-x="1390" arabic-form="final" d="M1519 97q0 -55 -36 -91.5t-91 -36.5q-154 0 -322 67q-140 56 -307 171q-286 -111 -385 -274q-39 -65 -39 -147q0 -85 67 -166q87 -104 232 -158q79 -29 191 -29l29 1q214 8 391 124l135 -224q-125 -74 -242.5 -115.5t-262.5 -41.5q-251 0 -434 85.5t-277 248.5v-1 q-77 128 -77 272q0 211 148 386q114 135 303 222q-41 39 -121.5 107t-111.5 96l-19 214q256 229 599 229q120 0 212 -31l-1 1q103 -31 168 -97t65 -169q0 -196 -168 -330q-52 -41 -136 -84q122 -67 273 -92q50 -8 90 -8q54 0 90.5 -37.5t36.5 -91.5zM567 719 q10 -11 51 -55.5t60 -64.5t52 -52t61 -56q77 34 113.5 51t91.5 53.5t85 75.5q24 32 26 68q-4 13 -51 29q-64 21 -166 24q-189 0 -323 -73z" />
<glyph unicode="&#x639;" horiz-adv-x="1144" arabic-form="initial" d="M215 228q-49 57 -71 120.5t-22 154.5q0 189 132 325q133 137 329 137q118 0 209 -41t184 -113q31 -24 62 -55l-162 -199q-69 80 -177 129q-50 23 -116 23q-93 0 -149 -56.5t-56 -149.5q0 -88 54 -145.5t136 -81.5q42 -13 90 -13q64 0 249 30l107 21l31 -249 q-349 -93 -827 -93l-218 -2q-56 0 -93 36.5t-37 91.5q0 54 38 89.5t92 38.5z" />
<glyph unicode="&#x639;" horiz-adv-x="1142" arabic-form="medial" d="M850 260q130 -34 296 -34q54 0 91.5 -38t37.5 -92t-37.5 -90.5t-91.5 -36.5q-378 0 -544 137q-203 -137 -601 -137q-55 0 -92 36t-37 91q0 56 37 93t92 37q199 0 359 45q-241 241 -302 298l14 208q222 193 530 193q154 0 272 -44t178 -130q38 -53 38 -126q0 -82 -66 -200 q-66 -115 -174 -210zM864 660q-105 59 -259 59q-155 0 -280 -59q58 -73 219 -234l54 -54q124 82 227 222q30 40 39 66z" />
<glyph unicode="&#x63a;" horiz-adv-x="1390" arabic-form="final" d="M1513 97q0 -55 -36 -91.5t-91 -36.5q-154 0 -322 67q-140 56 -307 171q-286 -111 -385 -274q-39 -65 -39 -147q0 -85 67 -166q87 -104 232 -158q79 -29 191 -29l29 1q214 8 391 124l135 -224q-125 -74 -242.5 -115.5t-262.5 -41.5q-251 0 -434 85.5t-277 248.5v-1 q-77 128 -77 272q0 211 148 386q114 135 303 222q-41 39 -121.5 107t-111.5 96l-19 214q256 229 599 229q120 0 212 -31l-1 1q103 -31 168 -97t65 -169q0 -196 -168 -330q-52 -41 -136 -84q122 -67 273 -92q50 -8 90 -8q54 0 90.5 -37.5t36.5 -91.5zM561 719 q10 -11 51 -55.5t60 -64.5t52 -52t61 -56q77 34 113.5 51t91.5 53.5t85 75.5q24 32 26 68q-4 13 -51 29q-64 21 -166 24q-189 0 -323 -73zM759 1178l-192 192l191 191l192 -192z" />
<glyph unicode="&#x63a;" horiz-adv-x="1138" arabic-form="initial" d="M215 228q-49 57 -71 120.5t-22 154.5q0 189 132 325q133 137 329 137q118 0 209 -41t184 -113q31 -24 62 -55l-162 -199q-69 80 -177 129q-50 23 -116 23q-93 0 -149 -56.5t-56 -149.5q0 -88 54 -145.5t136 -81.5q42 -13 90 -13q64 0 249 30l107 21l31 -249 q-349 -93 -827 -93l-218 -2q-56 0 -93 36.5t-37 91.5q0 54 38 89.5t92 38.5zM504 1140l-192 192l191 191l192 -192z" />
<glyph unicode="&#x63a;" horiz-adv-x="1144" arabic-form="medial" d="M843 260q130 -34 296 -34q54 0 91.5 -38t37.5 -92t-37.5 -90.5t-91.5 -36.5q-378 0 -544 137q-203 -137 -601 -137q-55 0 -92 36t-37 91q0 56 37 93t92 37q199 0 359 45q-241 241 -302 298l14 208q222 193 530 193q154 0 272 -44t178 -130q38 -53 38 -126q0 -82 -66 -200 q-66 -115 -174 -210zM857 660q-105 59 -259 59q-155 0 -280 -59q58 -73 219 -234l54 -54q124 82 227 222q30 40 39 66zM598 1127l-192 192l191 191l192 -192z" />
<glyph unicode="&#x641;" horiz-adv-x="2117" arabic-form="final" d="M2238 98q0 -56 -36.5 -92t-92.5 -36h-9q-202 0 -396 46q-57 14 -117 45q-39 -27 -152 -49q-210 -42 -469 -42q-306 3 -511.5 74.5t-307.5 234.5q-71 122 -71 268q0 77 20 155q31 130 79 203l193 -121q-35 -61 -55 -116.5t-20 -124.5q1 -56 21.5 -101t51 -74.5t77 -52 t90.5 -35t101 -22.5q116 -21 327 -32l361 7q-62 43 -100.5 117t-38.5 170q0 94 29 163.5t85 139.5q124 151 279 151q164 0 282 -141q109 -131 109 -297q0 -143 -102 -286q138 -24 244 -24q56 0 92.5 -36t36.5 -92zM1584 717q-114 -20 -172 -127q-21 -39 -21 -95 q0 -39 61 -103q63 -66 136 -87h1l2 -1q46 23 85 63t60 87q13 29 13 59q0 59 -32.5 105.5t-78.5 75.5q-30 19 -54 23zM1584 1144l-192 192l191 191l192 -192z" />
<glyph unicode="&#x641;" horiz-adv-x="952" arabic-form="initial" d="M-3 -30q-55 0 -91.5 36.5t-36.5 91.5t37 91.5t93 36.5q294 0 515 58q58 15 94 34h-102q-157 0 -264 59t-152 172q-22 55 -22 129q0 40 6 79q29 164 113 268v-1q100 131 241 131q135 0 262 -127q125 -143 167 -374q13 -71 13 -146q0 -97 -24 -175.5t-65 -133t-105 -95.5 t-133 -65.5t-161 -40t-176.5 -21t-191.5 -7.5h-17zM562 770q-22 48 -57 87.5t-77 39.5q-18 0 -40 -11q-37 -20 -66 -58.5t-44 -83.5q-9 -27 -9 -56q0 -65 43 -84q72 -31 216 -31q23 0 101 3q-26 106 -67 194zM398 1279l-192 192l191 191l192 -192z" />
<glyph unicode="&#x641;" horiz-adv-x="1052" arabic-form="medial" d="M530 711q-114 -20 -172 -127q-21 -39 -21 -95q0 -39 61 -103q63 -66 136 -87h1l2 -1q46 23 85 63t60 87q13 29 13 59q0 59 -32.5 105.5t-78.5 75.5q-30 19 -54 23zM-5 -30q-55 0 -91.5 36t-36.5 92t36 92t92 36h147q80 0 126 5q-63 44 -101 115.5t-38 167.5 q0 94 29 163.5t85 139.5q124 151 279 151q164 0 282 -141q109 -131 109 -297q0 -143 -102 -286q108 -18 244 -18q56 0 92.5 -36t36.5 -92t-36.5 -92t-92.5 -36h-9q-44 0 -69 1l-75 3q-232 10 -369 81q-56 -42 -223 -65q-140 -20 -307 -20h-8zM523 1164l-192 192l191 191 l192 -192z" />
<glyph unicode="&#x642;" horiz-adv-x="1609" arabic-form="final" d="M1595 226q56 0 93 -37t37 -92q0 -54 -38 -90.5t-92 -36.5h-65q-27 -139 -89 -259h1q-92 -175 -251 -277.5t-390 -102.5q-310 0 -513 178q-63 55 -107 135v-1q-95 152 -95 354q0 155 41 286t116 279l192 -113q-70 -133 -97 -243q-27 -111 -27 -208t40.5 -174t106.5 -128 q138 -107 338 -107h9q196 0 320 104.5t178 276.5h-6l-199 1q-243 23 -344 155v-1q-83 107 -83 226q0 196 139 383v-1q111 141 257 141q156 0 283 -139q83 -92 133 -222.5t60 -286.5h52zM1221 225q59 0 102 3q-12 169 -142 333q-15 21 -49 37.5t-65 16.5q-70 0 -121 -85 q-45 -75 -45 -152q0 -44 23.5 -75t63.5 -47t83.5 -23t92.5 -7q10 0 29 -0.5t28 -0.5zM821 992l-172 171l170 171l172 -172zM1199 990l-172 172l170 170l172 -171z" />
<glyph unicode="&#x642;" horiz-adv-x="947" arabic-form="initial" d="M-3 -30q-55 0 -91.5 36.5t-36.5 91.5t37 91.5t93 36.5q294 0 515 58q58 15 94 34h-102q-157 0 -264 59t-152 172q-22 55 -22 129q0 40 6 79q29 164 113 268v-1q100 131 241 131q135 0 262 -127q125 -143 167 -374q13 -71 13 -146q0 -97 -24 -175.5t-65 -133t-105 -95.5 t-133 -65.5t-161 -40t-176.5 -21t-191.5 -7.5h-17zM562 770q-22 48 -57 87.5t-77 39.5q-18 0 -40 -11q-37 -20 -66 -58.5t-44 -83.5q-9 -27 -9 -56q0 -65 43 -84q72 -31 216 -31q23 0 101 3q-26 106 -67 194zM221 1311l-172 171l170 171l172 -172zM599 1309l-172 172 l170 170l172 -171z" />
<glyph unicode="&#x642;" horiz-adv-x="1080" arabic-form="medial" d="M550 711q-114 -20 -172 -127q-21 -39 -21 -95q0 -39 61 -103q63 -66 136 -87h1l2 -1q46 23 85 63t60 87q13 29 13 59q0 59 -32.5 105.5t-78.5 75.5q-30 19 -54 23zM15 -30q-55 0 -91.5 36t-36.5 92t36 92t92 36h147q80 0 126 5q-63 44 -101 115.5t-38 167.5 q0 94 29 163.5t85 139.5q124 151 279 151q164 0 282 -141q109 -131 109 -297q0 -143 -102 -286q108 -18 244 -18q56 0 92.5 -36t36.5 -92t-36.5 -92t-92.5 -36h-9q-44 0 -69 1l-75 3q-232 10 -369 81q-56 -42 -223 -65q-140 -20 -307 -20h-8zM365 1164l-172 171l170 171 l172 -172zM743 1162l-172 172l170 170l172 -171z" />
<glyph unicode="&#x643;" horiz-adv-x="2321" arabic-form="final" d="M2320 -30q-338 0 -526 229q-55 -71 -143 -118.5t-205 -70.5t-229.5 -31.5t-258.5 -8.5h-1q-333 6 -558 85q-218 86 -296 244v-1q-45 87 -45 192q0 156 106 340q16 28 25 45l186 -156q-34 -47 -62.5 -110.5t-36.5 -124.5q-2 -18 -2 -26q0 -37 17 -61.5t49 -46.5 q85 -59 219 -84.5t317 -34.5q77 -4 175 -4q283 0 462 66q87 33 123 77q37 44 37 96q0 49 -29 105q-31 60 -84.5 123.5t-97 103.5t-112.5 98q-89 75 -206 164l26 240l941 405l99 -238l-770 -325q245 -184 376 -405q43 -73 67 -146q25 -68 47 -115t57.5 -97t77.5 -80 t105 -50.5t142 -22.5h8q56 0 92 -36t36 -92q0 -55 -36.5 -91.5t-91.5 -36.5z" />
<glyph unicode="&#x643;" horiz-adv-x="1045" arabic-form="initial" d="M0 -30q-60 0 -99 34.5t-39 92.5q0 59 38.5 94t99.5 35h115q63 0 98.5 1t91 6t89.5 14.5t68 29t52 47.5v-1q35 53 35 122q0 35 -13 91q-10 38 -50 101q-137 217 -389 423l27 239l815 362l101 -238l-678 -283q276 -230 382 -470q56 -128 56 -241q0 -121 -63 -240 q-98 -173 -322 -213v1q-39 -8 -92 -8z" />
<glyph unicode="&#x643;" horiz-adv-x="1188" arabic-form="medial" d="M-10 -30q-55 0 -92 36.5t-37 91.5q0 54 37.5 91t91.5 37h339q57 0 106.5 30t74.5 72q22 36 22 82q0 94 -61 210q-116 220 -354 411l24 282l875 370l93 -229l-755 -310q194 -172 321 -400q44 -79 72 -134h-1q71 -131 104 -188v1q54 -90 121.5 -142t174.5 -55h41 q81 0 118 -78q10 -21 10 -50q0 -56 -36.5 -92t-91.5 -36h-8q-233 0 -365 104q-55 43 -100 94q-126 -188 -398 -198h-326z" />
<glyph unicode="&#x644;" horiz-adv-x="1559" arabic-form="final" d="M421 316q-103 -148 -103 -399q0 -211 214 -307q90 -40 166 -40h14q160 0 288 98q150 114 150 322q0 143 -5.5 315t-10.5 281t-16.5 322t-15.5 286q-4 75 -17 304l261 49l16 -391l26 -766q11 -73 54 -118.5t117 -45.5q55 0 92 -37t37 -92t-36.5 -91t-92.5 -36 q-102 0 -164 27v-11q0 -231 -100 -381.5t-277 -228.5q-140 -62 -300 -62h-19q-133 0 -285 73q-149 71 -238 200.5t-89 320.5q0 282 87 456q15 31 31 52z" />
<glyph unicode="&#x644;" horiz-adv-x="574" arabic-form="initial" d="M496 431q0 -223 -112 -342t-328 -119h-56q-55 0 -91.5 36.5t-36.5 91.5t36.5 91.5t91.5 36.5h56q101 0 140 39h-1q43 43 43 171v14q0 475 -50 980q-4 43 -6 55l257 55q30 -322 41 -592l7 -200q9 -228 9 -317z" />
<glyph unicode="&#x644;" horiz-adv-x="653" arabic-form="medial" d="M653 226q55 0 92.5 -36.5t37.5 -91.5t-37 -91.5t-93 -36.5h-12q-183 0 -266 99q-77 -86 -193 -95q-25 -2 -73 -4h-118q-55 0 -91.5 36t-36.5 92q0 55 36.5 91.5t91.5 36.5h94q38 1 77 6q16 2 28 9t20 22t12.5 25.5t7.5 34.5t4 33.5t3 36.5q0 91 3 288.5t3 296.5 q0 349 -19 528l254 33q25 -206 25 -584q0 -97 -3.5 -282.5t-3.5 -283.5q0 -163 157 -163z" />
<glyph unicode="&#x645;" horiz-adv-x="1406" arabic-form="final" d="M313 455q36 0 56 -5q26 71 54.5 128.5t67.5 113.5t91 97.5t114 64.5q46 17 96 17q164 0 273 -124q89 -99 109 -267l-1 2q19 -107 73.5 -177t151.5 -79h9q56 0 92.5 -36t36.5 -92t-36.5 -92t-92.5 -36h-12q-189 9 -307 136q-69 -91 -154 -105q-17 -5 -34 -5q-48 0 -128 28 q-73 25 -216 82t-212 81l39 -908l-261 -41l-39 956q0 90 40.5 154.5t110.5 92.5q34 14 79 14zM932 253q34 56 34 155q0 65 -30.5 117t-77.5 75q-28 14 -57 14q-37 0 -82 -33q-67 -50 -111 -154q-10 -25 -21 -48q8 -3 76.5 -32t95 -39.5t79 -28t94.5 -26.5z" />
<glyph unicode="&#x645;" horiz-adv-x="1165" arabic-form="initial" d="M378 132q-80 -78 -168 -120t-210 -42q-80 0 -117 78q-10 21 -10 50q0 56 36 90.5t91 37.5q127 0 222 99q46 47 87 122.5t82 156t80 129.5q104 121 241 121q126 0 211.5 -69.5t130.5 -178.5q28 -66 35 -139q6 -39 6 -84q0 -206 -120 -320q-45 -42 -93 -62.5t-118 -20.5 q-65 0 -132.5 21t-104.5 41t-99 58q-38 23 -50 32zM528 343q91 -66 232 -103q34 -9 55 -9q40 0 60 33.5t20 83.5q0 33 -7 58q-16 60 -51.5 111t-82.5 74q-28 14 -57 14q-28 0 -55 -44q-33 -54 -72 -131z" />
<glyph unicode="&#x645;" horiz-adv-x="1311" arabic-form="medial" d="M-3 -30q-56 0 -92 35.5t-36 90.5q0 56 37 93t93 37q113 0 200 104q26 31 53.5 75t43 74t45 89t39.5 78q62 120 162 176q56 31 117 31q73 0 131 -22t94.5 -53.5t69.5 -84.5t51.5 -97t45.5 -109t46 -103q38 -75 96 -122q44 -36 119 -36q56 0 93 -37t37 -93q0 -55 -37 -90.5 t-93 -35.5q-104 0 -181.5 45.5t-144.5 119.5q-91 -159 -249 -159q-180 0 -405 155q-36 -34 -52 -49t-50.5 -41t-62 -37.5t-69 -22t-88.5 -11.5h-13zM757 217q46 0 76.5 41t30.5 93q0 45 -20 91t-46 78q-70 83 -148 83q-15 0 -31.5 -14.5t-23 -25l-19.5 -31.5 q-21 -37 -51 -104l-43 -87q120 -88 237 -119q18 -5 38 -5z" />
<glyph unicode="&#x646;" horiz-adv-x="1745" arabic-form="final" d="M1885 98q0 -55 -36.5 -91.5t-92.5 -36.5q-114 0 -208 42v-14q0 -280 -150 -472q-52 -67 -130 -114h1q-167 -110 -485 -129q-497 0 -652 383q-52 129 -52 278q0 179 45.5 314.5t134.5 298.5l210 -152q-118 -208 -146 -404q-6 -40 -6 -78q0 -143 102 -259 q109 -125 321 -125h17q72 0 196 21q273 48 348 254q21 58 21 123q0 93 -25.5 177.5t-71.5 187.5q-32 72 -88 185l222 141l86 -165q40 -79 78 -128t90 -79t142 -30q56 0 92.5 -36t36.5 -92zM770 384l-192 192l191 191l192 -192z" />
<glyph unicode="&#x646;" horiz-adv-x="726" arabic-form="initial" d="M-7 -30q-55 0 -91.5 36t-36.5 92t36.5 92t91.5 36h148q60 0 104.5 6t86.5 23t64 51.5t22 86.5q0 48 -40 177t-94 232l231 114q95 -213 126 -388q12 -68 12 -133q0 -160 -82.5 -260t-221.5 -142q-79 -23 -210 -23h-146zM331 1057l-192 192l191 191l192 -192z" />
<glyph unicode="&#x646;" horiz-adv-x="705" arabic-form="medial" d="M0 -30q-56 0 -92 36t-36 92q0 55 36.5 91.5t91.5 36.5h17q311 0 311 210q0 14 -1 26.5t-3 26t-3.5 22.5t-6 24t-6 20.5t-7.5 23.5t-7 22q-6 18 -22 77l246 69q49 -194 49 -311q0 -91 32 -150.5t105 -59.5q54 0 91.5 -37t37.5 -91q0 -55 -37 -91.5t-91 -36.5 q-177 0 -278 111q-135 -111 -410 -111h-17zM395 936l-192 192l191 191l192 -192z" />
<glyph unicode="&#x647;" horiz-adv-x="1090" arabic-form="final" d="M749 126q-124 -16 -205 -16q-265 0 -382 136q-60 81 -60 179q0 68 22 122q118 244 463 378q-3 26 -13 152l253 54q3 -18 6.5 -61t4.5 -51q49 -459 80 -625q6 -31 10.5 -50t13.5 -41.5t20 -35.5t30 -23t44 -14q30 -4 54 -4q55 0 92 -36.5t37 -91.5q0 -54 -37.5 -91 t-91.5 -37q-235 0 -341 156zM660 373q-10 60 -25 185.5t-17 143.5q-82 -34 -190 -112q-68 -50 -98 -101q-16 -27 -16 -50q0 -75 224 -75q70 0 122 9z" />
<glyph unicode="&#x647;" horiz-adv-x="1516" arabic-form="initial" d="M506 31q-188 -61 -507 -61h-9q-55 0 -91.5 36.5t-36.5 92.5q0 80 78 117q21 10 50 10h9q83 0 218 9q-96 121 -96 291q0 128 51.5 223t138.5 154q-10 2 -42 19l-26 14l148 224q4 0 27 -10q117 -52 339.5 -152t276.5 -124q105 -46 178.5 -95.5t129.5 -118.5 q91 -113 91 -276q0 -225 -212 -352q-113 -65 -326 -65q-239 0 -389 64zM737 579q0 61 -60 117q-78 73 -137 73q-67 0 -128 -83q-59 -81 -59 -165q0 -110 104 -185q26 -19 57 -28q41 21 61 32.5t50 32.5t50 45t35 54q27 56 27 107zM976 645q4 -42 4 -71q0 -200 -121 -350 l33 -3q11 -1 31 -1q91 0 162.5 28.5t108.5 80.5q22 31 22 68q0 60 -69 133q-60 63 -171 115z" />
<glyph unicode="&#x647;" horiz-adv-x="1005" arabic-form="medial" d="M-1 -30q-55 0 -91.5 36t-36.5 92t36.5 92t91.5 36h81q0 132 56 296q95 281 256 385q58 37 124 37q84 0 162 -74q58 -56 94.5 -140t36.5 -183q0 -105 -57 -228q-75 -159 -217 -257q-74 -51 -159 -73q40 -86 130 -212q25 -36 44 -56q-1 9 -1 26q0 100 62 215 q46 83 119.5 148.5t161.5 95.5q58 20 113 20t92 -36.5t37 -91.5q0 -56 -36.5 -92t-92.5 -36h-7q-80 -7 -141 -60t-92 -126q-21 -49 -21 -100q0 -52 15 -87t46 -68l-159 -193q-191 116 -318.5 267.5t-198.5 362.5v-2l-1 3q0 -2 -1 0q-1 1 -1 3h-127zM501 311q99 99 99 220 q0 67 -26 118.5t-70 76.5q-44 -14 -94 -109q-80 -155 -102 -305q-6 -42 -6 -76v-13h2q109 0 197 88z" />
<glyph unicode="&#x648;" horiz-adv-x="1043" arabic-form="final" d="M1043 226q56 0 93 -37t37 -92q0 -54 -38 -90.5t-92 -36.5h-67q-67 -285 -308 -474q-223 -175 -544 -226l-60 250q281 54 471 186q175 120 214 264h-106q-112 0 -202 21t-160.5 65.5t-109 121t-38.5 181.5q0 209 127 378q110 140 258 140q156 0 283 -138 q83 -93 134 -224.5t61 -288.5h47zM610 565q-52 55 -92 55q-52 0 -111 -78q-58 -79 -58 -159q0 -34 13 -60.5t37.5 -43t52.5 -27t66.5 -16t70.5 -7t73 -1.5h52q19 0 49 2q-15 179 -153 336v-1z" />
<glyph unicode="&#x649;" horiz-adv-x="1762" arabic-form="final" d="M1592 -30q64 -79 68 -180q-9 -164 -150 -280q-87 -71 -214 -117.5t-270 -64.5q-80 -10 -152 -10q-506 0 -660 255q-102 149 -102 378v25q0 140 44 318q41 166 122 361l206 -95q-68 -170 -103 -308.5t-35 -304.5q0 -113 43.5 -194t120.5 -119q121 -59 364 -59 q147 0 329 44q143 35 211 96q34 31 34 75q0 7 -18 22q-59 49 -207 107q-31 10 -69 19t-61.5 13.5t-74 13t-67.5 11.5l34 250h775q55 0 92 -36.5t37 -91.5t-37 -91.5t-92 -36.5h-168z" />
<glyph unicode="&#x64a;" horiz-adv-x="1756" arabic-form="final" d="M1592 -30q64 -79 68 -180q-9 -164 -150 -280q-87 -71 -214 -117.5t-270 -64.5q-80 -10 -152 -10q-506 0 -660 255q-102 149 -102 378v25q0 140 44 318q41 166 122 361l206 -95q-68 -170 -103 -308.5t-35 -304.5q0 -113 43.5 -194t120.5 -119q121 -59 364 -59 q147 0 329 44q143 35 211 96q34 31 34 75q0 7 -18 22q-59 49 -207 107q-31 10 -69 19t-61.5 13.5t-74 13t-67.5 11.5l34 250h775q55 0 92 -36.5t37 -91.5t-37 -91.5t-92 -36.5h-168zM623 -1098l-172 171l170 171l172 -172zM1001 -1100l-172 172l170 170l172 -171z" />
<glyph unicode="&#x64a;" horiz-adv-x="882" arabic-form="initial" d="M184 -515l-172 171l170 171l172 -172zM562 -517l-172 172l170 170l172 -171zM-134 98q0 55 36.5 91.5t91.5 36.5h159q197 0 301 46q77 34 77 108q0 21 -2 41t-8 42.5t-9.5 37.5t-13.5 40.5t-13.5 35t-15.5 37t-14 32.5q-16 39 -72 155l233 115q93 -166 132 -397 q13 -76 13 -124q0 -160 -82.5 -260t-221.5 -142q-88 -23 -247 -23h-216q-55 0 -91.5 36.5t-36.5 91.5z" />
<glyph unicode="&#x64a;" horiz-adv-x="854" arabic-form="medial" d="M472 449q0 33 -5.5 68.5t-11 55.5t-18.5 61.5t-17 55.5l245 69q34 -121 43 -238q1 -11 3 -38.5t3 -41t4 -39t6 -40t9 -36t12.5 -33.5t17 -26.5t23 -22t29.5 -13t37 -5.5q56 0 92.5 -36t36.5 -92q0 -55 -37 -91.5t-91 -36.5q-176 0 -279 115q-154 -115 -505 -115h-76 q-55 0 -91.5 36t-36.5 92t36.5 92t91.5 36h76q57 0 101.5 3t93.5 11t84 23.5t64.5 39.5t44.5 61t15 85zM159 -549l-172 171l170 171l172 -172zM537 -551l-172 172l170 170l172 -171z" />
<glyph unicode="&#xd;" horiz-adv-x="602" />
<glyph unicode=" "  horiz-adv-x="771" />
<glyph unicode="&#x09;" horiz-adv-x="771" />
<glyph unicode="&#xa0;" horiz-adv-x="771" />
<glyph unicode="!" horiz-adv-x="579" d="M143 1153v419h277v-419l-36 -755h-192zM299 -125l-192 192l191 191l192 -192z" />
<glyph unicode="&#x22;" horiz-adv-x="979" d="M112 1218v248h306v-248l-46 -273h-207zM563 1218v248h306v-248l-46 -273h-207z" />
<glyph unicode="#" horiz-adv-x="1139" d="M18 365v220h180l60 295h-240v221h285l79 390h224l-79 -390h221l77 390h232l-80 -390h138v-221h-183l-60 -295h243v-220h-288l-79 -390h-223l77 390h-222l-79 -390h-226l79 390h-136zM424 585h222l58 295h-221z" />
<glyph unicode="$" horiz-adv-x="1100" d="M1048 439q0 -189 -115 -309.5t-299 -147.5v-187h-145v182q-360 44 -419 434l261 28q15 -74 58 -134t100 -88v419q-195 55 -287 170t-92 275q0 169 106.5 278.5t272.5 125.5v99h145v-99q322 -39 373 -348l-253 -33q-22 118 -120 160v-391q237 -64 327 -169 q87 -104 87 -265zM489 1267q-58 -20 -93.5 -64t-35.5 -110q0 -117 129 -172v346zM634 203q72 13 120.5 68t48.5 132q0 142 -169 190v-390z" />
<glyph unicode="%" horiz-adv-x="1771" d="M415 717q-164 0 -245 101.5t-81 285.5q0 181 78.5 284t242.5 103q165 0 245.5 -101t80.5 -286q0 -182 -78 -284.5t-243 -102.5zM308 1106q0 -142 33 -192q25 -36 69 -36q45 0 70 36q32 50 32 192q0 141 -32 191q-25 37 -70 37q-44 0 -69 -36q-33 -50 -33 -192zM416 -56 l781 1547h202l-775 -1547h-208zM1404 -59q-165 0 -245.5 101t-80.5 287q0 182 79 284.5t244 102.5t244.5 -103t79.5 -284q0 -182 -78.5 -285t-242.5 -103zM1297 330q0 -143 33 -191q25 -37 69 -37q45 0 69 36q33 50 33 192t-32 192q-25 36 -70 36t-69 -36q-33 -50 -33 -192z " />
<glyph unicode="&#x26;" horiz-adv-x="1395" d="M1160 345q39 -37 115 -92.5t116 -73.5l-170 -217q-125 62 -240 168q-88 -79 -187 -117.5t-240 -38.5q-274 0 -412 154q-107 119 -107 274q0 282 335 449q-151 178 -151 322q0 150 116.5 234t293.5 84q191 0 297 -97q107 -98 107 -237q0 -89 -53 -169t-214 -181l204 -269 q36 63 62 167l254 -58q-38 -135 -66 -198q-27 -62 -60 -104zM786 1163q0 61 -42 95.5t-108 34.5q-95 0 -133 -69q-10 -19 -10 -42q0 -53 64 -126l69 -80l76 58q84 64 84 129zM323 412q0 -93 61 -149.5t158 -56.5q79 0 136 27.5t124 84.5l-286 353q-97 -49 -145 -118 t-48 -141z" />
<glyph unicode="'" horiz-adv-x="397" d="M55 1218v248h306v-248l-46 -273h-207z" />
<glyph unicode="(" horiz-adv-x="864" d="M722 1351q-152 -152 -250.5 -300t-145.5 -341q-20 -81 -24 -164q0 -210 111 -426q112 -219 333 -423l-173 -193q-530 494 -530 1020v30q12 375 255 707v-1q113 158 263 292z" />
<glyph unicode=")" horiz-adv-x="821" d="M505 1261q243 -332 255 -707v-30q0 -526 -530 -1020l-173 193q221 204 333 423q111 216 111 426q-6 114 -35 218t-77.5 192.5t-99 157t-117.5 142.5q-40 44 -54 58l-37 37l161 201q149 -134 263 -292v1z" />
<glyph unicode="*" horiz-adv-x="1136" d="M778 494q84 -102 210 -251l-187 -131l-184 265l-185 -265l-182 131l203 251l-311 88l72 217l302 -108q-1 51 -5.5 160t-5.5 160h224l-17 -319q49 16 155.5 54t155.5 54q5 -15 72 -220z" />
<glyph unicode="+" horiz-adv-x="1219" d="M469 592h-384v263h384v381h256v-381h385v-263h-385v-381h-256v381z" />
<glyph unicode="," horiz-adv-x="588" d="M421 281v-201q0 -125 -20.5 -194t-80.5 -125q-60 -57 -148 -88l-55 116q78 25 117 73t42 138h-136v281h281z" />
<glyph unicode="-" horiz-adv-x="848" d="M115 672h651v-281h-651v281z" />
<glyph unicode="." horiz-adv-x="567" d="M110 123q0 60 31 102.5t79 64.5q31 14 70 14q60 0 102 -31t64 -80q15 -33 15 -70q0 -78 -51.5 -129t-129.5 -51t-129 51t-51 129z" />
<glyph unicode="/" horiz-adv-x="590" d="M360 1491h211l-367 -1516h-207z" />
<glyph unicode="0" horiz-adv-x="980" d="M328 486q0 -54 28 -92t72 -58q29 -13 63 -13q53 0 92.5 28t58.5 71q13 29 13 64q0 54 -28.5 92.5t-72.5 58.5q-29 13 -63 13q-54 0 -92 -28t-58 -72q-13 -29 -13 -64zM130 486q0 146 106 256q102 106 255 106q119 0 205 -62.5t128 -159.5q29 -67 29 -140q0 -120 -62 -205 t-160 -127q-67 -29 -140 -29q-119 0 -205.5 62t-127.5 158q-28 65 -28 141z" />
<glyph unicode="1" horiz-adv-x="762" d="M283 -56q0 273 -5 449.5t-30.5 397.5t-73.5 382q-28 93 -75 181l211 130q44 -66 76.5 -148t54.5 -185.5t35 -182t29 -205.5q31 -231 31 -714v-105h-253z" />
<glyph unicode="2" horiz-adv-x="1138" d="M766 1318q0 61 -12 139l247 44q19 -146 19 -211q0 -210 -118 -359q-109 -132 -297 -132q-71 0 -132 15q37 -292 37 -664q0 -37 0.5 -103.5t0.5 -96.5h-253q0 615 -57 950q-24 144 -64 255q-2 6 -7.5 17.5t-7.5 17.5l-12 33q-27 73 -62 130l212 136q46 -70 80 -159l14 -34 q5 -11 20.5 -46t21.5 -48.5t21.5 -40.5t28 -41t32.5 -30t42 -26q33 -14 77 -14q161 0 167 176q2 62 2 92z" />
<glyph unicode="3" horiz-adv-x="1461" d="M1111 1178q0 103 -47 265l249 46l10 -55q1 -7 7.5 -41.5t8 -47t5.5 -39t5 -49t1 -46.5q0 -274 -184 -371q-53 -28 -120 -28q-152 0 -236 103q-34 -34 -48.5 -47t-46 -35t-66 -30.5t-78.5 -8.5q-55 0 -92 10v-6q39 -305 39 -847h-254q4 60 4 99v100q0 252 -15 447.5 t-62.5 394t-128.5 336.5l228 133q57 -92 110 -230q2 -4 13 -29t14.5 -31.5t13.5 -26.5t17 -28.5t17.5 -22t22 -22t24.5 -15.5q20 -10 49 -10q26 0 45 13t29 34.5t15.5 49.5t7 56.5t2.5 57.5v11v28q0 66 -7 107l240 31q4 -117 50 -286h-1q28 -83 94 -83q65 0 65 113z" />
<glyph unicode="4" horiz-adv-x="1313" d="M822 924q151 0 302 90l111 -207q-179 -132 -409 -132q-179 0 -305 80q41 -337 41 -800h-253q0 231 -8 404t-31 363.5t-72.5 346.5t-124.5 275l213 134q80 -135 113 -216q56 106 156 171t239 65q122 0 216.5 -41.5t149.5 -115.5l-143 -178l-20 13q-40 28 -97 48t-114 22 q-64 -7 -120.5 -41.5t-87.5 -80.5q-18 -26 -18 -55q0 -2 0.5 -5.5t0.5 -5.5q14 -68 88.5 -101t172.5 -33z" />
<glyph unicode="5" horiz-adv-x="1368" d="M681 59q-106 -119 -249 -119q-139 0 -236 110q-115 131 -115 335q0 150 37.5 273.5t107.5 261.5q31 62 74 135.5t66.5 110.5t86.5 135l-39 41l176 173q29 -28 85 -79.5t87.5 -81.5t76 -74t81.5 -84q138 -150 238 -328q70 -124 113 -258q30 -102 30 -202 q0 -148 -54.5 -257t-152.5 -167q-72 -42 -171 -45h-2q-148 0 -240 120zM793 512q0 -198 61 -289q24 -36 66 -38q53 9 91.5 49.5t59.5 95.5q13 35 13 73q0 69 -19 134q-29 86 -75 166.5t-109 155.5t-113.5 127.5t-127.5 127.5l-8 8t-7.5 7t-8.5 8q-165 -203 -264 -445 q-65 -156 -65 -323q0 -57 24.5 -100t64.5 -67q24 -14 56 -14q58 0 109 78q43 66 64 248z" />
<glyph unicode="6" horiz-adv-x="1105" d="M839 1169q-35 20 -55.5 30t-55 19.5t-71.5 9.5q-116 0 -201 -55q-75 -61 -75 -140q0 -36 21.5 -59.5t47 -32t66.5 -15.5q33 -6 68 -6h15q34 0 70.5 3.5t63 7.5t67 14t58.5 14.5t62.5 17.5t56.5 16l92 -219l-75 -35q-241 -94 -427 -328q-163 -202 -254 -435 q-10 -26 -10 -28l-238 76q8 24 63 134q125 249 258 422q50 64 108 108q-110 2 -188.5 61t-117.5 151q-26 61 -26 135q0 141 101 267q59 73 153 122t204 55q24 3 26 3h25q80 0 148.5 -25t147.5 -69z" />
<glyph unicode="7" horiz-adv-x="1291" d="M513 -50q0 180 -27 350.5t-66.5 303.5t-106 278t-123.5 246t-141 236l211 135q278 -463 392 -954q114 441 267 791q43 98 88 170l210 -135q-96 -155 -213 -457q-143 -371 -195 -612q-43 -196 -44 -352h-252z" />
<glyph unicode="8" horiz-adv-x="1319" d="M57 56q83 132 141.5 237t123.5 249.5t105 279.5t66.5 306.5t26.5 351.5l272 -5q5 -187 48 -364.5t116 -394.5q141 -415 295 -655l-210 -134q-145 230 -281 611q-45 126 -82 265q-63 -233 -163.5 -440t-246.5 -441z" />
<glyph unicode="9" horiz-adv-x="1198" d="M640 671q-66 -15 -152 -15h-22q-66 0 -172 28q-221 60 -221 347q0 165 103 304q110 147 262 147q81 0 141 -36.5t113 -99.5q139 -164 165 -563q35 -277 143 -496q39 -79 91 -137l-131 -212q-204 152 -276 494q-23 107 -38 203v1zM456 915q31 0 151 12q-12 161 -95 259 q-32 38 -76 54q-46 -7 -82 -51.5t-56 -98.5q-13 -35 -13 -69q0 -106 171 -106z" />
<glyph unicode=":" horiz-adv-x="564" d="M456 147q0 -74 -47.5 -121.5t-121.5 -47.5q-110 0 -156 102q-13 29 -13 67q0 56 28.5 96t73.5 60q29 13 67 13q73 0 121 -48t48 -121zM456 804q0 -73 -47.5 -120.5t-121.5 -47.5t-121.5 47t-47.5 121q0 57 28.5 97t73.5 60q29 13 67 13q74 0 121.5 -48t47.5 -122z" />
<glyph unicode=";" horiz-adv-x="586" d="M193 1062h281v-281h-281v281zM474 281v-201q0 -125 -20.5 -194t-80.5 -125q-60 -57 -148 -88l-55 116q78 25 117 73t42 138h-136v281h281z" />
<glyph unicode="&#x3c;" horiz-adv-x="1296" d="M95 604v242l1005 435v-285l-701 -268l701 -278v-283z" />
<glyph unicode="=" horiz-adv-x="1282" d="M85 1074h1025v-258h-1025v258zM85 631h1025v-259h-1025v259z" />
<glyph unicode="&#x3e;" horiz-adv-x="1244" d="M95 449l702 276l-702 273v281l1006 -435v-240l-1006 -438v283z" />
<glyph unicode="?" horiz-adv-x="1144" d="M588 1267q-227 0 -278 -247l-258 32q11 179 152 304q143 125 372 125q243 0 385 -127q143 -126 143 -294q0 -82 -35.5 -146.5t-98.5 -127.5t-143 -128q-88 -73 -111 -119q-19 -39 -19 -145v-16h-255q-1 19 -1 44v23q0 124 41 204q40 80 164 180q55 45 99 83 q42 36 63.5 71t21.5 85q0 89 -70.5 144t-171.5 55zM442 281h281v-281h-281v281z" />
<glyph unicode="@" horiz-adv-x="2090" d="M1366 254q0 -22 10 -36t29 -14q48 0 124 58q97 72 162.5 198.5t65.5 270.5q0 246 -178 411q-178 166 -497 166q-400 0 -624 -244q-72 -79 -120 -178q-95 -204 -95 -417q0 -226 112.5 -393.5t292.5 -242.5q198 -80 441 -80q478 0 688 266h213q-108 -216 -337 -333 t-548 -117q-333 0 -572 112.5t-355 327.5q-117 217 -117 474q0 282 133 523q126 229 351.5 357.5t540.5 128.5q257 0 452.5 -101t294.5 -276q104 -182 104 -394q0 -256 -157 -461q-197 -260 -505 -260q-79 0 -123 27.5t-58 86.5q-118 -114 -272 -114q-166 0 -276 114 q-109 115 -109 305q0 235 132 429q161 236 410 236q178 0 263 -136l25 111h264l-151 -717q-14 -64 -14 -88zM1187 670q0 102 -48.5 168t-136.5 66q-86 0 -159 -67q-72 -63 -110 -189q-37 -118 -37 -218q0 -112 45 -179.5t134 -67.5q57 0 103.5 23t78.5 65t53 84.5t38 96.5 q39 117 39 218z" />
<glyph unicode="A" horiz-adv-x="1494" d="M1149 0l-128 333h-586l-121 -333h-314l571 1466h313l587 -1466h-322zM724 1124l-198 -544h400z" />
<glyph unicode="B" horiz-adv-x="1450" d="M1100 779q126 -37 202 -127t76 -227q0 -106 -50 -199.5t-124 -146.5q-27 -19 -57.5 -32.5t-70.5 -22t-70 -13.5t-84 -7.5t-83 -3t-95.5 -0.5h-94.5h-499v1466h586q174 0 259 -15q112 -18 191 -88.5t108 -174.5q12 -44 12 -91q0 -109 -58.5 -193t-147.5 -125zM742 882 q62 0 107 6.5t86 24.5t62 53.5t21 88.5q0 144 -149 162q-74 5 -253 5h-170v-339h194q18 0 52 -0.5t50 -0.5zM446 247h274q160 0 203 9q68 12 108.5 59.5t40.5 123.5q0 136 -125 179q-60 21 -262 21h-239v-392z" />
<glyph unicode="C" horiz-adv-x="1499" d="M762 228q253 0 325 311l287 -91q-63 -229 -209.5 -351t-399.5 -122q-293 0 -480 199q-188 200 -188 546q0 366 189 568q189 203 497 203q269 0 437 -159q100 -94 150 -270l-293 -70q-25 109 -106.5 177.5t-202.5 68.5q-163 0 -265 -117q-101 -119 -101 -379 q0 -278 100 -396t260 -118z" />
<glyph unicode="D" horiz-adv-x="1466" d="M689 1466q188 0 279 -28q132 -38 222.5 -135t138.5 -238q48 -139 48 -346q0 -374 -202 -571q-76 -75 -208 -117q-93 -31 -262 -31h-557v1466h541zM444 247h221q172 0 254.5 45t121.5 171q30 99 30 269q0 152 -25 247.5t-89 155.5q-54 51 -137 69q-70 14 -243 14h-133 v-971z" />
<glyph unicode="E" horiz-adv-x="1330" d="M149 1466h1087v-248h-791v-325h736v-247h-736v-399h819v-247h-1115v1466z" />
<glyph unicode="F" horiz-adv-x="1226" d="M151 1466h1005v-248h-709v-347h612v-248h-612v-623h-296v1466z" />
<glyph unicode="G" horiz-adv-x="1581" d="M823 228q94 0 187 36.5t160 88.5v186h-339v247h638v-584q-93 -90 -270 -159q-180 -68 -357 -68q-236 0 -405.5 99t-252.5 273q-86 184 -86 391q0 240 101 415t276 265q139 73 351 73q262 0 420.5 -110t203.5 -321l-294 -55q-31 108 -115.5 170.5t-214.5 62.5 q-207 0 -315 -130t-108 -358q0 -240 106.5 -381t313.5 -141z" />
<glyph unicode="H" horiz-adv-x="1444" d="M150 1466h296v-577h580v577h296v-1466h-296v641h-580v-641h-296v1466z" />
<glyph unicode="I" horiz-adv-x="514" d="M140 1466h296v-1466h-296v1466z" />
<glyph unicode="J" horiz-adv-x="1029" d="M314 485q5 -126 45.5 -191.5t137.5 -65.5q99 0 140 56q41 59 41 235v947h295v-928q0 -195 -40.5 -303.5t-147.5 -182.5q-113 -77 -298 -77q-223 0 -336.5 123.5t-115.5 354.5z" />
<glyph unicode="K" horiz-adv-x="1499" d="M153 1466h296v-651l598 651h398l-552 -571l582 -895h-383l-403 688l-240 -245v-443h-296v1466z" />
<glyph unicode="L" horiz-adv-x="1237" d="M157 1454h296v-1207h736v-247h-1032v1454z" />
<glyph unicode="M" horiz-adv-x="1647" d="M145 1466h443l266 -1000l263 1000h444v-1466h-275v1154l-291 -1154h-285l-290 1154v-1154h-275v1466z" />
<glyph unicode="N" horiz-adv-x="1450" d="M152 1466h288l600 -979v979h275v-1466h-297l-591 956v-956h-275v1466z" />
<glyph unicode="O" horiz-adv-x="1609" d="M89 724q0 197 50 334t153 243q94 95 215.5 142.5t290.5 47.5q324 0 518 -201q195 -201 195 -559q0 -357 -193 -556q-194 -200 -516 -200q-327 0 -520 199t-193 550zM1205 738q0 231 -101.5 365.5t-302.5 134.5q-183 0 -295 -126q-112 -124 -112 -378q0 -251 115 -378 q116 -128 292 -128q178 0 290 127q114 128 114 383z" />
<glyph unicode="P" horiz-adv-x="1362" d="M149 1466h475q274 0 352 -22q125 -33 211 -144q85 -109 85 -285v-10q0 -137 -57 -234t-154 -151q-57 -32 -116 -46q-107 -21 -307 -21h-193v-553h-296v1466zM445 802h162q171 0 234 23q56 21 91 70t35 116q0 82 -45.5 133.5t-120.5 63.5q-44 10 -213 10h-143v-416z" />
<glyph unicode="Q" horiz-adv-x="1603" d="M802 1491q333 0 520.5 -205t187.5 -553q0 -270 -104 -442q-30 -51 -77 -105q116 -82 237 -124l-109 -209q-57 18 -93.5 36t-93.5 55q-72 47 -141 94q-144 -63 -319 -63q-343 0 -532 202.5t-189 555.5q0 359 192 558q192 200 521 200zM1091 353q114 133 114 380 q0 255 -112 379q-113 126 -293 126q-182 0 -294 -126q-112 -124 -112 -379q0 -258 112 -385t285 -127q64 0 121 21q-90 59 -183 92l83 169q146 -49 279 -150z" />
<glyph unicode="R" horiz-adv-x="1499" d="M1349 1055q0 -181 -104.5 -282t-282.5 -126q55 -32 99.5 -69t86.5 -89.5t68 -90.5t73 -112l179 -286h-354l-214 319q-118 176 -156 215q-44 48 -92 63t-146 15h-60v-612h-296v1466h623q239 0 341 -40q104 -38 169.5 -138t65.5 -233zM665 846q213 0 266 18t83 62t30 110 q0 76 -40 120.5t-111 56.5q-62 5 -216 5h-231v-372h219z" />
<glyph unicode="S" horiz-adv-x="1330" d="M659 1246q-46 0 -88 -7.5t-79.5 -23.5t-59.5 -45t-22 -68q0 -51 44 -89q56 -47 272 -98q221 -52 319 -106q221 -116 221 -382q0 -139 -76 -245t-192 -155q-132 -53 -319 -53q-547 0 -605 503l288 28q24 -138 101 -209.5t219 -71.5q143 0 215 60q73 61 73 142 q0 62 -34.5 95t-102.5 57q-46 16 -237 64q-236 58 -334 145q-135 121 -135 295q0 125 69.5 218.5t176.5 139.5q120 51 289 51q256 0 405 -112t157 -332l-296 -13q-18 111 -80.5 161.5t-188.5 50.5z" />
<glyph unicode="T" horiz-adv-x="1275" d="M479 1218h-435v248h1165v-248h-434v-1218h-296v1218z" />
<glyph unicode="U" horiz-adv-x="1412" d="M443 1466v-794q0 -177 11 -245q21 -96 94.5 -147.5t191.5 -51.5q112 0 181.5 46t85.5 132q13 71 13 249v811h296v-770q0 -264 -24 -373q-47 -211 -261 -304q-112 -44 -282 -44q-209 0 -319 48q-97 45 -164.5 118.5t-89.5 170.5q-29 133 -29 372v782h296z" />
<glyph unicode="V" horiz-adv-x="1361" d="M-1 1466h321l371 -1085l359 1085h314l-525 -1466h-316z" />
<glyph unicode="W" horiz-adv-x="1948" d="M7 1466h303l221 -1007l268 1007h352l257 -1024l225 1024h298l-356 -1466h-314l-292 1096l-291 -1096h-321z" />
<glyph unicode="X" horiz-adv-x="1368" d="M501 765l-454 701h346l294 -471l288 471h343l-456 -712l501 -754h-357l-325 507l-326 -507h-355z" />
<glyph unicode="Y" horiz-adv-x="1394" d="M534 617l-537 849h347l345 -580l338 580h341l-539 -851v-615h-295v617z" />
<glyph unicode="Z" horiz-adv-x="1247" d="M22 267l770 951h-683v248h1073v-230l-803 -989h834v-247h-1191v267z" />
<glyph unicode="[" horiz-adv-x="702" d="M146 1466h498v-221h-231v-1437h231v-221h-498v1879z" />
<glyph unicode="\" horiz-adv-x="572" d="M204 1491l367 -1516h-211l-363 1516h207z" />
<glyph unicode="]" horiz-adv-x="569" d="M536 -413h-498v221h231v1439h-231v219h498v-1879z" />
<glyph unicode="^" horiz-adv-x="1089" d="M491 1491h223l366 -799h-284l-198 489l-197 -489h-286z" />
<glyph unicode="_" horiz-adv-x="1133" d="M-19 -223h1168v-182h-1168v182z" />
<glyph unicode="`" horiz-adv-x="584" d="M318 1192l-276 299h315l138 -299h-177z" />
<glyph unicode="a" horiz-adv-x="1116" d="M542 871q-79 0 -120 -32.5t-65 -100.5l-255 46q45 159 152 230.5t308 71.5q188 0 280 -45q91 -43 129 -113q38 -68 38 -251l-3 -328q0 -143 10.5 -202.5t53.5 -146.5h-278q-1 2 -11.5 33.5t-15.5 49.5l-10 33q-146 -140 -329 -140q-155 0 -254 85t-99 229 q0 95 44.5 163.5t118.5 104.5q78 37 224 66q196 38 273 69v28q0 87 -44 118.5t-147 31.5zM354 319q0 -61 45.5 -103t110.5 -42q74 0 145 50q51 37 64.5 81.5t13.5 148.5v56q-11 -4 -148.5 -36t-175.5 -56q-55 -39 -55 -99z" />
<glyph unicode="b" horiz-adv-x="1204" d="M728 -24q-106 0 -190.5 50t-141.5 130v-156h-261v1466h281v-528q130 148 308 148q194 0 321 -141q127 -139 127 -403q0 -274 -130 -419q-129 -147 -314 -147zM414 554q0 -165 52 -244q73 -112 194 -112q94 0 158 79q66 79 66 251q0 182 -66 262q-66 81 -169 81 q-101 0 -168 -79q-67 -76 -67 -238z" />
<glyph unicode="c" horiz-adv-x="1149" d="M85 530q0 255 136.5 405.5t378.5 150.5q197 0 310.5 -85.5t162.5 -252.5l-277 -50q-26 167 -192 167q-230 0 -230 -315q0 -189 63 -267q65 -78 171 -78q92 0 138 51t65 151l276 -47q-87 -384 -492 -384q-239 0 -374.5 151t-135.5 403z" />
<glyph unicode="d" horiz-adv-x="1171" d="M860 156q-129 -180 -332 -180q-184 0 -314 147q-130 148 -130 412q0 271 127 410q127 141 321 141q178 0 308 -148v528h281v-1466h-261v156zM606 871q-114 0 -174.5 -88.5t-60.5 -228.5q0 -169 47 -246q68 -110 190 -110q98 0 165 82q68 83 68 247q0 183 -66 263 q-66 81 -169 81z" />
<glyph unicode="e" horiz-adv-x="1133" d="M583 186q137 0 179 152l280 -47q-109 -315 -462 -315q-277 0 -410 181q-105 145 -105 366q0 264 138 413q138 150 349 150q169 0 283.5 -76.5t168 -211.5t53.5 -322v-26h-704q3 -116 64 -190t166 -74zM569 871q-96 0 -153.5 -69.5t-57.5 -174.5v-5h420 q-2 110 -57.5 179.5t-151.5 69.5z" />
<glyph unicode="f" horiz-adv-x="733" d="M575 1275q-65 0 -89.5 -33t-24.5 -105v-75h210v-221h-210v-841h-281v841h-156v221h156v80q0 135 26.5 200t106.5 107q77 42 194 42q119 0 235 -36l-38 -196q-61 16 -129 16z" />
<glyph unicode="g" horiz-adv-x="1204" d="M521 0q-132 0 -233 73t-152.5 194t-51.5 270q0 265 128 408q129 141 320 141q197 0 325 -173v149h263v-953q0 -192 -31 -281q-47 -139 -161 -199t-312 -60q-270 0 -383 93q-113 92 -113 234v16q0 11 1 18l321 -39q8 -61 46.5 -84t116.5 -23q95 0 146.5 22.5t74.5 81.5 q13 30 13 129v155q-126 -172 -318 -172zM604 871q-115 0 -173.5 -88t-58.5 -230q0 -168 65 -248q66 -78 162 -78q118 0 181.5 89.5t63.5 229.5q0 165 -68 245t-172 80z" />
<glyph unicode="h" horiz-adv-x="1220" d="M427 927q137 159 325 159q139 0 231 -67.5t115 -184.5q15 -68 15 -211v-623h-281v561q0 171 -16 212q-17 45 -58 71.5t-100 26.5q-77 0 -130 -37t-76 -100q-25 -63 -25 -202v-532h-281v1466h281v-539z" />
<glyph unicode="i" horiz-adv-x="531" d="M147 1466h281v-260h-281v260zM147 1062h281v-1062h-281v1062z" />
<glyph unicode="j" horiz-adv-x="498" d="M141 1466h281v-260h-281v260zM-45 -161q40 -9 70 -9q40 0 68 17t39 46q9 25 9 156v1013h281v-1029q0 -203 -27 -286q-26 -85 -103.5 -131.5t-190.5 -46.5q-83 0 -195 30z" />
<glyph unicode="k" horiz-adv-x="1111" d="M137 1466h281v-778l329 374h346l-363 -388l389 -674h-303l-267 477l-131 -137v-340h-281v1466z" />
<glyph unicode="l" horiz-adv-x="503" d="M147 1466h281v-1466h-281v1466z" />
<glyph unicode="m" horiz-adv-x="1751" d="M385 1062v-145q139 169 331 169q204 0 300 -169q139 169 324 169q240 0 319 -187q29 -72 29 -220v-679h-281v607q0 157 -29 204q-39 60 -120 60q-68 0 -116 -40t-70 -102q-23 -74 -23 -219v-510h-281v582q0 155 -15 200q-31 89 -132 89q-71 0 -121 -37.5t-71 -98.5 q-22 -62 -22 -219v-516h-281v1062h259z" />
<glyph unicode="n" horiz-adv-x="1187" d="M832 0v542q0 172 -18 222q-17 49 -57 78t-99 29q-79 0 -135 -40.5t-76 -105.5q-21 -66 -21 -244v-481h-281v1062h261v-156q140 180 350 180q137 0 226 -62.5t115 -174.5q16 -61 16 -189v-660h-281z" />
<glyph unicode="o" horiz-adv-x="1242" d="M82 546q0 154 75 281t189 190q128 69 283 69q241 0 395 -157q154 -154 154 -395t-156 -400q-155 -158 -391 -158q-145 0 -279 66q-270 134 -270 504zM630 857q-123 0 -191.5 -91.5t-68.5 -234.5t68.5 -234.5t191.5 -91.5t191 92t68 236q0 141 -68.5 232.5t-190.5 91.5z " />
<glyph unicode="p" horiz-adv-x="1242" d="M730 -24q-102 0 -169 37.5t-141 117.5v-535h-281v1466h262v-156q52 79 138 129.5t193 50.5q185 0 314 -145t129 -404q0 -266 -130 -414q-131 -147 -315 -147zM656 864q-116 0 -177.5 -88t-61.5 -227q0 -179 71 -265q70 -85 173 -85q99 0 163 78q65 80 65 258 q0 169 -67 248q-67 81 -166 81z" />
<glyph unicode="q" horiz-adv-x="1187" d="M542 1086q114 0 188.5 -46.5t132.5 -134.5v157h259v-1466h-281v534q-118 -154 -314 -154q-105 0 -189.5 46.5t-137.5 125.5t-81 180t-28 215q0 257 129 399q130 144 322 144zM850 544q0 163 -67 242q-66 80 -166 80q-102 0 -171 -81q-68 -83 -68 -257q0 -175 66 -253 q66 -77 163 -77t170 87q73 85 73 259z" />
<glyph unicode="r" horiz-adv-x="804" d="M135 0v1062h261v-151q68 107 120 141t122 34q96 0 185 -53l-87 -245q-70 46 -132 46q-71 0 -107.5 -39t-57.5 -111q-23 -90 -23 -356v-328h-281z" />
<glyph unicode="s" horiz-adv-x="1083" d="M739 756q-34 128 -200 128q-113 0 -159 -31q-32 -23 -32 -57q0 -30 28 -51q36 -27 262 -79q225 -51 314 -125q88 -75 88 -209q0 -146 -122 -251t-361 -105q-207 0 -337 83t-172 244l282 43q36 -167 227 -167q201 0 201 115q0 42 -26 59t-88 31q-338 74 -431 137 q-126 85 -126 239q0 138 109 232t338 94q205 0 316 -65.5t154 -215.5z" />
<glyph unicode="t" horiz-adv-x="646" d="M442 410q0 -14 -0.5 -41t-0.5 -39q0 -60 15.5 -90.5t63.5 -30.5q40 0 113 27l24 -218q-97 -42 -222 -42q-75 0 -134.5 24t-92.5 67q-28 40 -39 110q-9 49 -9 198v463h-129v224h129v211l282 164v-375h192v-224h-192v-428z" />
<glyph unicode="u" horiz-adv-x="1149" d="M846 159q-55 -80 -147.5 -131.5t-204.5 -51.5q-110 0 -194.5 49t-120.5 130q-38 90 -38 235v672h281v-488q0 -224 15 -275q37 -109 161 -109q72 0 129.5 39.5t77.5 97.5q21 58 21 287v448h281v-1062h-261v159z" />
<glyph unicode="v" horiz-adv-x="1122" d="M11 1062h295l200 -542l58 -181q43 137 59 181l202 542h289l-422 -1062h-253z" />
<glyph unicode="w" horiz-adv-x="1598" d="M9 1062h273l199 -696l183 696h271l177 -696l203 696h277l-341 -1062h-270l-183 683l-180 -683h-273z" />
<glyph unicode="x" horiz-adv-x="1105" d="M395 547l-367 515h343l188 -292l198 292h330l-360 -503l393 -559h-345l-216 329l-218 -329h-329z" />
<glyph unicode="y" horiz-adv-x="1116" d="M313 1062l254 -754l248 754h291q-35 -97 -196 -534t-246 -673q-24 -59 -43.5 -96.5t-48.5 -74.5t-68.5 -60.5t-93.5 -37.5q-65 -17 -144 -17q-74 0 -159 17l-25 220q59 -13 119 -13q99 0 145 58q46 57 72 146l-404 1065h299z" />
<glyph unicode="z" horiz-adv-x="1034" d="M402 240q101 7 145 7h435v-247h-948v219l398 457q91 105 145 159q-51 -3 -57 -3q-45 0 -72 -1l-375 -2v233h878v-199q-60 -68 -171 -197.5t-202 -232.5t-176 -193z" />
<glyph unicode="{" horiz-adv-x="810" d="M539 -46q0 -41 8 -67.5t21 -42.5t41.5 -23.5t56 -9.5t78.5 -2v-240h-53q-131 0 -202 18.5t-127 74.5q-49 49 -66 124q-17 82 -17 231q0 188 -16 239q-23 80 -67 115t-136 39v240q72 5 109 21.5t65 60.5q28 46 36.5 109.5t8.5 164.5q0 194 18 270q28 120 123 167.5 t271 47.5h53v-239q-116 0 -143 -13q-35 -15 -48 -42t-13 -83q0 -64 -9 -239q-6 -134 -48 -210.5t-131 -134.5q92 -53 132 -136t48 -228q7 -147 7 -212z" />
<glyph unicode="|" horiz-adv-x="471" d="M176 1491h223v-1922h-223v1922z" />
<glyph unicode="}" horiz-adv-x="739" d="M45 -191q49 0 77 2t56 9t41 22.5t21.5 41t8.5 64.5q6 285 26 365q19 77 57.5 125.5t104.5 91.5q-79 51 -117.5 108t-54.5 154q-14 106 -16 308q-2 71 -11 97t-48 41q-36 14 -145 14v239h53q131 0 202.5 -18.5t125.5 -74.5q49 -49 66 -124q18 -74 18 -231q0 -183 15 -239 q23 -81 67 -115.5t137 -38.5v-240q-73 -5 -109.5 -21.5t-64.5 -61.5t-36.5 -109t-8.5 -163q0 -195 -18 -271q-26 -120 -122 -167.5t-272 -47.5h-53v240z" />
<glyph unicode="~" horiz-adv-x="1182" d="M1129 654q-49 -51 -133 -91.5t-166 -40.5q-50 0 -98 12q-46 12 -150 57q-150 67 -242 67q-140 0 -273 -139v259q127 138 296 138q59 0 93.5 -7.5t95.5 -28.5q48 -16 117 -45q134 -55 187 -55q58 0 130 34q71 33 143 110v-270z" />
<glyph unicode="&#xa1;" horiz-adv-x="660" d="M447 857h-207v205h207v-205zM455 -79v-325h-223v325l52 776h116z" />
<glyph unicode="&#xa2;" horiz-adv-x="1119" d="M84 535q0 252 136.5 401.5t377.5 149.5q44 0 94 -6l113 376l123 -35l-112 -371q188 -72 256 -302l-277 -50q-12 73 -51 113l-182 -602q15 -4 45 -4q92 0 138 51t65 151l276 -47q-43 -188 -161.5 -286t-329.5 -98q-64 0 -101 7l-117 -386l-122 34l116 385 q-135 59 -211 194.5t-76 324.5zM603 865q-231 0 -231 -316q0 -195 76 -280l179 595q-5 1 -13 1h-11z" />
<glyph unicode="&#xa3;" horiz-adv-x="1241" d="M485 283q50 0 166.5 -27t143.5 -27q74 0 204 56l108 -238q-136 -70 -276 -70q-90 0 -240 42q-145 43 -222 43q-121 0 -249 -87l-107 242q161 115 200 261q12 45 12 86q0 19 -4 57h-208v221h157q-41 123 -41 239q0 121 65 216.5t163 141.5q105 52 238 52q201 0 316.5 -100 t140.5 -285l-271 -40q-18 96 -63 148.5t-131 52.5q-79 0 -132.5 -54t-53.5 -134q0 -104 50 -237h312v-221h-266q3 -23 3 -44q0 -79 -30 -146q-29 -67 -123 -176q55 28 138 28z" />
<glyph unicode="&#xa4;" horiz-adv-x="1209" d="M180 510q-57 105 -57 218q0 116 54 213l-132 131l166 178l136 -136q109 57 218 57q112 0 219 -57l134 134l167 -169l-132 -133q56 -104 56 -218t-56 -218l134 -133l-167 -171l-136 136q-102 -57 -218 -57q-112 0 -216 56l-130 -131l-170 168zM566 930q-83 0 -142.5 -59.5 t-59.5 -142.5t60 -142.5t142 -59.5q83 0 142.5 59.5t59.5 142.5t-59.5 142.5t-142.5 59.5z" />
<glyph unicode="&#xa5;" horiz-adv-x="1160" d="M51 273v221h371v120h-371v221h261l-311 631h308l200 -426q37 -80 54 -141q19 66 54 141l204 426h308l-315 -631h265v-221h-376v-120h376v-221h-376v-273h-281v273h-371z" />
<glyph unicode="&#xa6;" horiz-adv-x="562" d="M176 1491h223v-790h-223v790zM176 360h223v-791h-223v791z" />
<glyph unicode="&#xa7;" horiz-adv-x="1205" d="M59 625q0 214 185 320q-101 110 -101 224q0 135 105 228q106 94 297 94q185 0 303 -90t138 -247l-275 -29q-10 152 -153 152q-56 0 -94.5 -24.5t-38.5 -68.5q0 -10 2 -20t4 -17.5t8 -17t9 -14.5t12.5 -14t12.5 -12.5t15.5 -13t15 -11.5t17.5 -12t17 -12q38 -27 143 -94 t178.5 -121.5t120.5 -108.5q88 -100 88 -231q0 -186 -182 -314q121 -112 121 -254q0 -147 -111 -248q-109 -100 -319 -100q-194 0 -316.5 97t-145.5 266l274 33q36 -181 196 -181q61 0 102.5 31.5t41.5 86.5q0 47 -37 84q-17 17 -86 64q-62 42 -181 118q-227 145 -297 242 q-69 96 -69 215zM400 816q-34 -19 -60 -56.5t-26 -79.5q0 -100 135 -192l286 -195q87 78 87 147q0 33 -23 68t-126 110z" />
<glyph unicode="&#xa8;" horiz-adv-x="750" d="M5 1491h241v-241h-241v241zM435 1491h242v-241h-242v241z" />
<glyph unicode="&#xa9;" horiz-adv-x="1536" d="M757 1496q197 0 378 -99q181 -98 284 -283q104 -185 104 -384q0 -218 -108.5 -394t-276.5 -271q-182 -101 -381 -101q-218 0 -395 109t-270 275q-101 182 -101 382q0 219 110.5 397.5t277.5 269.5q181 99 378 99zM757 1345q-175 0 -316.5 -86t-215.5 -220 q-83 -149 -83 -309q0 -175 87.5 -316.5t221.5 -217.5q145 -81 306 -81q175 0 317 87.5t216 221.5q82 145 82 306q0 122 -52 243.5t-130 196.5t-195 125t-238 50zM751 445q79 0 123.5 44.5t68.5 126.5l161 -54q-36 -120 -120 -190t-216 -70q-178 0 -282.5 116.5t-104.5 304.5 q0 197 101.5 314t287.5 117q134 0 212.5 -62t121.5 -181l-162 -38q-26 67 -67 103t-111 36q-73 0 -120.5 -39t-67 -100t-19.5 -144q0 -146 57 -215t137 -69z" />
<glyph unicode="&#xaa;" horiz-adv-x="756" d="M379 1491q153 0 226 -55t73 -187v-240l-1 -61q0 -134 41 -184h-148q-19 37 -22 89q-122 -107 -256 -107q-109 0 -177 59t-68 160q0 54 18 93t53.5 62.5t75 36t97.5 22.5l147 22q14 3 47 9.5t49 10.5q-2 68 -12.5 92.5t-50.5 42.5q-35 18 -94 18q-147 0 -166 -125l-137 34 q13 100 95.5 154t209.5 54zM196 965q0 -48 36.5 -73.5t93.5 -25.5q81 0 140.5 48t63.5 122q1 25 3 68q-53 -14 -192 -36q-90 -14 -117 -39q-28 -25 -28 -64z" />
<glyph unicode="&#xab;" horiz-adv-x="1184" d="M323 536l310 -466h-221l-316 462l316 451h221zM722 531l303 -461h-221l-316 462l316 451h221z" />
<glyph unicode="&#xac;" horiz-adv-x="1323" d="M853 817h-768v257h1025v-698h-257v441z" />
<glyph unicode="&#xad;" horiz-adv-x="724" d="M115 672h596v-281h-596v281z" />
<glyph unicode="&#xae;" horiz-adv-x="1593" d="M757 1496q197 0 378 -99q180 -97 284 -282t104 -385q0 -218 -108.5 -394t-276.5 -271q-182 -101 -381 -101q-218 0 -395 109t-270 275q-101 182 -101 382q0 201 103 385q104 185 285 282q181 99 378 99zM758 1346q-175 0 -316 -86.5t-216 -219.5q-83 -149 -83 -310 q0 -176 87.5 -317.5t221.5 -217.5q145 -82 306 -82q175 0 316.5 88t217.5 222q82 145 82 307q0 122 -52.5 243.5t-130.5 197.5q-78 75 -195 125t-238 50zM1070 904q0 -98 -61 -156t-158 -72q38 -15 61.5 -35.5t50.5 -57.5q9 -12 60 -99l96 -164h-204l-68 132 q-67 132 -114 167t-114 35h-43v-334h-165v813h165q44 0 104.5 -0.5t77.5 -0.5q121 0 182.5 -22t98.5 -90q31 -52 31 -116zM643 782q138 0 177 11q33 10 54 37t21 64t-21 63t-54 35q-36 12 -177 12h-67v-222h67z" />
<glyph unicode="&#xaf;" horiz-adv-x="1129" d="M-19 1735h1168v-183h-1168v183z" />
<glyph unicode="&#xb0;" horiz-adv-x="830" d="M405 853q-131 0 -225 94t-94 225q0 132 94 225.5t225 93.5t225 -94.5t94 -224.5q0 -131 -94 -225t-225 -94zM405 1325q-62 0 -107.5 -45.5t-45.5 -107.5t45.5 -107.5t107.5 -45.5t107.5 45.5t45.5 107.5t-45.5 107.5t-107.5 45.5z" />
<glyph unicode="&#xb1;" horiz-adv-x="1144" d="M434 737h-384v263h384v381h256v-381h385v-263h-385v-381h-256v381zM50 263h1025v-263h-1025v263z" />
<glyph unicode="&#xb2;" horiz-adv-x="700" d="M45 1242q16 125 89.5 183.5t211.5 58.5q139 0 212 -64q74 -65 74 -151q0 -43 -10.5 -78t-34.5 -66t-43 -50.5t-54 -49.5q-20 -17 -84 -68t-88 -72h314v-158h-607q10 84 54 152q43 67 195 186q32 25 91 74q25 20 39 34.5t26 38t12 48.5q0 41 -27 61t-74 20 q-56 0 -78.5 -27t-28.5 -88z" />
<glyph unicode="&#xb3;" horiz-adv-x="679" d="M505 1136q136 -48 136 -179q0 -95 -84 -169q-82 -73 -221 -73q-126 0 -203 60.5t-93 170.5l184 20q16 -108 113 -108q49 0 79 30t30 78q0 44 -29 71.5t-74 27.5q-29 0 -91 -15l23 146h13q123 0 123 79q0 32 -23 49t-60 17q-46 0 -69 -24.5t-30 -73.5l-178 26 q26 105 74 147q77 68 208 68q109 0 189 -56.5t80 -147.5q0 -86 -97 -144z" />
<glyph unicode="&#xb4;" horiz-adv-x="839" d="M325 1491h315l-275 -299h-178z" />
<glyph unicode="&#xb5;" horiz-adv-x="1242" d="M390 1062v-481q0 -208 42 -283q52 -97 157 -97q66 0 111.5 39t68.5 97q24 65 24 241v484h284v-1062h-262v128q-31 -57 -56 -84t-74 -49q-45 -21 -83 -21q-70 0 -126 39q-38 27 -86 115v-535h-279v1469h279z" />
<glyph unicode="&#xb6;" horiz-adv-x="1125" d="M392 644q-183 13 -288.5 119t-105.5 289q0 166 84.5 269t230.5 133q55 12 219 12h597v-261h-113v-1608h-237v1608h-144v-1608h-243v1047z" />
<glyph unicode="&#xb7;" horiz-adv-x="604" d="M200 854h281v-281h-281v281z" />
<glyph unicode="&#xb8;" horiz-adv-x="670" d="M328 -12q111 0 183 -49t72 -140q0 -87 -72 -143q-97 -75 -278 -75q-134 0 -195 16v118q141 -11 189 -11q71 0 118 22t47 72q0 43 -35 63.5t-92 20.5q-59 0 -131 -20l26 99q78 27 168 27z" />
<glyph unicode="&#xb9;" horiz-adv-x="607" d="M91 1297q84 24 153.5 72t96.5 115h154v-757h-190v513q-94 -65 -214 -98v155z" />
<glyph unicode="&#xba;" horiz-adv-x="729" d="M45 1111q0 170 87 275t241 105q152 0 240 -105t88 -271q0 -165 -88 -270t-239 -105q-153 0 -241 102.5t-88 268.5zM373 872q180 0 180 248q0 108 -43.5 173t-136.5 65q-180 0 -180 -243q0 -110 43 -176.5t137 -66.5z" />
<glyph unicode="&#xbb;" horiz-adv-x="1154" d="M1025 532l-316 -462h-221l310 466l-310 447h221zM633 532l-316 -462h-221l303 461l-303 452h221z" />
<glyph unicode="&#xbc;" horiz-adv-x="1905" d="M92 1297q84 24 153.5 72t96.5 115h154v-757h-190v513q-94 -65 -214 -98v155zM340 -54l869 1538h159l-869 -1538h-159zM1403 104h-360v141l382 470h156v-466h107v-145h-107v-146h-178v146zM1403 474l-183 -225h183v225z" />
<glyph unicode="&#xbd;" horiz-adv-x="1916" d="M92 1297q84 24 153.5 72t96.5 115h154v-757h-190v513q-94 -65 -214 -98v155zM340 -54l869 1538h159l-869 -1538h-159zM1069 473q16 124 90.5 183t210.5 59q139 0 212 -64q74 -65 74 -151q0 -43 -10.5 -78t-34.5 -66t-43 -50.5t-54 -49.5q-10 -8 -81 -65t-90 -76h313v-157 h-607q8 75 37.5 125.5t87.5 106.5q25 24 215 180q25 20 39 34.5t26 38t12 48.5q0 41 -27 61t-74 20q-55 0 -78.5 -27t-27.5 -88z" />
<glyph unicode="&#xbe;" horiz-adv-x="1769" d="M505 1136q136 -48 136 -179q0 -95 -84 -169q-82 -73 -221 -73q-126 0 -203 60.5t-93 170.5l184 20q16 -108 113 -108q49 0 79 30t30 78q0 44 -29 71.5t-74 27.5q-29 0 -91 -15l23 146h13q123 0 123 79q0 32 -23 49t-60 17q-46 0 -69 -24.5t-30 -73.5l-178 26 q26 105 74 147q77 68 208 68q109 0 189 -56.5t80 -147.5q0 -86 -97 -144zM364 -54l869 1538h158l-868 -1538h-159zM1402 104h-360v141l382 470h156v-466h108v-145h-108v-146h-178v146zM1402 474l-182 -225h182v225z" />
<glyph unicode="&#xbf;" horiz-adv-x="1275" d="M763 781h-281v281h281v-281zM618 -205q119 0 185.5 64t92.5 183l258 -33q-36 -269 -264 -375q-117 -54 -261 -54q-243 0 -385 127q-143 126 -143 292q0 76 27 132t78 114q56 61 174 159q89 71 108 116q21 44 21 150v14h254q1 -22 1 -52v-16l1 -8q0 -114 -44 -197 q-43 -82 -170 -185q-4 -3 -29 -24t-30.5 -25.5t-24.5 -21t-27 -25t-19.5 -22t-20.5 -26.5q-25 -40 -25 -93q0 -86 72.5 -140t170.5 -54z" />
<glyph unicode="&#xc0;" horiz-adv-x="1373" d="M1149 0l-128 333h-586l-121 -333h-314l571 1466h313l587 -1466h-322zM724 1124l-198 -544h400zM598 1599l-276 299h315l138 -299h-177z" />
<glyph unicode="&#xc1;" horiz-adv-x="1373" d="M1149 0l-128 333h-586l-121 -333h-314l571 1466h313l587 -1466h-322zM724 1124l-198 -544h400zM681 1813h315l-275 -299h-178z" />
<glyph unicode="&#xc2;" horiz-adv-x="1373" d="M1149 0l-128 333h-586l-121 -333h-314l571 1466h313l587 -1466h-322zM724 1124l-198 -544h400zM532 1817h260l207 -295h-226l-116 149l-108 -149h-227z" />
<glyph unicode="&#xc3;" horiz-adv-x="1373" d="M1149 0l-128 333h-586l-121 -333h-314l571 1466h313l587 -1466h-322zM724 1124l-198 -544h400zM526 1678q-36 0 -56 -24.5t-20 -64.5v-6h-133v5q0 97 56 160t147 63q62 0 169 -54q59 -30 94 -30q38 0 52 20t21 67h130q-3 -104 -53.5 -166t-142.5 -62q-62 0 -166 56 q-68 36 -98 36z" />
<glyph unicode="&#xc4;" horiz-adv-x="1373" d="M1149 0l-128 333h-586l-121 -333h-314l571 1466h313l587 -1466h-322zM724 1124l-198 -544h400zM323 1727h241v-241h-241v241zM753 1727h242v-241h-242v241z" />
<glyph unicode="&#xc5;" horiz-adv-x="1373" d="M651 1537q-76 0 -128.5 55t-52.5 132q0 72 54 125.5t126 53.5q74 0 127 -54t53 -129t-52.5 -129t-126.5 -54zM652 1830q-43 0 -74.5 -32t-31.5 -75q0 -46 30.5 -78.5t75.5 -32.5q43 0 74.5 32.5t31.5 76.5q0 45 -31 77t-75 32zM1149 0l-128 333h-586l-121 -333h-314 l571 1466h313l587 -1466h-322zM724 1124l-198 -544h400z" />
<glyph unicode="&#xc6;" horiz-adv-x="2036" d="M598 1466h1324v-248h-726v-326h669v-248h-669v-397h753v-247h-1049v345h-508l-150 -345h-328zM903 601v643h-115l-287 -643h402z" />
<glyph unicode="&#xc7;" horiz-adv-x="1557" d="M762 228q253 0 325 311l287 -91q-56 -206 -179.5 -325.5t-330.5 -142.5q79 -16 126.5 -62t47.5 -119q0 -87 -72 -143q-98 -75 -278 -75q-134 0 -195 16v118q141 -11 189 -11q71 0 118 22t47 72q0 43 -35 63.5t-92 20.5q-59 0 -131 -20l26 99q33 12 68 18 q-238 24 -398 195q-188 200 -188 546q0 366 189 568q189 203 497 203q269 0 437 -159q100 -94 150 -270l-293 -70q-25 109 -106.5 177.5t-202.5 68.5q-163 0 -265 -117q-101 -119 -101 -379q0 -278 100 -396t260 -118z" />
<glyph unicode="&#xc8;" horiz-adv-x="1380" d="M149 1466h1087v-248h-791v-325h736v-247h-736v-399h819v-247h-1115v1466zM639 1547l-276 299h315l138 -299h-177z" />
<glyph unicode="&#xc9;" horiz-adv-x="1380" d="M149 1466h1087v-248h-791v-325h736v-247h-736v-399h819v-247h-1115v1466zM618 1942h315l-275 -299h-178z" />
<glyph unicode="&#xca;" horiz-adv-x="1380" d="M149 1466h1087v-248h-791v-325h736v-247h-736v-399h819v-247h-1115v1466zM572 1946h260l207 -295h-226l-116 149l-108 -149h-227z" />
<glyph unicode="&#xcb;" horiz-adv-x="1335" d="M149 1466h1087v-248h-791v-325h736v-247h-736v-399h819v-247h-1115v1466zM330 1864h241v-241h-241v241zM760 1864h242v-241h-242v241z" />
<glyph unicode="&#xcc;" horiz-adv-x="562" d="M140 1466h296v-1466h-296v1466zM227 1650l-276 299h315l138 -299h-177z" />
<glyph unicode="&#xcd;" horiz-adv-x="562" d="M140 1466h296v-1466h-296v1466zM278 1832h315l-275 -299h-178z" />
<glyph unicode="&#xce;" horiz-adv-x="562" d="M140 1466h296v-1466h-296v1466zM164 1833h260l207 -295h-226l-116 149l-108 -149h-227z" />
<glyph unicode="&#xcf;" horiz-adv-x="562" d="M140 1466h296v-1466h-296v1466zM-53 1873h241v-241h-241v241zM377 1873h242v-241h-242v241z" />
<glyph unicode="&#xd0;" horiz-adv-x="1508" d="M689 1466q195 0 305.5 -35.5t199.5 -130.5q184 -197 184 -585q0 -372 -203 -569q-76 -73 -207 -115q-93 -31 -263 -31h-556v640h-152v186h152v640h540zM444 826h314v-186h-314v-393h222q148 0 212 24q86 30 131 110q63 113 63 345q0 151 -22.5 243t-82.5 156 q-50 54 -134 77q-60 16 -255 16h-134v-392z" />
<glyph unicode="&#xd1;" horiz-adv-x="1541" d="M152 1466h288l600 -979v979h275v-1466h-297l-591 956v-956h-275v1466zM635 1757q-36 0 -56 -24.5t-20 -64.5v-6h-133v5q0 97 56 160t147 63q63 0 169 -54q58 -30 94 -30q38 0 52 20t21 67h130q-3 -104 -53.5 -166t-142.5 -62q-62 0 -166 56q-67 36 -98 36z" />
<glyph unicode="&#xd2;" horiz-adv-x="1707" d="M89 724q0 197 50 334t153 243q94 95 215.5 142.5t290.5 47.5q324 0 518 -201q195 -201 195 -559q0 -357 -193 -556q-194 -200 -516 -200q-327 0 -520 199t-193 550zM1205 738q0 231 -101.5 365.5t-302.5 134.5q-183 0 -295 -126q-112 -124 -112 -378q0 -251 115 -378 q116 -128 292 -128q178 0 290 127q114 128 114 383zM728 1617l-276 299h315l138 -299h-177z" />
<glyph unicode="&#xd3;" horiz-adv-x="1707" d="M89 724q0 197 50 334t153 243q94 95 215.5 142.5t290.5 47.5q324 0 518 -201q195 -201 195 -559q0 -357 -193 -556q-194 -200 -516 -200q-327 0 -520 199t-193 550zM1205 738q0 231 -101.5 365.5t-302.5 134.5q-183 0 -295 -126q-112 -124 -112 -378q0 -251 115 -378 q116 -128 292 -128q178 0 290 127q114 128 114 383zM778 1828h315l-275 -299h-178z" />
<glyph unicode="&#xd4;" horiz-adv-x="1707" d="M89 724q0 197 50 334t153 243q94 95 215.5 142.5t290.5 47.5q324 0 518 -201q195 -201 195 -559q0 -357 -193 -556q-194 -200 -516 -200q-327 0 -520 199t-193 550zM1205 738q0 231 -101.5 365.5t-302.5 134.5q-183 0 -295 -126q-112 -124 -112 -378q0 -251 115 -378 q116 -128 292 -128q178 0 290 127q114 128 114 383zM645 1838h260l207 -295h-226l-116 149l-108 -149h-227z" />
<glyph unicode="&#xd5;" horiz-adv-x="1707" d="M89 724q0 197 50 334t153 243q94 95 215.5 142.5t290.5 47.5q324 0 518 -201q195 -201 195 -559q0 -357 -193 -556q-194 -200 -516 -200q-327 0 -520 199t-193 550zM1205 738q0 231 -101.5 365.5t-302.5 134.5q-183 0 -295 -126q-112 -124 -112 -378q0 -251 115 -378 q116 -128 292 -128q178 0 290 127q114 128 114 383zM686 1742q-36 0 -56 -24.5t-20 -64.5v-6h-133v5q0 97 56 160t147 63q62 0 169 -54q58 -30 94 -30q38 0 52 20t21 67h130q-3 -104 -53.5 -166t-142.5 -62q-62 0 -166 56q-68 36 -98 36z" />
<glyph unicode="&#xd6;" horiz-adv-x="1614" d="M89 724q0 197 50 334t153 243q94 95 215.5 142.5t290.5 47.5q324 0 518 -201q195 -201 195 -559q0 -357 -193 -556q-194 -200 -516 -200q-327 0 -520 199t-193 550zM1205 738q0 231 -101.5 365.5t-302.5 134.5q-183 0 -295 -126q-112 -124 -112 -378q0 -251 115 -378 q116 -128 292 -128q178 0 290 127q114 128 114 383zM411 1795h241v-241h-241v241zM841 1795h242v-241h-242v241z" />
<glyph unicode="&#xd7;" horiz-adv-x="1215" d="M413 722l-304 303l186 186l304 -303l302 302l181 -182l-302 -302l305 -305l-186 -186l-305 305l-302 -302l-181 182z" />
<glyph unicode="&#xd8;" horiz-adv-x="1669" d="M1369 1226q66 -90 103.5 -220.5t37.5 -280.5q0 -351 -193 -550q-194 -200 -510 -200q-273 0 -440 125l-162 -182l-142 124l171 192q-146 197 -146 508q0 349 193 548q193 201 515 201q268 0 443 -132l158 177l139 -122zM1055 1153q-101 86 -256 86q-181 0 -294 -126 q-112 -124 -112 -378q0 -164 46 -272zM549 305q103 -90 248 -90q178 0 292 129q115 127 115 385q0 166 -40 267z" />
<glyph unicode="&#xd9;" horiz-adv-x="1522" d="M443 1466v-794q0 -177 11 -245q21 -96 94.5 -147.5t191.5 -51.5q112 0 181.5 46t85.5 132q13 71 13 249v811h296v-770q0 -264 -24 -373q-47 -211 -261 -304q-112 -44 -282 -44q-209 0 -319 48q-97 45 -164.5 118.5t-89.5 170.5q-29 133 -29 372v782h296zM704 1642 l-276 299h315l138 -299h-177z" />
<glyph unicode="&#xda;" horiz-adv-x="1522" d="M443 1466v-794q0 -177 11 -245q21 -96 94.5 -147.5t191.5 -51.5q112 0 181.5 46t85.5 132q13 71 13 249v811h296v-770q0 -264 -24 -373q-47 -211 -261 -304q-112 -44 -282 -44q-209 0 -319 48q-97 45 -164.5 118.5t-89.5 170.5q-29 133 -29 372v782h296zM710 1837h315 l-275 -299h-178z" />
<glyph unicode="&#xdb;" horiz-adv-x="1522" d="M443 1466v-794q0 -177 11 -245q21 -96 94.5 -147.5t191.5 -51.5q112 0 181.5 46t85.5 132q13 71 13 249v811h296v-770q0 -264 -24 -373q-47 -211 -261 -304q-112 -44 -282 -44q-209 0 -319 48q-97 45 -164.5 118.5t-89.5 170.5q-29 133 -29 372v782h296zM632 1942h260 l207 -295h-226l-116 149l-108 -149h-227z" />
<glyph unicode="&#xdc;" horiz-adv-x="1522" d="M443 1466v-794q0 -177 11 -245q21 -96 94.5 -147.5t191.5 -51.5q112 0 181.5 46t85.5 132q13 71 13 249v811h296v-770q0 -264 -24 -373q-47 -211 -261 -304q-112 -44 -282 -44q-209 0 -319 48q-97 45 -164.5 118.5t-89.5 170.5q-29 133 -29 372v782h296zM394 1746h241 v-241h-241v241zM824 1746h242v-241h-242v241z" />
<glyph unicode="&#xdd;" horiz-adv-x="1394" d="M534 617l-537 849h347l345 -580l338 580h341l-539 -851v-615h-295v617zM626 1833h315l-275 -299h-178z" />
<glyph unicode="&#xde;" horiz-adv-x="1390" d="M149 1466h296v-276h179q275 0 353 -22q125 -35 210 -145q85 -109 85 -285v-10q0 -135 -57.5 -233.5t-153.5 -152.5q-74 -42 -170.5 -54t-252.5 -12h-193v-276h-296v1466zM445 525h162q159 0 211 11q69 16 109 68t40 133q0 67 -33.5 117.5t-85.5 69.5q-49 18 -260 18h-143 v-417z" />
<glyph unicode="&#xdf;" horiz-adv-x="1316" d="M695 1165q0 47 -35 76.5t-86 29.5q-52 0 -87.5 -25.5t-48.5 -67.5q-18 -56 -18 -226v-952h-281v952q0 200 34 303.5t139 169.5q102 66 265 66q205 0 305 -87q101 -87 101 -216q0 -87 -55 -187q-50 -92 -62 -121q-8 -27 -8 -38q0 -35 25 -69q21 -28 120 -128 q105 -107 140 -178q36 -73 36 -151q0 -147 -102 -243.5t-253 -96.5q-106 0 -193 55t-131 134l196 115q43 -79 104 -79q42 0 70 29.5t28 73.5q0 41 -30 83q-19 26 -138 139q-169 162 -169 255q0 55 65 194q51 103 60 132t9 58z" />
<glyph unicode="&#xe0;" horiz-adv-x="1205" d="M542 871q-79 0 -120 -32.5t-65 -100.5l-255 46q45 159 152 230.5t308 71.5q188 0 280 -45q91 -43 129 -113q38 -68 38 -251l-3 -328q0 -143 10.5 -202.5t53.5 -146.5h-278q-1 2 -11.5 33.5t-15.5 49.5l-10 33q-146 -140 -329 -140q-155 0 -254 85t-99 229 q0 95 44.5 163.5t118.5 104.5q78 37 224 66q196 38 273 69v28q0 87 -44 118.5t-147 31.5zM354 319q0 -61 45.5 -103t110.5 -42q74 0 145 50q51 37 64.5 81.5t13.5 148.5v56q-11 -4 -148.5 -36t-175.5 -56q-55 -39 -55 -99zM529 1198l-276 299h315l138 -299h-177z" />
<glyph unicode="&#xe1;" horiz-adv-x="1205" d="M542 871q-79 0 -120 -32.5t-65 -100.5l-255 46q45 159 152 230.5t308 71.5q188 0 280 -45q91 -43 129 -113q38 -68 38 -251l-3 -328q0 -143 10.5 -202.5t53.5 -146.5h-278q-1 2 -11.5 33.5t-15.5 49.5l-10 33q-146 -140 -329 -140q-155 0 -254 85t-99 229 q0 95 44.5 163.5t118.5 104.5q78 37 224 66q196 38 273 69v28q0 87 -44 118.5t-147 31.5zM354 319q0 -61 45.5 -103t110.5 -42q74 0 145 50q51 37 64.5 81.5t13.5 148.5v56q-11 -4 -148.5 -36t-175.5 -56q-55 -39 -55 -99zM521 1491h315l-275 -299h-178z" />
<glyph unicode="&#xe2;" horiz-adv-x="1205" d="M542 871q-79 0 -120 -32.5t-65 -100.5l-255 46q45 159 152 230.5t308 71.5q188 0 280 -45q91 -43 129 -113q38 -68 38 -251l-3 -328q0 -143 10.5 -202.5t53.5 -146.5h-278q-1 2 -11.5 33.5t-15.5 49.5l-10 33q-146 -140 -329 -140q-155 0 -254 85t-99 229 q0 95 44.5 163.5t118.5 104.5q78 37 224 66q196 38 273 69v28q0 87 -44 118.5t-147 31.5zM354 319q0 -61 45.5 -103t110.5 -42q74 0 145 50q51 37 64.5 81.5t13.5 148.5v56q-11 -4 -148.5 -36t-175.5 -56q-55 -39 -55 -99zM474 1491h260l207 -295h-226l-116 149l-108 -149 h-227z" />
<glyph unicode="&#xe3;" horiz-adv-x="1205" d="M542 871q-79 0 -120 -32.5t-65 -100.5l-255 46q45 159 152 230.5t308 71.5q188 0 280 -45q91 -43 129 -113q38 -68 38 -251l-3 -328q0 -143 10.5 -202.5t53.5 -146.5h-278q-1 2 -11.5 33.5t-15.5 49.5l-10 33q-146 -140 -329 -140q-155 0 -254 85t-99 229 q0 95 44.5 163.5t118.5 104.5q78 37 224 66q196 38 273 69v28q0 87 -44 118.5t-147 31.5zM354 319q0 -61 45.5 -103t110.5 -42q74 0 145 50q51 37 64.5 81.5t13.5 148.5v56q-11 -4 -148.5 -36t-175.5 -56q-55 -39 -55 -99zM477 1314q-36 0 -56 -24.5t-20 -64.5v-6h-133v5 q0 97 56 160t147 63q63 0 169 -54q58 -30 94 -30q38 0 52 20t21 67h130q-3 -104 -53.5 -166t-142.5 -62q-62 0 -166 56q-67 36 -98 36z" />
<glyph unicode="&#xe4;" horiz-adv-x="1205" d="M542 871q-79 0 -120 -32.5t-65 -100.5l-255 46q45 159 152 230.5t308 71.5q188 0 280 -45q91 -43 129 -113q38 -68 38 -251l-3 -328q0 -143 10.5 -202.5t53.5 -146.5h-278q-1 2 -11.5 33.5t-15.5 49.5l-10 33q-146 -140 -329 -140q-155 0 -254 85t-99 229 q0 95 44.5 163.5t118.5 104.5q78 37 224 66q196 38 273 69v28q0 87 -44 118.5t-147 31.5zM354 319q0 -61 45.5 -103t110.5 -42q74 0 145 50q51 37 64.5 81.5t13.5 148.5v56q-11 -4 -148.5 -36t-175.5 -56q-55 -39 -55 -99zM266 1491h241v-241h-241v241zM696 1491h242v-241 h-242v241z" />
<glyph unicode="&#xe5;" horiz-adv-x="1205" d="M599 1162q-76 0 -128.5 55t-52.5 132q0 72 54 125.5t126 53.5q74 0 127 -54t53 -129t-52.5 -129t-126.5 -54zM600 1455q-43 0 -74.5 -32t-31.5 -75q0 -46 30.5 -78.5t75.5 -32.5q43 0 74.5 32.5t31.5 76.5q0 45 -31 77t-75 32zM542 871q-79 0 -120 -32.5t-65 -100.5 l-255 46q45 159 152 230.5t308 71.5q188 0 280 -45q91 -43 129 -113q38 -68 38 -251l-3 -328q0 -143 10.5 -202.5t53.5 -146.5h-278q-1 2 -11.5 33.5t-15.5 49.5l-10 33q-146 -140 -329 -140q-155 0 -254 85t-99 229q0 95 44.5 163.5t118.5 104.5q78 37 224 66 q196 38 273 69v28q0 87 -44 118.5t-147 31.5zM354 319q0 -61 45.5 -103t110.5 -42q74 0 145 50q51 37 64.5 81.5t13.5 148.5v56q-11 -4 -148.5 -36t-175.5 -56q-55 -39 -55 -99z" />
<glyph unicode="&#xe6;" horiz-adv-x="1861" d="M567 871q-82 0 -128.5 -32.5t-65.5 -100.5l-255 49q49 153 157 226q106 73 328 73q209 0 325 -98q122 98 289 98q319 0 444 -267q63 -127 63 -360v-11h-706q18 -135 76 -196q59 -62 145 -62q144 0 197 149l275 -49q-55 -154 -168.5 -234t-300.5 -80q-224 0 -379 146 q-70 -60 -185 -103t-230 -43q-160 0 -260 83.5t-100 228.5q0 156 114 242q48 36 135.5 61.5t212 51.5t192.5 47v28q0 81 -43 117t-132 36zM1447 624q-6 88 -27 136t-72 80q-49 31 -119 31q-121 0 -174 -110q-32 -70 -32 -127v-10h424zM369 314q0 -62 45 -101t112 -39 t126 38.5t74 95.5q14 58 14 200q-34 -9 -68.5 -18.5t-66 -18t-44.5 -11.5q-99 -26 -127 -42q-22 -13 -38 -31q-27 -31 -27 -73z" />
<glyph unicode="&#xe7;" horiz-adv-x="1119" d="M85 530q0 255 136.5 405.5t378.5 150.5q197 0 310.5 -85.5t162.5 -252.5l-277 -50q-26 167 -192 167q-230 0 -230 -315q0 -189 63 -267q65 -78 171 -78q92 0 138 51t65 151l276 -47q-39 -174 -144.5 -271t-287.5 -111q75 -17 119.5 -63t44.5 -116q0 -87 -72 -143 q-97 -75 -278 -75q-134 0 -195 16v118q141 -11 189 -11q71 0 118 22t47 72q0 43 -35 63.5t-92 20.5q-59 0 -131 -20l26 99q41 15 98 23q-194 31 -301.5 176.5t-107.5 369.5z" />
<glyph unicode="&#xe8;" horiz-adv-x="1194" d="M583 186q137 0 179 152l280 -47q-109 -315 -462 -315q-277 0 -410 181q-105 145 -105 366q0 264 138 413q138 150 349 150q169 0 283.5 -76.5t168 -211.5t53.5 -322v-26h-704q3 -116 64 -190t166 -74zM569 871q-96 0 -153.5 -69.5t-57.5 -174.5v-5h420 q-2 110 -57.5 179.5t-151.5 69.5zM485 1166l-276 299h315l138 -299h-177z" />
<glyph unicode="&#xe9;" horiz-adv-x="1194" d="M583 186q137 0 179 152l280 -47q-109 -315 -462 -315q-277 0 -410 181q-105 145 -105 366q0 264 138 413q138 150 349 150q169 0 283.5 -76.5t168 -211.5t53.5 -322v-26h-704q3 -116 64 -190t166 -74zM569 871q-96 0 -153.5 -69.5t-57.5 -174.5v-5h420 q-2 110 -57.5 179.5t-151.5 69.5zM515 1491h315l-275 -299h-178z" />
<glyph unicode="&#xea;" horiz-adv-x="1194" d="M583 186q137 0 179 152l280 -47q-109 -315 -462 -315q-277 0 -410 181q-105 145 -105 366q0 264 138 413q138 150 349 150q169 0 283.5 -76.5t168 -211.5t53.5 -322v-26h-704q3 -116 64 -190t166 -74zM569 871q-96 0 -153.5 -69.5t-57.5 -174.5v-5h420 q-2 110 -57.5 179.5t-151.5 69.5zM468 1491h260l207 -295h-226l-116 149l-108 -149h-227z" />
<glyph unicode="&#xeb;" horiz-adv-x="1194" d="M583 186q137 0 179 152l280 -47q-109 -315 -462 -315q-277 0 -410 181q-105 145 -105 366q0 264 138 413q138 150 349 150q169 0 283.5 -76.5t168 -211.5t53.5 -322v-26h-704q3 -116 64 -190t166 -74zM569 871q-96 0 -153.5 -69.5t-57.5 -174.5v-5h420 q-2 110 -57.5 179.5t-151.5 69.5zM260 1491h241v-241h-241v241zM690 1491h242v-241h-242v241z" />
<glyph unicode="&#xec;" horiz-adv-x="515" d="M147 1062h281v-1062h-281v1062zM222 1192l-276 299h315l138 -299h-177z" />
<glyph unicode="&#xed;" horiz-adv-x="547" d="M147 1062h281v-1062h-281v1062zM269 1482h315l-275 -299h-178z" />
<glyph unicode="&#xee;" horiz-adv-x="574" d="M147 1062h281v-1062h-281v1062zM159 1487h260l207 -295h-226l-116 149l-108 -149h-227z" />
<glyph unicode="&#xef;" horiz-adv-x="492" d="M128 1062h281v-1062h-281v1062zM-77 1421h241v-241h-241v241zM353 1421h242v-241h-242v241z" />
<glyph unicode="&#xf0;" horiz-adv-x="1229" d="M771 993q-41 73 -68 113.5t-78 103.5l-250 -119l-43 96l218 103q-112 102 -218 176h293q74 -58 109 -89l181 89l45 -98l-144 -67q192 -194 275 -388q84 -194 84 -367q0 -258 -154 -415q-155 -156 -398 -156q-235 0 -388 155q-152 158 -152 403q0 243 162 399 q133 130 304 130q44 0 88 -12t65 -22t69 -35zM624 841q-115 0 -181.5 -88.5t-66.5 -222.5q0 -142 65.5 -234t184.5 -92q118 0 187.5 90.5t69.5 225.5t-71 228t-188 93z" />
<glyph unicode="&#xf1;" horiz-adv-x="1117" d="M832 0v542q0 172 -18 222q-17 49 -57 78t-99 29q-79 0 -135 -40.5t-76 -105.5q-21 -66 -21 -244v-481h-281v1062h261v-156q140 180 350 180q137 0 226 -62.5t115 -174.5q16 -61 16 -189v-660h-281zM433 1314q-36 0 -56 -24.5t-20 -64.5v-6h-133v5q0 97 56 160t147 63 q63 0 169 -54q58 -30 94 -30q38 0 52 20t21 67h130q-3 -104 -53.5 -166t-142.5 -62q-62 0 -166 56q-67 36 -98 36z" />
<glyph unicode="&#xf2;" horiz-adv-x="1223" d="M82 546q0 154 75 281t189 190q128 69 283 69q241 0 395 -157q154 -154 154 -395t-156 -400q-155 -158 -391 -158q-145 0 -279 66q-270 134 -270 504zM630 857q-123 0 -191.5 -91.5t-68.5 -234.5t68.5 -234.5t191.5 -91.5t191 92t68 236q0 141 -68.5 232.5t-190.5 91.5z M652 1192l-276 299h315l138 -299h-177z" />
<glyph unicode="&#xf3;" horiz-adv-x="1223" d="M82 546q0 154 75 281t189 190q128 69 283 69q241 0 395 -157q154 -154 154 -395t-156 -400q-155 -158 -391 -158q-145 0 -279 66q-270 134 -270 504zM630 857q-123 0 -191.5 -91.5t-68.5 -234.5t68.5 -234.5t191.5 -91.5t191 92t68 236q0 141 -68.5 232.5t-190.5 91.5z M586 1491h315l-275 -299h-178z" />
<glyph unicode="&#xf4;" horiz-adv-x="1223" d="M82 546q0 154 75 281t189 190q128 69 283 69q241 0 395 -157q154 -154 154 -395t-156 -400q-155 -158 -391 -158q-145 0 -279 66q-270 134 -270 504zM630 857q-123 0 -191.5 -91.5t-68.5 -234.5t68.5 -234.5t191.5 -91.5t191 92t68 236q0 141 -68.5 232.5t-190.5 91.5z M483 1491h260l207 -295h-226l-116 149l-108 -149h-227z" />
<glyph unicode="&#xf5;" horiz-adv-x="1223" d="M82 546q0 154 75 281t189 190q128 69 283 69q241 0 395 -157q154 -154 154 -395t-156 -400q-155 -158 -391 -158q-145 0 -279 66q-270 134 -270 504zM630 857q-123 0 -191.5 -91.5t-68.5 -234.5t68.5 -234.5t191.5 -91.5t191 92t68 236q0 141 -68.5 232.5t-190.5 91.5z M398 1293q-36 0 -56 -24.5t-20 -64.5v-6h-133v5q0 97 56 160t147 63q63 0 169 -54q58 -30 94 -30q38 0 52 20t21 67h130q-3 -104 -53.5 -166t-142.5 -62q-62 0 -166 56q-68 36 -98 36z" />
<glyph unicode="&#xf6;" horiz-adv-x="1223" d="M82 546q0 154 75 281t189 190q128 69 283 69q241 0 395 -157q154 -154 154 -395t-156 -400q-155 -158 -391 -158q-145 0 -279 66q-270 134 -270 504zM630 857q-123 0 -191.5 -91.5t-68.5 -234.5t68.5 -234.5t191.5 -91.5t191 92t68 236q0 141 -68.5 232.5t-190.5 91.5z M210 1396h241v-241h-241v241zM640 1396h242v-241h-242v241z" />
<glyph unicode="&#xf7;" horiz-adv-x="1150" d="M421 1262h281v-281h-281v281zM49 855h1025v-263h-1025v263zM421 466h281v-281h-281v281z" />
<glyph unicode="&#xf8;" horiz-adv-x="1223" d="M216 156q-129 155 -129 381q0 239 153 394q155 155 394 155q178 0 312 -87l104 120l112 -92l-108 -124q129 -156 129 -373q0 -239 -157 -396q-158 -158 -394 -158q-172 0 -307 84l-115 -133l-110 95zM636 871q-125 0 -197.5 -94t-72.5 -237q0 -103 28 -178l394 455 q-67 54 -152 54zM633 194q126 0 198.5 93t72.5 236q0 94 -30 172l-392 -453q66 -48 151 -48z" />
<glyph unicode="&#xf9;" horiz-adv-x="1150" d="M846 159q-55 -80 -147.5 -131.5t-204.5 -51.5q-110 0 -194.5 49t-120.5 130q-38 90 -38 235v672h281v-488q0 -224 15 -275q37 -109 161 -109q72 0 129.5 39.5t77.5 97.5q21 58 21 287v448h281v-1062h-261v159zM491 1192l-276 299h315l138 -299h-177z" />
<glyph unicode="&#xfa;" horiz-adv-x="1150" d="M846 159q-55 -80 -147.5 -131.5t-204.5 -51.5q-110 0 -194.5 49t-120.5 130q-38 90 -38 235v672h281v-488q0 -224 15 -275q37 -109 161 -109q72 0 129.5 39.5t77.5 97.5q21 58 21 287v448h281v-1062h-261v159zM493 1491h315l-275 -299h-178z" />
<glyph unicode="&#xfb;" horiz-adv-x="1150" d="M846 159q-55 -80 -147.5 -131.5t-204.5 -51.5q-110 0 -194.5 49t-120.5 130q-38 90 -38 235v672h281v-488q0 -224 15 -275q37 -109 161 -109q72 0 129.5 39.5t77.5 97.5q21 58 21 287v448h281v-1062h-261v159zM446 1491h260l207 -295h-226l-116 149l-108 -149h-227z" />
<glyph unicode="&#xfc;" horiz-adv-x="1150" d="M846 159q-55 -80 -147.5 -131.5t-204.5 -51.5q-110 0 -194.5 49t-120.5 130q-38 90 -38 235v672h281v-488q0 -224 15 -275q37 -109 161 -109q72 0 129.5 39.5t77.5 97.5q21 58 21 287v448h281v-1062h-261v159zM238 1400h241v-241h-241v241zM668 1400h242v-241h-242v241z " />
<glyph unicode="&#xfd;" horiz-adv-x="1058" d="M313 1062l254 -754l248 754h291q-35 -97 -196 -534t-246 -673q-24 -59 -43.5 -96.5t-48.5 -74.5t-68.5 -60.5t-93.5 -37.5q-65 -17 -144 -17q-74 0 -159 17l-25 220q59 -13 119 -13q99 0 145 58q46 57 72 146l-404 1065h299zM484 1446h315l-275 -299h-178z" />
<glyph unicode="&#xfe;" horiz-adv-x="1177" d="M595 -24q-66 0 -116.5 17.5t-83.5 43t-80 73.5v-517h-180v1873h180v-516q74 77 128 102q68 34 164 34q147 0 246.5 -72.5t150.5 -195.5q53 -132 53 -279q0 -166 -61 -296.5t-168 -197.5q-111 -69 -233 -69zM298 525q0 -205 83 -303t201 -98q119 0 205 101q86 104 86 315 q0 204 -84 304q-83 101 -199 101t-204 -108q-88 -106 -88 -312z" />
<glyph unicode="&#xff;" horiz-adv-x="1058" d="M313 1062l254 -754l248 754h291q-35 -97 -196 -534t-246 -673q-24 -59 -43.5 -96.5t-48.5 -74.5t-68.5 -60.5t-93.5 -37.5q-65 -17 -144 -17q-74 0 -159 17l-25 220q59 -13 119 -13q99 0 145 58q46 57 72 146l-404 1065h299zM192 1410h241v-241h-241v241zM622 1410h242 v-241h-242v241z" />
<glyph unicode="&#x152;" horiz-adv-x="2074" d="M644 1491q127 0 231 -52t167 -135v162h915v-248h-658v-326h602v-248h-602v-395h686v-249h-943v173q-116 -198 -384 -198q-151 0 -265.5 58.5t-183.5 163.5t-103 240t-34 298q0 379 175 581q150 175 397 175zM701 1238q-148 0 -236 -109t-88 -372q0 -297 99 -425 q75 -97 225 -97q181 0 252 137q72 138 72 379q0 269 -88 378q-87 109 -236 109z" />
<glyph unicode="&#x153;" horiz-adv-x="1986" d="M1374 190q75 0 119 39t69 112l274 -44q-48 -148 -166.5 -234.5t-296.5 -86.5q-114 0 -210.5 40t-163.5 108q-157 -148 -373 -148q-233 0 -386 155q-152 158 -152 398q0 145 65 284q62 126 185.5 199.5t292.5 73.5q223 0 371 -148q138 148 354 148q203 0 324 -114.5 t153 -305.5q16 -94 16 -201v-17h-699q8 -116 63 -187t161 -71zM1579 624q-8 116 -60.5 185.5t-157.5 69.5q-186 0 -208 -255h426zM873 540q0 135 -64.5 224t-180.5 89q-110 0 -181 -83q-70 -82 -70 -255q0 -107 63 -207q64 -99 188 -99q120 0 182.5 92t62.5 239z" />
<glyph unicode="&#x160;" horiz-adv-x="1394" d="M778 1807h204l-225 -280h-192l-216 280h206l113 -170zM659 1246q-46 0 -88 -7.5t-79.5 -23.5t-59.5 -45t-22 -68q0 -51 44 -89q56 -47 272 -98q221 -52 319 -106q221 -116 221 -382q0 -139 -76 -245t-192 -155q-132 -53 -319 -53q-547 0 -605 503l288 28 q24 -138 101 -209.5t219 -71.5q143 0 215 60q73 61 73 142q0 62 -34.5 95t-102.5 57q-46 16 -237 64q-236 58 -334 145q-135 121 -135 295q0 125 69.5 218.5t176.5 139.5q120 51 289 51q256 0 405 -112t157 -332l-296 -13q-18 111 -80.5 161.5t-188.5 50.5z" />
<glyph unicode="&#x161;" horiz-adv-x="1025" d="M629 1454h204l-225 -280h-192l-216 280h206l113 -170zM739 756q-34 128 -200 128q-113 0 -159 -31q-32 -23 -32 -57q0 -30 28 -51q36 -27 262 -79q225 -51 314 -125q88 -75 88 -209q0 -146 -122 -251t-361 -105q-207 0 -337 83t-172 244l282 43q36 -167 227 -167 q201 0 201 115q0 42 -26 59t-88 31q-338 74 -431 137q-126 85 -126 239q0 138 109 232t338 94q205 0 316 -65.5t154 -215.5z" />
<glyph unicode="&#x178;" horiz-adv-x="1394" d="M379 1765h188v-205h-188v205zM752 1765h188v-205h-188v205zM534 617l-537 849h347l345 -580l338 580h341l-539 -851v-615h-295v617z" />
<glyph unicode="&#x17d;" horiz-adv-x="1281" d="M731 1801h204l-225 -280h-192l-216 280h206l113 -170zM22 267l770 951h-683v248h1073v-230l-803 -989h834v-247h-1191v267z" />
<glyph unicode="&#x17e;" horiz-adv-x="1067" d="M637 1454h204l-225 -280h-192l-216 280h206l113 -170zM402 240q101 7 145 7h435v-247h-948v219l398 457q91 105 145 159q-51 -3 -57 -3q-45 0 -72 -1l-375 -2v233h878v-199q-60 -68 -171 -197.5t-202 -232.5t-176 -193z" />
<glyph unicode="&#x192;" horiz-adv-x="1182" d="M37 -170q121 -23 167 -23q61 0 87 38q21 30 37 133l150 873h-202l36 211h202l16 89q28 152 48 196q37 76 107.5 110t189.5 34q130 0 267 -41l-54 -226q-90 28 -158 28q-64 0 -86 -28.5t-37 -105.5l-11 -56h208l-37 -211h-205l-173 -978q-26 -162 -96 -233t-233 -71 q-160 0 -280 40z" />
<glyph unicode="&#x2c6;" horiz-adv-x="677" d="M213 1491h260l207 -295h-226l-116 149l-108 -149h-227z" />
<glyph unicode="&#x2dc;" horiz-adv-x="700" d="M216 1314q-36 0 -56 -24.5t-20 -64.5v-6h-133v5q0 97 56 160t147 63q62 0 169 -54q59 -30 94 -30q38 0 52 20t21 67h130q-3 -104 -53.5 -166t-142.5 -62q-62 0 -166 56q-67 36 -98 36z" />
<glyph unicode="&#x60c;" horiz-adv-x="624" d="M268 326q34 4 55 4q151 -22 163 -179v-2q0 -55 -47 -111q-60 -67 -154 -67q-101 0 -161.5 73t-60.5 184q0 250 269 441q11 -8 139 -109q-176 -128 -203 -234z" />
<glyph unicode="&#x615;" d="M-149 991q65 -26 113 -38q6 8 20.5 31.5t25.5 34.5q12 108 12 126q0 134 -23 281l-9 63l116 32q3 -42 11.5 -115t13.5 -135.5t6 -121.5q91 79 180 94q18 2 26 2q76 0 133.5 -47.5t57.5 -119.5q0 -41 -20.5 -84t-46.5 -69q-62 -55 -135 -82.5t-176 -27.5q-5 0 -15 0.5 t-15 0.5q-144 0 -318 68zM73 932q15 -1 38 -1h29q102 0 185 26t111 83q9 18 9 31q0 27 -28 43t-64 16q-34 0 -71.5 -17t-53.5 -29t-52 -41q-55 -45 -103 -111z" />
<glyph unicode="&#x61b;" horiz-adv-x="569" d="M249 280q61 0 108 -47t47 -108t-46.5 -107t-108.5 -46q-63 0 -109 45.5t-46 107.5t46.5 108.5t108.5 46.5zM280 783q74 -4 116 -50t42 -125q0 -57 -32.5 -99.5t-80.5 -64.5q-31 -14 -69 -14q-100 0 -162 73t-62 184q0 251 217 390q23 -16 63 -61.5t60 -61.5 q-36 -24 -50.5 -34t-40.5 -34t-38 -50t-16 -58q45 5 53 5z" />
<glyph unicode="&#x61f;" horiz-adv-x="1072" d="M513 1450q-84 0 -151 -53.5t-67 -125.5q0 -119 91 -191v1q151 -118 187 -144q112 -112 112 -339v-173h-246v173q0 122 -95 208l-51 42q-137 114 -146 121q-114 123 -114 301q0 180 154 307q147 120 326 120q221 0 341 -144t120 -385h-246q0 282 -215 282zM567 -125 l-192 192l191 191l192 -192z" />
<glyph unicode="&#x621;" horiz-adv-x="1019" d="M365 158q-117 103 -117 243q0 162 137 260q90 65 213 65q30 0 63 -6.5t52 -13t56 -20.5t47 -18q5 -2 10.5 -4.5t12 -5.5t10.5 -5l-85 -176l-46 20q-79 31 -135 31q-85 0 -132 -72q-14 -22 -14 -46q0 -15 4 -30h-1q16 -50 63 -84t108 -34q10 0 27 5q91 14 223 83l92 -173 q-92 -48 -328 -136q-72 -27 -217 -80.5t-218 -80.5l-69 185z" />
<glyph unicode="&#x622;" horiz-adv-x="635" d="M247 -28q22 412 22 634q0 495 -47 778q-2 12 -10 68l257 87q8 -31 12 -68t7 -86.5t6 -78.5q32 -323 32 -702q0 -324 -17 -593zM-19 1646q0 10 1.5 20t6.5 22t7 17t9.5 20t8.5 16q64 128 185 156q14 2 24 2q5 0 12 0.5t10 0.5q90 0 202 -60q25 -14 50 -14q16 0 32 6 t26.5 12.5t26 22.5t21 22t21.5 26t17 22l135 -87q-37 -73 -137 -139q-67 -44 -135 -44q-42 0 -86 11t-70 22.5t-67 31.5q-22 11 -46 11q-70 0 -90 -110q-6 -29 -8 -35z" />
<glyph unicode="&#x623;" horiz-adv-x="553" d="M163 -28q22 412 22 634q0 495 -47 778q-2 12 -10 68l257 87q8 -31 12 -68t7 -86.5t6 -78.5q32 -323 32 -702q0 -324 -17 -593zM155 1898q0 -45 44 -71t99 -26q13 0 27 3t24 6t24 10.5t20.5 11t21 13t18.5 11.5q14 8 49 33l77 -102q-28 -22 -62 -43.5t-55 -33.5t-71 -38.5 t-68 -36.5l-240 -133l-62 113l167 93q-52 29 -85 78.5t-33 116.5q0 99 86 171q68 56 160 56q64 0 138 -24l-36 -111l-33 3q-40 4 -69 4q-28 0 -56 -9q-32 -15 -58.5 -39.5t-26.5 -55.5z" />
<glyph unicode="&#x624;" horiz-adv-x="1072" d="M610 565q-52 55 -92 55q-52 0 -111 -78q-58 -79 -58 -159q0 -34 13 -60.5t37.5 -43t52.5 -27t66.5 -16t70.5 -7t73 -1.5h52q19 0 49 2q-15 179 -153 336v-1zM643 -30q-112 0 -202 21t-160.5 65.5t-109 121t-38.5 181.5q0 209 127 378q110 140 258 140q156 0 283 -138 q140 -154 183 -407q14 -82 14 -162q0 -230 -99 -405q-112 -199 -310.5 -326.5t-464.5 -168.5l-60 250q281 54 471 186q175 120 214 264h-106zM273 1237q0 -45 43 -73.5t96 -28.5q13 0 27 3t24 6t24 10.5t20.5 11t21 13t18.5 11.5q14 8 49 33l77 -102q-28 -22 -62 -43.5 t-55 -33.5t-71 -38.5t-68 -36.5l-240 -133l-62 113l167 93q-52 29 -85 78.5t-33 116.5q0 99 86 171q68 56 160 56q64 0 138 -24l-36 -121l-33 8q-45 9 -69 9q-28 0 -56 -9q-31 -14 -56 -37t-25 -53z" />
<glyph unicode="&#x625;" horiz-adv-x="525" d="M144 -28q22 412 22 634q0 495 -47 778q-2 12 -10 68l257 87q8 -31 12 -68t7 -86.5t6 -78.5q32 -323 32 -702q0 -324 -17 -593zM145 -328q0 -45 44 -71t99 -26q13 0 27 3t24 6t24 10.5t20.5 11t21 13t18.5 11.5q14 8 49 33l77 -102q-28 -22 -62 -43.5t-55 -33.5t-71 -38.5 t-68 -36.5l-240 -133l-62 113l167 93q-52 29 -85 78.5t-33 116.5q0 99 86 171q68 56 160 56q64 0 138 -24l-36 -111l-33 3q-40 4 -69 4q-28 0 -56 -9q-32 -15 -58.5 -39.5t-26.5 -55.5z" />
<glyph unicode="&#x626;" horiz-adv-x="1827" d="M1673 574q-78 34 -155 34q-91 0 -159 -34.5t-131 -95.5q-71 -68 -106 -152q-17 -42 -17 -79q0 -20 8 -50l-1 1q7 -20 25.5 -36t49 -27t54.5 -17.5t62 -14.5t51 -11q60 -14 100 -25.5t88.5 -35t77 -52t48 -75t19.5 -106.5q0 -82 -24.5 -143.5t-74.5 -120.5 q-110 -131 -310 -199t-454 -68q-289 0 -475.5 118t-242.5 345q-21 87 -21 178q0 63 8 130t17 117t29 119.5t31.5 105.5t37.5 110.5t34 99.5l220 -89q-34 -107 -54 -173t-42 -165t-34 -192q-3 -24 -3 -50q0 -153 92 -255q119 -134 403 -134q185 0 337.5 38t244.5 114 q50 41 56 87q-1 8 -11 15t-26.5 12t-29.5 8.5t-33 7t-24 4.5q-61 14 -101 24.5t-92.5 29t-86.5 38t-70.5 50t-57.5 67t-34.5 87.5t-13.5 112q10 223 156 404q199 245 483 245q133 0 243 -61zM463 1025q0 -45 43 -73.5t96 -28.5q13 0 27 3t24 6t24 10.5t20.5 11t21 13 t18.5 11.5q14 8 49 33l77 -102q-28 -22 -62 -43.5t-55 -33.5t-71 -38.5t-68 -36.5l-240 -133l-62 113l167 93q-52 29 -85 78.5t-33 116.5q0 99 86 171q68 56 160 56q64 0 138 -24l-36 -121l-33 8q-45 9 -69 9q-28 0 -56 -9q-31 -14 -56 -37t-25 -53z" />
<glyph unicode="&#x627;" horiz-adv-x="536" d="M164 -28q22 410 22 634q0 333 -24 600q-4 48 -37 275l257 87q6 -24 11 -55t7 -52t6 -62.5t6 -60.5q31 -310 31 -734q0 -324 -17 -593z" />
<glyph unicode="&#x628;" horiz-adv-x="2057" d="M1059 -30q-751 0 -914 329v-1q-45 87 -45 192q0 156 106 340q16 28 25 45l186 -156q-34 -47 -62.5 -110.5t-36.5 -124.5q-2 -18 -2 -26q0 -26 9 -45q43 -86 237 -137q185 -48 465 -48q487 0 741 127q-7 35 -16.5 67.5t-24.5 67.5t-25 59t-31 62t-30 54t-34.5 58.5 t-31.5 53.5l214 139q4 0 19 -30q121 -241 166 -428q14 -59 14 -100q0 -73 -31.5 -116t-96.5 -84q-181 -110 -540 -166q-144 -22 -261 -22zM1011 -551l-192 192l191 191l192 -192z" />
<glyph unicode="&#x629;" horiz-adv-x="1072" d="M541 -30q-125 0 -227 51t-155 131q-54 82 -54 195q0 190 170 396q33 40 52 59l44 44q-35 28 -46 39l-18 15l162 198q114 -89 259 -246q251 -287 251 -505q0 -154 -91 -246.5t-240 -120.5q-57 -10 -107 -10zM754 347q0 27 -13.5 61t-23.5 50t-33 52q-61 96 -160 192 q-108 -108 -171 -266q-19 -48 -19 -89q0 -42 34.5 -70t79 -38t93.5 -10q141 0 193 60q20 23 20 58zM276 1190l-172 171l170 171l172 -172zM654 1188l-172 172l170 170l172 -171z" />
<glyph unicode="&#x62a;" horiz-adv-x="2035" d="M1040 -30q-751 0 -914 329v-1q-45 87 -45 192q0 156 106 340q16 28 25 45l186 -156q-34 -47 -62.5 -110.5t-36.5 -124.5q-2 -18 -2 -26q0 -26 9 -45q43 -86 237 -137q185 -48 465 -48q487 0 741 127q-7 35 -16.5 67.5t-24.5 67.5t-25 59t-31 62t-30 54t-34.5 58.5 t-31.5 53.5l214 139q4 0 19 -30q121 -241 166 -428q14 -59 14 -100q0 -73 -31.5 -116t-96.5 -84q-181 -110 -540 -166q-144 -22 -261 -22zM819 820l-172 171l170 171l172 -172zM1197 818l-172 172l170 170l172 -171z" />
<glyph unicode="&#x62b;" horiz-adv-x="2052" d="M1047 -30q-751 0 -914 329v-1q-45 87 -45 192q0 156 106 340q16 28 25 45l186 -156q-34 -47 -62.5 -110.5t-36.5 -124.5q-2 -18 -2 -26q0 -26 9 -45q43 -86 237 -137q185 -48 465 -48q487 0 741 127q-7 35 -16.5 67.5t-24.5 67.5t-25 59t-31 62t-30 54t-34.5 58.5 t-31.5 53.5l214 139q4 0 19 -30q121 -241 166 -428q14 -59 14 -100q0 -73 -31.5 -116t-96.5 -84q-181 -110 -540 -166q-144 -22 -261 -22zM819 801l-172 171l170 171l172 -172zM1197 799l-172 172l170 170l172 -171zM1007 1416l157 -157l-156 -156l-157 157z" />
<glyph unicode="&#x62c;" horiz-adv-x="1762" d="M923 -536q156 0 282 48t243 135l150 -210q-157 -112 -329.5 -174.5t-383.5 -62.5q-263 0 -450.5 107.5t-268.5 298.5q-48 115 -48 247q0 250 186 436q118 118 288 197t374 112q118 19 243 19h19q-76 29 -217.5 101t-218.5 100q-60 22 -119 22q-77 0 -167 -70 q-82 -65 -123 -142l-213 137q42 72 85.5 125.5t103.5 101t139 74.5t175 31q99 0 181.5 -27.5t169.5 -76.5q46 -26 123.5 -75t143.5 -87t127 -63q104 -43 236 -69l-79 -294q-19 0 -71.5 0.5t-76.5 0.5q-165 0 -387 -48q-439 -96 -602 -310q-61 -81 -61 -186q0 -192 161 -299 q149 -99 385 -99zM913 -280l-192 192l191 191l192 -192z" />
<glyph unicode="&#x62d;" horiz-adv-x="1789" d="M917 -536q156 0 282 48t243 135l150 -210q-157 -112 -329.5 -174.5t-383.5 -62.5q-263 0 -450.5 107.5t-268.5 298.5q-48 115 -48 247q0 250 186 436q118 118 288 197t374 112q118 19 243 19h19q-76 29 -217.5 101t-218.5 100q-60 22 -119 22q-77 0 -167 -70 q-82 -65 -123 -142l-213 137q42 72 85.5 125.5t103.5 101t139 74.5t175 31q99 0 181.5 -27.5t169.5 -76.5q46 -26 123.5 -75t143.5 -87t127 -63q104 -43 236 -69l-79 -294q-19 0 -71.5 0.5t-76.5 0.5q-165 0 -387 -48q-439 -96 -602 -310q-61 -81 -61 -186q0 -192 161 -299 q149 -99 385 -99z" />
<glyph unicode="&#x62e;" horiz-adv-x="1734" d="M917 -536q156 0 282 48t243 135l150 -210q-157 -112 -329.5 -174.5t-383.5 -62.5q-263 0 -450.5 107.5t-268.5 298.5q-48 115 -48 247q0 250 186 436q118 118 288 197t374 112q118 19 243 19h19q-76 29 -217.5 101t-218.5 100q-60 22 -119 22q-77 0 -167 -70 q-82 -65 -123 -142l-213 137q42 72 85.5 125.5t103.5 101t139 74.5t175 31q99 0 181.5 -27.5t169.5 -76.5q46 -26 123.5 -75t143.5 -87t127 -63q104 -43 236 -69l-79 -294q-19 0 -71.5 0.5t-76.5 0.5q-165 0 -387 -48q-439 -96 -602 -310q-61 -81 -61 -186q0 -192 161 -299 q149 -99 385 -99zM562 1293l-192 192l191 191l192 -192z" />
<glyph unicode="&#x62f;" horiz-adv-x="1160" d="M595 223q40 0 71 2t67 10t59.5 21t39.5 37t16 57q0 35 -15 73.5t-29 60.5t-40 60q-115 164 -306 314q-57 44 -104 74l149 221q321 -221 477 -497q57 -99 80 -196q13 -55 13 -110q0 -149 -102 -256q-59 -62 -150.5 -98.5t-203.5 -36.5q-23 0 -35 1q-243 0 -506 158 l106 245q129 -82 316 -127q53 -13 97 -13z" />
<glyph unicode="&#x630;" horiz-adv-x="1154" d="M595 223q40 0 71 2t67 10t59.5 21t39.5 37t16 57q0 35 -15 73.5t-29 60.5t-40 60q-115 164 -306 314q-57 44 -104 74l149 221q321 -221 477 -497q57 -99 80 -196q13 -55 13 -110q0 -149 -102 -256q-59 -62 -150.5 -98.5t-203.5 -36.5q-23 0 -35 1q-243 0 -506 158 l106 245q129 -82 316 -127q53 -13 97 -13zM474 1338l-192 192l191 191l192 -192z" />
<glyph unicode="&#x631;" horiz-adv-x="750" d="M548 635q84 -240 114 -461q6 -45 6 -84q0 -167 -104 -340q-135 -223 -424 -407q-85 -54 -176 -99l-114 229q224 110 388 269q107 105 152 227q22 59 22 121t-13 130t-27.5 113.5t-39.5 117t-35 103.5z" />
<glyph unicode="&#x632;" horiz-adv-x="739" d="M548 635q84 -240 114 -461q6 -45 6 -84q0 -167 -104 -340q-135 -223 -424 -407q-85 -54 -176 -99l-114 229q224 110 388 269q107 105 152 227q22 59 22 121t-13 130t-27.5 113.5t-39.5 117t-35 103.5zM399 866l-192 192l191 191l192 -192z" />
<glyph unicode="&#x633;" horiz-adv-x="2769" d="M2291 223q152 0 152 205q0 63 -47 183q-28 69 -110 223l228 120q114 -198 152 -422q11 -63 11 -117q-2 -150 -62.5 -253.5t-169.5 -153.5q-76 -35 -174 -35q-169 0 -246 139q-52 -73 -112.5 -106.5t-169.5 -33.5q-97 0 -172 36q1 -14 1 -42q0 -307 -244 -486 q-231 -169 -559 -169q-150 0 -273.5 50t-211.5 135q-193 186 -193 481q9 246 141 509q40 80 76 134l207 -153q-129 -206 -166 -366q-15 -64 -15 -131v-14q0 -130 70.5 -220.5t181.5 -133.5q82 -32 179 -32q125 0 223.5 26t172 79t113 141t39.5 206q0 166 -85 372 q-38 90 -81 180l225 138q3 -8 19 -51.5t21.5 -56.5t20.5 -51.5t23.5 -56t23.5 -49.5t27 -52t28 -43.5t32 -42.5q67 -79 140 -79q16 0 25 2q39 1 67.5 17.5t44 41t24.5 63t11.5 73.5t2.5 83l-5 169l245 25l3 -46l3 -72q18 -263 108 -342q24 -21 55 -21z" />
<glyph unicode="&#x634;" horiz-adv-x="2763" d="M2291 223q152 0 152 205q0 63 -47 183q-28 69 -110 223l228 120q114 -198 152 -422q11 -63 11 -117q-2 -150 -62.5 -253.5t-169.5 -153.5q-76 -35 -174 -35q-169 0 -246 139q-52 -73 -112.5 -106.5t-169.5 -33.5q-97 0 -172 36q1 -14 1 -42q0 -307 -244 -486 q-231 -169 -559 -169q-150 0 -273.5 50t-211.5 135q-193 186 -193 481q9 246 141 509q40 80 76 134l207 -153q-129 -206 -166 -366q-15 -64 -15 -131v-14q0 -130 70.5 -220.5t181.5 -133.5q82 -32 179 -32q125 0 223.5 26t172 79t113 141t39.5 206q0 166 -85 372 q-38 90 -81 180l225 138q3 -8 19 -51.5t21.5 -56.5t20.5 -51.5t23.5 -56t23.5 -49.5t27 -52t28 -43.5t32 -42.5q67 -79 140 -79q16 0 25 2q39 1 67.5 17.5t44 41t24.5 63t11.5 73.5t2.5 83l-5 169l245 25l3 -46l3 -72q18 -263 108 -342q24 -21 55 -21zM1773 985l-172 171 l170 171l172 -172zM2151 983l-172 172l170 170l172 -171zM1961 1600l157 -157l-156 -156l-157 157z" />
<glyph unicode="&#x635;" horiz-adv-x="2922" d="M2097 -64q-317 0 -527 129v-32q0 -159 -55.5 -289t-149.5 -222q-208 -201 -529 -201q-265 0 -439 98t-244 291q-47 131 -47 232q0 178 82 404q50 138 126 274l200 -142q-17 -20 -56 -103q-76 -155 -104 -317q-11 -63 -11 -118q0 -95 38.5 -166t106.5 -112.5t152.5 -61.5 t185.5 -20q161 0 274.5 64.5t174.5 178.5q49 91 49 199q0 5 0.5 13.5t0.5 11.5q0 62 -7.5 119t-27.5 123t-30 96t-41.5 108.5t-36.5 90.5l231 126l32 -83q54 -136 83 -184q37 -62 82 -95q67 141 190.5 258.5t274.5 197.5q97 52 195 73q55 13 115 13q126 0 224 -52t159 -137 q74 -102 74 -229q0 -190 -138 -328q-100 -100 -257 -154t-350 -54zM1816 241q172 -47 288 -47q161 0 294 44.5t194 131.5q31 45 31 101q0 52 -35.5 90t-87 55.5t-108.5 17.5q-35 0 -73 -10q-121 -35 -230 -103.5t-189 -155.5q-56 -60 -84 -124z" />
<glyph unicode="&#x636;" horiz-adv-x="2933" d="M2097 -64q-317 0 -527 129v-32q0 -159 -55.5 -289t-149.5 -222q-208 -201 -529 -201q-265 0 -439 98t-244 291q-47 131 -47 232q0 178 82 404q50 138 126 274l200 -142q-17 -20 -56 -103q-76 -155 -104 -317q-11 -63 -11 -118q0 -95 38.5 -166t106.5 -112.5t152.5 -61.5 t185.5 -20q161 0 274.5 64.5t174.5 178.5q49 91 49 199q0 5 0.5 13.5t0.5 11.5q0 62 -7.5 119t-27.5 123t-30 96t-41.5 108.5t-36.5 90.5l231 126l32 -83q54 -136 83 -184q37 -62 82 -95q67 141 190.5 258.5t274.5 197.5q97 52 195 73q55 13 115 13q126 0 224 -52t159 -137 q74 -102 74 -229q0 -190 -138 -328q-100 -100 -257 -154t-350 -54zM1816 241q172 -47 288 -47q161 0 294 44.5t194 131.5q31 45 31 101q0 52 -35.5 90t-87 55.5t-108.5 17.5q-35 0 -73 -10q-121 -35 -230 -103.5t-189 -155.5q-56 -60 -84 -124zM2274 1059l-192 192l191 191 l192 -192z" />
<glyph unicode="&#x637;" horiz-adv-x="1776" d="M737 1605q52 -434 63 -631q6 -110 6 -207v-34q8 7 25 22q109 98 173 136q125 74 283 74q126 0 219 -54t148 -145q49 -80 49 -160q0 -220 -139 -376q-111 -125 -295 -192.5t-413 -67.5q-249 0 -443.5 38t-360.5 119l94 241q14 -5 63 -23.5t70 -26t59 -19t70 -19.5 q38 56 116 156q24 144 24 298q0 36 -16 279q-11 162 -51 524zM649 226q96 -12 184 -12q181 0 327 44t241 128q93 83 93 165q0 76 -64 114.5t-153 38.5q-66 0 -149 -36q-144 -63 -266.5 -179.5t-212.5 -262.5z" />
<glyph unicode="&#x638;" horiz-adv-x="1787" d="M737 1605q52 -434 63 -631q6 -110 6 -207v-34q8 7 25 22q109 98 173 136q125 74 283 74q126 0 219 -54t148 -145q49 -80 49 -160q0 -220 -139 -376q-111 -125 -295 -192.5t-413 -67.5q-249 0 -443.5 38t-360.5 119l94 241q14 -5 63 -23.5t70 -26t59 -19t70 -19.5 q38 56 116 156q24 144 24 298q0 36 -16 279q-11 162 -51 524zM649 226q96 -12 184 -12q181 0 327 44t241 128q93 83 93 165q0 76 -64 114.5t-153 38.5q-66 0 -149 -36q-144 -63 -266.5 -179.5t-212.5 -262.5zM1299 1147l-192 192l191 191l192 -192z" />
<glyph unicode="&#x639;" horiz-adv-x="1713" d="M1516 -541q-137 -115 -289 -175t-357 -60q-248 0 -464 132q-132 80 -210.5 215t-78.5 318q0 237 151 433q119 150 343 260q-141 118 -141 320q4 175 144 309q147 142 344 142q87 0 158.5 -26.5t147.5 -73.5q54 -33 101 -69l-146 -200q-79 61 -171 96q-40 15 -90 15 q-96 0 -157 -58.5t-61 -153.5q0 -69 36.5 -102.5t106.5 -52.5q55 -15 127 -15q34 0 74.5 4t60.5 6.5t73 12t61 10.5l83 14l56 -256q-224 -27 -522 -103q-137 -35 -233.5 -85t-173.5 -130q-124 -128 -124 -294q0 -188 157 -299q145 -101 352 -101q272 0 493 182z" />
<glyph unicode="&#x63a;" horiz-adv-x="1696" d="M1516 -541q-137 -115 -289 -175t-357 -60q-248 0 -464 132q-132 80 -210.5 215t-78.5 318q0 237 151 433q119 150 343 260q-141 118 -141 320q4 175 144 309q147 142 344 142q87 0 158.5 -26.5t147.5 -73.5q54 -33 101 -69l-146 -200q-79 61 -171 96q-40 15 -90 15 q-96 0 -157 -58.5t-61 -153.5q0 -69 36.5 -102.5t106.5 -52.5q55 -15 127 -15q34 0 74.5 4t60.5 6.5t73 12t61 10.5l83 14l56 -256q-224 -27 -522 -103q-137 -35 -233.5 -85t-173.5 -130q-124 -128 -124 -294q0 -188 157 -299q145 -101 352 -101q272 0 493 182zM925 1528 l-192 192l191 191l192 -192z" />
<glyph unicode="&#x640;" horiz-adv-x="907" d="M-1 -30q-55 0 -93.5 37t-38.5 91q0 55 39 91.5t94 36.5h908q54 0 91.5 -37t37.5 -91q0 -55 -37 -91.5t-92 -36.5h-909z" />
<glyph unicode="&#x641;" horiz-adv-x="2046" d="M1277 1024q100 131 241 131q135 0 262 -127q125 -143 167 -374q13 -71 13 -146q0 -78 -17.5 -143.5t-47 -115.5t-76 -90.5t-97 -68.5t-118 -49.5t-132 -34t-145.5 -20.5t-150.5 -11.5t-155.5 -4.5q-163 1 -295.5 16.5t-255.5 51t-211.5 101t-134.5 158.5v-1 q-45 87 -45 192q0 156 105 340q1 3 11 19t15 26l186 -156q-34 -46 -63 -111t-37 -124q-2 -16 -2 -23q0 -26 10 -48q44 -89 236 -137q185 -48 466 -48q354 0 632 80q37 11 62 23h-102q-264 0 -372 136q-68 84 -68 213q0 40 6 79q29 164 113 268v-1zM1652 770q-22 48 -57 87.5 t-77 39.5q-18 0 -40 -11q-37 -20 -66 -58.5t-44 -83.5q-9 -27 -9 -56q0 -65 43 -84q72 -31 216 -31q23 0 101 3q-26 106 -67 194zM1538 1296l-192 192l191 191l192 -192z" />
<glyph unicode="&#x642;" horiz-adv-x="1620" d="M426 449q-63 -119 -93.5 -221t-30.5 -230q0 -188 148 -302q138 -107 337 -107h9q196 0 320 104.5t178 276.5h-6l-199 1q-243 23 -344 155v-1q-83 105 -83 226q0 198 139 383v-1q109 141 257 141q156 0 283 -139q137 -151 181 -408q14 -82 14 -161v-45q0 -15 -2 -45 q0 -88 -49 -241q-18 -58 -53 -124h1q-92 -175 -251 -277.5t-390 -102.5q-309 0 -512 178q-64 57 -108 135v-1q-95 152 -95 354q0 144 43 285q43 140 114 280zM1212 225q58 0 102 3q-12 171 -142 333q-15 21 -49 37.5t-65 16.5q-69 0 -121 -85q-45 -75 -45 -155q0 -42 24 -73 t64 -46.5t83 -22.5t91 -7q10 0 29 -0.5t29 -0.5zM818 996l-172 171l170 171l172 -172zM1196 994l-172 172l170 170l172 -171z" />
<glyph unicode="&#x643;" horiz-adv-x="2134" d="M1028 -29q-771 0 -935 331v-1q-45 87 -45 192q0 22 2.5 44.5t5.5 41.5t10.5 43.5t12 40t15 40.5t15.5 37t18 38l17 34t18.5 35t16.5 31l186 -156q-34 -47 -62 -110.5t-37 -125.5q-2 -18 -2 -26q0 -24 9 -44q43 -88 237 -138q181 -47 465 -47q16 -1 49 -1q9 0 24.5 -0.5 t22.5 -0.5q292 0 477 68q85 34 119 74q35 42 35 93q0 73 -80 166q-46 54 -108 107.5t-143.5 117t-119.5 95.5q-103 86 -109 92l29 262l867 357l101 -238l-733 -290q242 -204 339 -313q109 -122 147 -228q21 -59 21 -119q0 -76 -23 -135t-67 -122q-52 -78 -192 -145 q-226 -100 -551 -100h-52z" />
<glyph unicode="&#x644;" horiz-adv-x="1488" d="M409 316q-103 -148 -103 -399q0 -211 214 -307q90 -40 166 -40h14q160 0 288 98q150 114 150 322q0 143 -5.5 315t-10.5 281t-16.5 322t-15.5 286q-4 75 -17 304l261 49q19 -411 46 -1373q3 -110 3 -188q0 -231 -100 -381.5t-277 -228.5q-140 -62 -300 -62h-19 q-133 0 -285 73q-149 71 -238 200.5t-89 320.5q0 282 87 456q15 31 31 52z" />
<glyph unicode="&#x645;" horiz-adv-x="1253" d="M77 195q0 117 60.5 189t173.5 72q29 0 51 -6q40 120 134 252q26 36 54 64q106 105 232 105q88 0 159.5 -32.5t118 -89t73 -130t32.5 -158.5q1 -7 1 -23v-23q0 -129 -41 -223q-66 -169 -201 -190q-15 -5 -32 -5q-45 0 -132 26q-76 23 -223.5 82t-219.5 81l51 -907 l-253 -40zM919 253q34 54 34 155q0 66 -30.5 117.5t-78.5 74.5q-26 13 -53 13q-60 0 -131 -73q-18 -19 -31.5 -42.5t-32 -66.5t-22.5 -52q16 -6 78 -32.5t92.5 -38.5t81.5 -29t93 -26z" />
<glyph unicode="&#x646;" horiz-adv-x="1625" d="M818 -720q-271 0 -439.5 96.5t-250.5 291.5q-51 122 -51 280q0 331 186 611l197 -143q-85 -119 -136 -325q-18 -74 -18 -149q0 -140 81 -232.5t207 -137.5q89 -31 191 -31q152 0 271.5 56.5t187.5 151.5q69 96 69 204q0 27 -2.5 53.5t-9 56t-11 48.5t-16 52.5t-15.5 45 t-18.5 49t-16.5 42.5q-41 109 -72 168l-14 26l235 131q11 -17 47 -109q77 -200 110 -373q18 -91 18 -173q0 -208 -90 -356t-242 -236q-170 -98 -398 -98zM819 451l-192 192l191 191l192 -192z" />
<glyph unicode="&#x647;" horiz-adv-x="1012" d="M504 -30q-125 0 -227 51t-155 131q-54 82 -54 195q0 190 170 396q33 40 52 59l44 44q-35 28 -46 39l-18 15l162 198q114 -89 259 -246q251 -287 251 -505q0 -154 -91 -246.5t-240 -120.5q-57 -10 -107 -10zM717 347q0 27 -13.5 61t-23.5 50t-33 52q-61 96 -160 192 q-108 -108 -171 -266q-19 -48 -19 -89q0 -42 34.5 -70t79 -38t93.5 -10q141 0 193 60q20 23 20 58z" />
<glyph unicode="&#x648;" horiz-adv-x="1083" d="M610 565q-52 55 -92 55q-52 0 -111 -78q-58 -79 -58 -159q0 -34 13 -60.5t37.5 -43t52.5 -27t66.5 -16t70.5 -7t73 -1.5h52q19 0 49 2q-15 179 -153 336v-1zM643 -30q-112 0 -202 21t-160.5 65.5t-109 121t-38.5 181.5q0 209 127 378q110 140 258 140q156 0 283 -138 q140 -154 183 -407q14 -82 14 -162q0 -230 -99 -405q-112 -199 -310.5 -326.5t-464.5 -168.5l-60 250q281 54 471 186q175 120 214 264h-106z" />
<glyph unicode="&#x649;" horiz-adv-x="1838" d="M1673 574q-78 34 -155 34q-91 0 -159 -34.5t-131 -95.5q-71 -68 -106 -152q-17 -42 -17 -79q0 -20 8 -50l-1 1q7 -20 25.5 -36t49 -27t54.5 -17.5t62 -14.5t51 -11q60 -14 100 -25.5t88.5 -35t77 -52t48 -75t19.5 -106.5q0 -82 -24.5 -143.5t-74.5 -120.5 q-110 -131 -310 -199t-454 -68q-289 0 -475.5 118t-242.5 345q-21 87 -21 178q0 63 8 130t17 117t29 119.5t31.5 105.5t37.5 110.5t34 99.5l220 -89q-34 -107 -54 -173t-42 -165t-34 -192q-3 -24 -3 -50q0 -153 92 -255q119 -134 403 -134q185 0 337.5 38t244.5 114 q50 41 56 87q-1 8 -11 15t-26.5 12t-29.5 8.5t-33 7t-24 4.5q-61 14 -101 24.5t-92.5 29t-86.5 38t-70.5 50t-57.5 67t-34.5 87.5t-13.5 112q10 223 156 404q199 245 483 245q133 0 243 -61z" />
<glyph unicode="&#x64a;" horiz-adv-x="1838" d="M1673 574q-78 34 -155 34q-91 0 -159 -34.5t-131 -95.5q-71 -68 -106 -152q-17 -42 -17 -79q0 -20 8 -50l-1 1q7 -20 25.5 -36t49 -27t54.5 -17.5t62 -14.5t51 -11q60 -14 100 -25.5t88.5 -35t77 -52t48 -75t19.5 -106.5q0 -82 -24.5 -143.5t-74.5 -120.5 q-110 -131 -310 -199t-454 -68q-289 0 -475.5 118t-242.5 345q-21 87 -21 178q0 63 8 130t17 117t29 119.5t31.5 105.5t37.5 110.5t34 99.5l220 -89q-34 -107 -54 -173t-42 -165t-34 -192q-3 -24 -3 -50q0 -153 92 -255q119 -134 403 -134q185 0 337.5 38t244.5 114 q50 41 56 87q-1 8 -11 15t-26.5 12t-29.5 8.5t-33 7t-24 4.5q-61 14 -101 24.5t-92.5 29t-86.5 38t-70.5 50t-57.5 67t-34.5 87.5t-13.5 112q10 223 156 404q199 245 483 245q133 0 243 -61z" />
<glyph unicode="&#x64b;" d="M-11 1091v144l452 179v-136zM-11 1350v144l452 179v-136z" />
<glyph unicode="&#x64c;" d="M14 1434q61 0 98.5 -45t37.5 -111q0 -17 -6 -56q114 35 171 71q-89 44 -125 92q-34 46 -34 87q0 86 86 142q52 34 102 34q74 0 115.5 -54.5t41.5 -136.5q0 -50 -15 -106l28 -15l-33 -103l-52 15q-113 -107 -364 -157l-58 82q39 65 47 83q7 15 7 29q0 43 -30 50 q-12 0 -26 -5t-23 -10.5t-23.5 -15.5t-18.5 -12q-12 -8 -18 -13l-66 79q30 30 72.5 53t85.5 23zM338 1539q-22 0 -46.5 -15t-37.5 -33q-3 -5 -3 -9q0 -26 64 -60l63 -31q8 30 8 58q0 67 -39 88z" />
<glyph unicode="&#x64d;" d="M-9 -711v144l452 179v-136zM-9 -452v144l452 179v-136z" />
<glyph unicode="&#x64e;" d="M-30 1227v144l452 179v-136z" />
<glyph unicode="&#x64f;" d="M225 1522q-26 0 -49 -17.5t-34 -39.5v-2q0 -19 48 -51q48 -31 87 -46q3 14 3 36q0 97 -45 117q-4 3 -10 3zM372 1217q-43 11 -55 16q-125 -106 -324 -167l-26 -7l-32 112q7 2 39 11.5t43.5 13.5t39.5 13t43 15t36.5 15t39 18t32.5 19l-53 23q-108 52 -108 157 q0 59 43 105q66 70 145 70q75 0 116 -55.5t41 -137.5q0 -48 -15 -102l29 -7z" />
<glyph unicode="&#x650;" d="M-6 -554v144l452 179v-136z" />
<glyph unicode="&#x651;" d="M378 1137q-68 0 -108 43q-49 -58 -126 -58h-7q-79 4 -124 45t-45 118q0 81 43 153l94 -49q-11 -20 -20.5 -53t-9.5 -57q0 -46 55 -46q24 0 40 12t23.5 34t10 43.5t2.5 50.5l100 43q14 -102 38 -139q17 -26 37 -26q28 2 49.5 17.5t21.5 39.5q0 20 -5.5 39.5t-18 39.5 t-21 31.5t-26.5 32.5t-21 25l97 67q57 -86 80 -157q12 -36 12 -70q0 -89 -79 -148q-43 -31 -92 -31z" />
<glyph unicode="&#x652;" d="M147 1330q0 -42 28 -70.5t71 -28.5q44 0 72 28t28 71q0 40 -29.5 68.5t-70.5 28.5q-42 0 -70.5 -28t-28.5 -69zM240 1564h11q68 0 119 -44.5t75 -105.5q17 -43 17 -84q0 -72 -38.5 -127.5t-95.5 -86.5q-39 -21 -82 -21q-70 0 -122 44t-78 106q-17 40 -17 85 q0 72 38 127.5t95 86.5q37 20 78 20z" />
<glyph unicode="&#x653;" d="M-214 1291q0 10 1.5 20t6.5 22t7 17t9.5 20t8.5 16q64 128 185 156q14 2 24 2q5 0 12 0.5t10 0.5q90 0 202 -60q25 -14 50 -14q16 0 32 6t26.5 12.5t26 22.5t21 22t21.5 26t17 22l135 -87q-37 -73 -137 -139q-67 -44 -135 -44q-42 0 -86 11t-70 22.5t-67 31.5 q-22 11 -46 11q-70 0 -90 -110q-6 -29 -8 -35z" />
<glyph unicode="&#x654;" d="M141 1694q0 -45 44 -71t99 -26q13 0 27 3t24 6t24 10.5t20.5 11t21 13t18.5 11.5q14 8 49 33l77 -102q-28 -22 -62 -43.5t-55 -33.5t-71 -38.5t-68 -36.5l-240 -133l-62 113l167 93q-52 29 -85 78.5t-33 116.5q0 99 86 171q68 56 160 56q64 0 138 -24l-36 -111l-33 3 q-40 4 -69 4q-28 0 -56 -9q-32 -15 -58.5 -39.5t-26.5 -55.5z" />
<glyph unicode="&#x655;" d="M223 -81q0 -45 44 -71t99 -26q13 0 27 3t24 6t24 10.5t20.5 11t21 13t18.5 11.5q14 8 49 33l77 -102q-28 -22 -62 -43.5t-55 -33.5t-71 -38.5t-68 -36.5l-240 -133l-62 113l167 93q-52 29 -85 78.5t-33 116.5q0 99 86 171q68 56 160 56q64 0 138 -24l-36 -111l-33 3 q-40 4 -69 4q-28 0 -56 -9q-32 -15 -58.5 -39.5t-26.5 -55.5z" />
<glyph unicode="&#x656;" d="M82 -268q29 -111 29 -217q0 -94 -25 -217l-132 40q25 88 25 163q0 78 -28 192z" />
<glyph unicode="&#x660;" horiz-adv-x="980" d="M328 486q0 -54 28 -92t72 -58q29 -13 63 -13q53 0 92.5 28t58.5 71q13 29 13 64q0 54 -28.5 92.5t-72.5 58.5q-29 13 -63 13q-54 0 -92 -28t-58 -72q-13 -29 -13 -64zM130 486q0 146 106 256q102 106 255 106q119 0 205 -62.5t128 -159.5q29 -67 29 -140q0 -120 -62 -205 t-160 -127q-67 -29 -140 -29q-119 0 -205.5 62t-127.5 158q-28 65 -28 141z" />
<glyph unicode="&#x661;" horiz-adv-x="762" d="M283 -56q0 273 -5 449.5t-30.5 397.5t-73.5 382q-28 93 -75 181l211 130q44 -66 76.5 -148t54.5 -185.5t35 -182t29 -205.5q31 -231 31 -714v-105h-253z" />
<glyph unicode="&#x662;" horiz-adv-x="1138" d="M766 1318q0 61 -12 139l247 44q19 -146 19 -211q0 -210 -118 -359q-109 -132 -297 -132q-71 0 -132 15q37 -292 37 -664q0 -37 0.5 -103.5t0.5 -96.5h-253q0 615 -57 950q-24 144 -64 255q-2 6 -7.5 17.5t-7.5 17.5l-12 33q-27 73 -62 130l212 136q46 -70 80 -159l14 -34 q5 -11 20.5 -46t21.5 -48.5t21.5 -40.5t28 -41t32.5 -30t42 -26q33 -14 77 -14q161 0 167 176q2 62 2 92z" />
<glyph unicode="&#x663;" horiz-adv-x="1461" d="M1111 1178q0 103 -47 265l249 46l10 -55q1 -7 7.5 -41.5t8 -47t5.5 -39t5 -49t1 -46.5q0 -274 -184 -371q-53 -28 -120 -28q-152 0 -236 103q-34 -34 -48.5 -47t-46 -35t-66 -30.5t-78.5 -8.5q-55 0 -92 10v-6q39 -305 39 -847h-254q4 60 4 99v100q0 252 -15 447.5 t-62.5 394t-128.5 336.5l228 133q57 -92 110 -230q2 -4 13 -29t14.5 -31.5t13.5 -26.5t17 -28.5t17.5 -22t22 -22t24.5 -15.5q20 -10 49 -10q26 0 45 13t29 34.5t15.5 49.5t7 56.5t2.5 57.5v11v28q0 66 -7 107l240 31q4 -117 50 -286h-1q28 -83 94 -83q65 0 65 113z" />
<glyph unicode="&#x664;" horiz-adv-x="1313" d="M822 924q151 0 302 90l111 -207q-179 -132 -409 -132q-179 0 -305 80q41 -337 41 -800h-253q0 231 -8 404t-31 363.5t-72.5 346.5t-124.5 275l213 134q80 -135 113 -216q56 106 156 171t239 65q122 0 216.5 -41.5t149.5 -115.5l-143 -178l-20 13q-40 28 -97 48t-114 22 q-64 -7 -120.5 -41.5t-87.5 -80.5q-18 -26 -18 -55q0 -2 0.5 -5.5t0.5 -5.5q14 -68 88.5 -101t172.5 -33z" />
<glyph unicode="&#x665;" horiz-adv-x="1368" d="M681 59q-106 -119 -249 -119q-139 0 -236 110q-115 131 -115 335q0 150 37.5 273.5t107.5 261.5q31 62 74 135.5t66.5 110.5t86.5 135l-39 41l176 173q29 -28 85 -79.5t87.5 -81.5t76 -74t81.5 -84q138 -150 238 -328q70 -124 113 -258q30 -102 30 -202 q0 -148 -54.5 -257t-152.5 -167q-72 -42 -171 -45h-2q-148 0 -240 120zM793 512q0 -198 61 -289q24 -36 66 -38q53 9 91.5 49.5t59.5 95.5q13 35 13 73q0 69 -19 134q-29 86 -75 166.5t-109 155.5t-113.5 127.5t-127.5 127.5l-8 8t-7.5 7t-8.5 8q-165 -203 -264 -445 q-65 -156 -65 -323q0 -57 24.5 -100t64.5 -67q24 -14 56 -14q58 0 109 78q43 66 64 248z" />
<glyph unicode="&#x666;" horiz-adv-x="1105" d="M839 1169q-35 20 -55.5 30t-55 19.5t-71.5 9.5q-116 0 -201 -55q-75 -61 -75 -140q0 -36 21.5 -59.5t47 -32t66.5 -15.5q33 -6 68 -6h15q34 0 70.5 3.5t63 7.5t67 14t58.5 14.5t62.5 17.5t56.5 16l92 -219l-75 -35q-241 -94 -427 -328q-163 -202 -254 -435 q-10 -26 -10 -28l-238 76q8 24 63 134q125 249 258 422q50 64 108 108q-110 2 -188.5 61t-117.5 151q-26 61 -26 135q0 141 101 267q59 73 153 122t204 55q24 3 26 3h25q80 0 148.5 -25t147.5 -69z" />
<glyph unicode="&#x667;" horiz-adv-x="1291" d="M513 -50q0 180 -27 350.5t-66.5 303.5t-106 278t-123.5 246t-141 236l211 135q278 -463 392 -954q114 441 267 791q43 98 88 170l210 -135q-96 -155 -213 -457q-143 -371 -195 -612q-43 -196 -44 -352h-252z" />
<glyph unicode="&#x668;" horiz-adv-x="1319" d="M57 56q83 132 141.5 237t123.5 249.5t105 279.5t66.5 306.5t26.5 351.5l272 -5q5 -187 48 -364.5t116 -394.5q141 -415 295 -655l-210 -134q-145 230 -281 611q-45 126 -82 265q-63 -233 -163.5 -440t-246.5 -441z" />
<glyph unicode="&#x669;" horiz-adv-x="1198" d="M640 671q-66 -15 -152 -15h-22q-66 0 -172 28q-221 60 -221 347q0 165 103 304q110 147 262 147q81 0 141 -36.5t113 -99.5q139 -164 165 -563q35 -277 143 -496q39 -79 91 -137l-131 -212q-204 152 -276 494q-23 107 -38 203v1zM456 915q31 0 151 12q-12 161 -95 259 q-32 38 -76 54q-46 -7 -82 -51.5t-56 -98.5q-13 -35 -13 -69q0 -106 171 -106z" />
<glyph unicode="&#x66a;" horiz-adv-x="1217" d="M840 1598h287l-821 -1636h-284zM916 -36l-245 245l244 243l245 -245zM285 1084l-245 245l244 243l245 -245z" />
<glyph unicode="&#x66b;" horiz-adv-x="761" d="M530 958h187l-498 -1124h-188z" />
<glyph unicode="&#x66c;" horiz-adv-x="569" d="M249 -62q27 6 57 6q164 0 168 -171v-1q0 -60 -35.5 -102t-89.5 -64q-40 -16 -77 -16q-106 0 -166 78v-1q-56 71 -56 192q0 289 377 479l72 -174q-115 -51 -177 -108q-62 -58 -73 -118z" />
<glyph unicode="&#x66d;" horiz-adv-x="990" d="M479 434q-28 -22 -83 -64.5t-99.5 -78t-81.5 -65.5l-40 38l112 312l-276 185l15 56l334 -12l92 323h58l92 -323l334 12l19 -54l-280 -188q20 -60 62 -175t51 -140l-47 -32z" />
<glyph unicode="&#x66e;" horiz-adv-x="2074" d="M1055 -30q-751 0 -914 329v-1q-45 87 -45 192q0 156 106 340q16 28 25 45l186 -156q-34 -47 -62.5 -110.5t-36.5 -124.5q-2 -18 -2 -26q0 -26 9 -45q43 -86 237 -137q185 -48 465 -48q487 0 741 127q-7 35 -16.5 67.5t-24.5 67.5t-25 59t-31 62t-30 54t-34.5 58.5 t-31.5 53.5l214 139q4 0 19 -30q121 -241 166 -428q14 -59 14 -100q0 -73 -31.5 -116t-96.5 -84q-181 -110 -540 -166q-144 -22 -261 -22z" />
<glyph unicode="&#x66f;" horiz-adv-x="1625" d="M426 449q-63 -119 -93.5 -221t-30.5 -230q0 -188 148 -302q138 -107 337 -107h9q196 0 320 104.5t178 276.5h-6l-199 1q-243 23 -344 155v-1q-83 105 -83 226q0 198 139 383v-1q109 141 257 141q156 0 283 -139q137 -151 181 -408q14 -82 14 -161v-45q0 -15 -2 -45 q0 -88 -49 -241q-18 -58 -53 -124h1q-92 -175 -251 -277.5t-390 -102.5q-309 0 -512 178q-64 57 -108 135v-1q-95 152 -95 354q0 144 43 285q43 140 114 280zM1212 225q58 0 102 3q-12 171 -142 333q-15 21 -49 37.5t-65 16.5q-69 0 -121 -85q-45 -75 -45 -155q0 -42 24 -73 t64 -46.5t83 -22.5t91 -7q10 0 29 -0.5t29 -0.5z" />
<glyph unicode="&#x670;" d="M91 1503q26 -94 26 -208q0 -94 -25 -217l-132 40q25 88 25 163q0 96 -25 183z" />
<glyph unicode="&#x671;" horiz-adv-x="573" d="M159 -28q22 412 22 634q0 495 -47 778q-2 12 -10 68l257 87q8 -31 12 -68t7 -86.5t6 -78.5q32 -323 32 -702q0 -324 -17 -593zM605 1864q0 -51 -24.5 -89t-67 -59.5t-92.5 -31.5t-109 -10q-37 0 -77 4q-1 0 -2.5 0.5t-2.5 0.5h-5q-38 4 -62 21.5t-49 49.5q-8 5 -20 5 q-26 0 -66 -28q-22 -15 -35 -27l-31 93q72 33 109 44q18 5 29 5q20 0 58 -21l23 -15q20 33 35.5 55.5t41.5 51.5t52 46.5t62.5 30t77.5 12.5q60 0 107.5 -39t47.5 -99zM528 1857q-8 50 -82 50q-57 0 -118 -53h1q-43 -42 -68 -83q14 -2 27 -2h26q136 0 190 41q22 19 24 47z " />
<glyph unicode="&#x679;" horiz-adv-x="2041" d="M1054 -30q-751 0 -914 329v-1q-45 87 -45 192q0 156 106 340q16 28 25 45l186 -156q-34 -47 -62.5 -110.5t-36.5 -124.5q-2 -18 -2 -26q0 -26 9 -45q43 -86 237 -137q185 -48 465 -48q487 0 741 127q-7 35 -16.5 67.5t-24.5 67.5t-25 59t-31 62t-30 54t-34.5 58.5 t-31.5 53.5l214 139q4 0 19 -30q121 -241 166 -428q14 -59 14 -100q0 -73 -31.5 -116t-96.5 -84q-181 -110 -540 -166q-144 -22 -261 -22zM677 997q65 -26 113 -38q6 8 20.5 31.5t25.5 34.5q12 108 12 126q0 134 -23 281l-9 63l116 32q3 -42 11.5 -115t13.5 -135.5t6 -121.5 q91 79 180 94q18 2 26 2q76 0 133.5 -47.5t57.5 -119.5q0 -41 -20.5 -84t-46.5 -69q-62 -55 -135 -82.5t-176 -27.5q-5 0 -15 0.5t-15 0.5q-144 0 -318 68zM899 938q15 -1 38 -1h29q102 0 185 26t111 83q9 18 9 31q0 27 -28 43t-64 16q-34 0 -71.5 -17t-53.5 -29t-52 -41 q-55 -45 -103 -111z" />
<glyph unicode="&#x67e;" horiz-adv-x="2041" d="M1053 -30q-751 0 -914 329v-1q-45 87 -45 192q0 156 106 340q16 28 25 45l186 -156q-34 -47 -62.5 -110.5t-36.5 -124.5q-2 -18 -2 -26q0 -26 9 -45q43 -86 237 -137q185 -48 465 -48q487 0 741 127q-7 35 -16.5 67.5t-24.5 67.5t-25 59t-31 62t-30 54t-34.5 58.5 t-31.5 53.5l214 139q4 0 19 -30q121 -241 166 -428q14 -59 14 -100q0 -73 -31.5 -116t-96.5 -84q-181 -110 -540 -166q-144 -22 -261 -22zM648 -317l172 171l170 -170l-172 -172zM1026 -316l172 172l170 -171l-172 -171zM1165 -604l-157 -157l-156 156l157 157z" />
<glyph unicode="&#x686;" horiz-adv-x="1751" d="M941 -536q156 0 282 48t243 135l150 -210q-157 -112 -329.5 -174.5t-383.5 -62.5q-263 0 -450.5 107.5t-268.5 298.5q-48 115 -48 247q0 250 186 436q118 118 288 197t374 112q118 19 243 19h19q-76 29 -217.5 101t-218.5 100q-60 22 -119 22q-77 0 -167 -70 q-82 -65 -123 -142l-213 137q42 72 85.5 125.5t103.5 101t139 74.5t175 31q99 0 181.5 -27.5t169.5 -76.5q46 -26 123.5 -75t143.5 -87t127 -63q104 -43 236 -69l-79 -294q-19 0 -71.5 0.5t-76.5 0.5q-165 0 -387 -48q-439 -96 -602 -310q-61 -81 -61 -186q0 -192 161 -299 q149 -99 385 -99zM596 0l166 165l163 -164l-165 -165zM960 1l165 166l164 -165l-166 -164zM1093 -276l-151 -151l-150 150l151 151z" />
<glyph unicode="&#x688;" horiz-adv-x="1171" d="M603 223q40 0 71 2t67 10t59.5 21t39.5 37t16 57q0 35 -15 73.5t-29 60.5t-40 60q-115 164 -306 314q-57 44 -104 74l149 221q321 -221 477 -497q57 -99 80 -196q13 -55 13 -110q0 -149 -102 -256q-59 -62 -150.5 -98.5t-203.5 -36.5q-23 0 -35 1q-243 0 -506 158 l106 245q129 -82 316 -127q53 -13 97 -13zM176 1472q65 -26 113 -38q6 8 20.5 31.5t25.5 34.5q12 108 12 126q0 134 -23 281l-9 63l116 32q3 -42 11.5 -115t13.5 -135.5t6 -121.5q91 79 180 94q18 2 26 2q76 0 133.5 -47.5t57.5 -119.5q0 -41 -20.5 -84t-46.5 -69 q-62 -55 -135 -82.5t-176 -27.5q-5 0 -15 0.5t-15 0.5q-144 0 -318 68zM398 1413q15 -1 38 -1h29q102 0 185 26t111 83q9 18 9 31q0 27 -28 43t-64 16q-34 0 -71.5 -17t-53.5 -29t-52 -41q-55 -45 -103 -111z" />
<glyph unicode="&#x691;" horiz-adv-x="864" d="M548 635q84 -240 114 -461q6 -45 6 -84q0 -167 -104 -340q-135 -223 -424 -407q-85 -54 -176 -99l-114 229q224 110 388 269q107 105 152 227q22 59 22 121t-13 130t-27.5 113.5t-39.5 117t-35 103.5zM91 1091q65 -26 113 -38q6 8 20.5 31.5t25.5 34.5q12 108 12 126 q0 134 -23 281l-9 63l116 32q3 -42 11.5 -115t13.5 -135.5t6 -121.5q91 79 180 94q18 2 26 2q76 0 133.5 -47.5t57.5 -119.5q0 -41 -20.5 -84t-46.5 -69q-62 -55 -135 -82.5t-176 -27.5q-5 0 -15 0.5t-15 0.5q-144 0 -318 68zM313 1032q15 -1 38 -1h29q102 0 185 26t111 83 q9 18 9 31q0 27 -28 43t-64 16q-34 0 -71.5 -17t-53.5 -29t-52 -41q-55 -45 -103 -111z" />
<glyph unicode="&#x698;" horiz-adv-x="930" d="M646 635q84 -240 114 -461q6 -45 6 -84q0 -167 -104 -340q-135 -223 -424 -407q-85 -54 -176 -99l-114 229q224 110 388 269q107 105 152 227q22 59 22 121t-13 130t-27.5 113.5t-39.5 117t-35 103.5zM282 915l-172 171l170 171l172 -172zM660 913l-172 172l170 170 l172 -171zM470 1530l157 -157l-156 -156l-157 157z" />
<glyph unicode="&#x6a9;" horiz-adv-x="2134" d="M1028 -29q-771 0 -935 331v-1q-45 87 -45 192q0 22 2.5 44.5t5.5 41.5t10.5 43.5t12 40t15 40.5t15.5 37t18 38l17 34t18.5 35t16.5 31l186 -156q-34 -47 -62 -110.5t-37 -125.5q-2 -18 -2 -26q0 -24 9 -44q43 -88 237 -138q181 -47 465 -47q16 -1 49 -1q9 0 24.5 -0.5 t22.5 -0.5q292 0 477 68q85 34 119 74q35 42 35 93q0 73 -80 166q-46 54 -108 107.5t-143.5 117t-119.5 95.5q-103 86 -109 92l29 262l867 357l101 -238l-733 -290q242 -204 339 -313q109 -122 147 -228q21 -59 21 -119q0 -76 -23 -135t-67 -122q-52 -78 -192 -145 q-226 -100 -551 -100h-52z" />
<glyph unicode="&#x6aa;" horiz-adv-x="2495" d="M2322 30q-895 -82 -1550 -82q-470 0 -775 51l41 252q290 -48 736 -48q480 0 1351 65q-48 67 -109 93.5t-173 26.5q-128 0 -342 -30l2 1q-5 -1 -7 -1h-2l-2 -1h-3l-5 -1h-4q-4 0 -64 -6q-104 -9 -297 -9h-54q-134 2 -222 13.5t-165 39.5q-69 25 -114.5 75.5t-45.5 120.5 v16q0 159 151 304q229 210 729 360l65 -247q-419 -126 -589 -274q-81 -70 -99 -122q107 -32 345 -32q189 0 301 11q35 3 124.5 13.5t161.5 16.5t138 6q149 0 243 -34.5t176 -111.5q97 -91 188 -301l-101 -156q-24 -9 -29 -9z" />
<glyph unicode="&#x6af;" horiz-adv-x="2134" d="M1028 -30q-771 0 -935 331v-1q-45 87 -45 192q0 22 2.5 44.5t5.5 41.5t10.5 43.5t12 40t15 40.5t15.5 37t18 38l17 34t18.5 35t16.5 31l186 -156q-34 -47 -62 -110.5t-37 -125.5q-2 -18 -2 -26q0 -25 9 -44q43 -88 237 -138q181 -47 465 -47q16 -1 49 -1q9 0 24.5 -0.5 t22.5 -0.5q292 0 477 68q85 34 119 74q35 42 35 93q0 73 -80 166q-46 54 -108 107.5t-143.5 117t-119.5 95.5q-103 86 -109 92l29 262l867 357l101 -238l-733 -290q242 -204 339 -313q109 -122 147 -228q21 -58 21 -119q0 -76 -23 -135t-67 -122q-52 -78 -192 -145 q-226 -100 -551 -100h-52zM1171 1433l7 128l750 313l47 -101z" />
<glyph unicode="&#x6ba;" horiz-adv-x="1630" d="M818 -720q-271 0 -439.5 96.5t-250.5 291.5q-51 122 -51 280q0 331 186 611l197 -143q-85 -119 -136 -325q-18 -74 -18 -149q0 -140 81 -232.5t207 -137.5q89 -31 191 -31q152 0 271.5 56.5t187.5 151.5q69 96 69 204q0 27 -2.5 53.5t-9 56t-11 48.5t-16 52.5t-15.5 45 t-18.5 49t-16.5 42.5q-41 109 -72 168l-14 26l235 131q11 -17 47 -109q77 -200 110 -373q18 -91 18 -173q0 -208 -90 -356t-242 -236q-170 -98 -398 -98z" />
<glyph unicode="&#x6be;" horiz-adv-x="1633" d="M707 58q-116 -48 -266 -48q-310 0 -368 116q-10 20 -10 48q0 55 36.5 91t91.5 36h9q13 0 27 -2.5t33 -7t27 -6.5q67 -13 104 -13q5 0 14 0.5t13 0.5q-96 123 -96 280q0 127 51.5 222.5t138.5 154.5q-14 2 -42 19l-26 14l148 224q4 0 24 -10q27 -13 172.5 -90t224.5 -112 q14 -6 59.5 -26.5t60.5 -27.5t54 -25.5t56 -28.5t49.5 -28t51 -32.5t44 -34.5t45.5 -41t39 -44q91 -113 91 -276q0 -225 -212 -352q-112 -65 -313 -65q-181 0 -331 64zM881 609q0 73 -38 127.5t-102 54.5q-66 0 -129 -81q-58 -77 -58 -160q0 -76 47 -133.5t114 -77.5 q114 56 155 191q11 36 11 79zM1119 672q4 -42 4 -71q0 -197 -121 -350l33 -3q11 -1 31 -1q89 0 158.5 28.5t101.5 80.5q20 32 20 68q0 64 -62 132q-61 68 -165 116z" />
<glyph unicode="&#x6c0;" horiz-adv-x="1012" d="M504 -30q-125 0 -227 51t-155 131q-54 82 -54 195q0 190 170 396q33 40 52 59l44 44q-35 28 -46 39l-18 15l162 198q114 -89 259 -246q251 -287 251 -505q0 -154 -91 -246.5t-240 -120.5q-57 -10 -107 -10zM717 347q0 27 -13.5 61t-23.5 50t-33 52q-61 96 -160 192 q-108 -108 -171 -266q-19 -48 -19 -89q0 -42 34.5 -70t79 -38t93.5 -10q141 0 193 60q20 23 20 58zM296 1455q0 -45 43 -73.5t96 -28.5q13 0 27 3t24 6t24 10.5t20.5 11t21 13t18.5 11.5q20 12 49 33l77 -102q-28 -22 -62 -43.5t-55 -33.5t-71 -38.5t-68 -36.5l-240 -133 l-62 113l167 93q-52 29 -85 78.5t-33 116.5q0 99 86 171q68 56 160 56q64 0 138 -24l-36 -121l-33 8q-45 9 -69 9q-28 0 -56 -9q-51 -23 -73 -63q-8 -14 -8 -27z" />
<glyph unicode="&#x6c1;" horiz-adv-x="1359" d="M333 72q-37 10 -77.5 20.5t-88 23.5t-76.5 21q94 320 257 455q120 101 291 101q115 0 199.5 -48t161.5 -129q52 -56 92 -102v1q36 -42 58.5 -65.5t60 -55t73.5 -50.5q31 -16 68 -18h8q55 0 91.5 -36.5t36.5 -91.5t-36.5 -91.5t-91.5 -36.5h-8q-2 1 -3 1q-115 2 -196.5 49 t-158.5 130q-42 45 -90 101l-37 45v-1q-7 8 -28.5 33.5t-32 37.5t-29.5 31t-37 32t-38 23q-30 15 -63 15q-75 0 -123.5 -42.5t-87.5 -113.5q-49 -87 -95 -239z" />
<glyph unicode="&#x6c2;" horiz-adv-x="1379" d="M353 72q-37 10 -77.5 20.5t-88 23.5t-76.5 21q94 320 257 455q120 101 291 101q115 0 199.5 -48t161.5 -129q52 -56 92 -102v1q36 -42 58.5 -65.5t60 -55t73.5 -50.5q31 -16 68 -18h8q55 0 91.5 -36.5t36.5 -91.5t-36.5 -91.5t-91.5 -36.5h-8q-2 1 -3 1q-115 2 -196.5 49 t-158.5 130q-42 45 -90 101l-37 45v-1q-7 8 -28.5 33.5t-32 37.5t-29.5 31t-37 32t-38 23q-30 15 -63 15q-75 0 -123.5 -42.5t-87.5 -113.5q-49 -87 -95 -239zM383 1080q0 -45 43.5 -73.5t95.5 -28.5q11 0 20 1.5t19 5t15.5 6t16.5 8l15 7.5q43 21 98 60l77 -102 q-23 -18 -45.5 -33.5t-51.5 -32t-46.5 -26t-57 -30.5t-55.5 -30l-240 -133l-62 113l167 93q-52 29 -85 78.5t-33 116.5q0 100 71.5 163.5t174.5 63.5q64 0 138 -24l-36 -121l-33 8q-45 9 -69 9q-28 0 -56 -9q-32 -13 -56.5 -36.5t-24.5 -53.5z" />
<glyph unicode="&#x6c3;" horiz-adv-x="1543" d="M515 72q-37 10 -77.5 20.5t-88 23.5t-76.5 21q94 320 257 455q120 101 291 101q115 0 199.5 -48t161.5 -129q52 -56 92 -102v1q36 -42 58.5 -65.5t60 -55t73.5 -50.5q31 -16 68 -18h8q55 0 91.5 -36.5t36.5 -91.5t-36.5 -91.5t-91.5 -36.5h-8q-2 1 -3 1q-115 2 -196.5 49 t-158.5 130q-42 45 -90 101l-37 45v-1q-7 8 -28.5 33.5t-32 37.5t-29.5 31t-37 32t-38 23q-30 15 -63 15q-75 0 -123.5 -42.5t-87.5 -113.5q-49 -87 -95 -239zM559 864l-172 171l170 171l172 -172zM937 862l-172 172l170 170l172 -171z" />
<glyph unicode="&#x6cc;" horiz-adv-x="1827" d="M1673 574q-78 34 -155 34q-91 0 -159 -34.5t-131 -95.5q-71 -68 -106 -152q-17 -42 -17 -79q0 -20 8 -50l-1 1q7 -20 25.5 -36t49 -27t54.5 -17.5t62 -14.5t51 -11q60 -14 100 -25.5t88.5 -35t77 -52t48 -75t19.5 -106.5q0 -82 -24.5 -143.5t-74.5 -120.5 q-110 -131 -310 -199t-454 -68q-289 0 -475.5 118t-242.5 345q-21 87 -21 178q0 63 8 130t17 117t29 119.5t31.5 105.5t37.5 110.5t34 99.5l220 -89q-34 -107 -54 -173t-42 -165t-34 -192q-3 -24 -3 -50q0 -153 92 -255q119 -134 403 -134q185 0 337.5 38t244.5 114 q50 41 56 87q-1 8 -11 15t-26.5 12t-29.5 8.5t-33 7t-24 4.5q-61 14 -101 24.5t-92.5 29t-86.5 38t-70.5 50t-57.5 67t-34.5 87.5t-13.5 112q10 223 156 404q199 245 483 245q133 0 243 -61z" />
<glyph unicode="&#x6d2;" horiz-adv-x="2331" d="M832 446q0 -18 -2 -52t-2 -51v-56q-188 -28 -405 -89q-70 -20 -106.5 -34.5t-77.5 -43.5q22 -22 85 -40q188 -54 618 -54q645 0 1132 67q82 11 181 31q-5 -37 -14.5 -109t-15.5 -113q-202 -63 -457 -88.5t-602 -35.5q-102 -3 -187 -3h-64q-39 0 -57 1h-1q-381 0 -579 82 q-147 68 -190 160q-22 43 -22 94q0 63 42 139q63 113 272 175q159 48 452 79v-59z" />
<glyph unicode="&#x6d3;" horiz-adv-x="2342" d="M864 446q0 -18 -1 -52t-1 -51q0 -8 -0.5 -27t-0.5 -29q-192 -29 -405 -89q-70 -20 -106.5 -34.5t-77.5 -43.5q22 -22 85 -40q188 -54 618 -54q645 0 1132 67q82 11 181 31q-6 -38 -15.5 -111t-14.5 -111q-203 -62 -459 -88t-599 -36q-102 -3 -188 -3h-64q-39 0 -57 1h-1 q-381 0 -579 82q-146 66 -190 160q-22 43 -22 94q0 63 42 139q65 114 271 175q159 48 453 79q0 -11 -0.5 -30.5t-0.5 -28.5zM311 894q0 -45 43.5 -73.5t95.5 -28.5q11 0 20 1.5t19 5t15.5 6t16.5 8l15 7.5q43 21 98 60l77 -102q-23 -18 -45.5 -33.5t-51.5 -32t-46.5 -26 t-57 -30.5t-55.5 -30l-240 -133l-62 113l167 93q-52 29 -85 78.5t-33 116.5q0 100 71.5 163.5t174.5 63.5q64 0 138 -24l-36 -121l-33 8q-45 9 -69 9q-28 0 -56 -9q-32 -13 -56.5 -36.5t-24.5 -53.5z" />
<glyph unicode="&#x6d4;" horiz-adv-x="673" d="M680 226q41 0 41 -38v-180q0 -40 -41 -40h-690q-40 0 -40 40v180q0 38 40 38h690z" />
<glyph unicode="&#x6d5;" horiz-adv-x="1018" d="M504 -30q-125 0 -227 51t-155 131q-54 82 -54 195q0 190 170 396q33 40 52 59l44 44q-35 28 -46 39l-18 15l162 198q114 -89 259 -246q251 -287 251 -505q0 -154 -91 -246.5t-240 -120.5q-57 -10 -107 -10zM717 347q0 27 -13.5 61t-23.5 50t-33 52q-61 96 -160 192 q-108 -108 -171 -266q-19 -48 -19 -89q0 -42 34.5 -70t79 -38t93.5 -10q141 0 193 60q20 23 20 58z" />
<glyph unicode="&#x6f0;" horiz-adv-x="980" d="M328 486q0 -54 28 -92t72 -58q29 -13 63 -13q53 0 92.5 28t58.5 71q13 29 13 64q0 54 -28.5 92.5t-72.5 58.5q-29 13 -63 13q-54 0 -92 -28t-58 -72q-13 -29 -13 -64zM130 486q0 146 106 256q102 106 255 106q119 0 205 -62.5t128 -159.5q29 -67 29 -140q0 -120 -62 -205 t-160 -127q-67 -29 -140 -29q-119 0 -205.5 62t-127.5 158q-28 65 -28 141z" />
<glyph unicode="&#x6f1;" horiz-adv-x="762" d="M283 -56q0 273 -5 449.5t-30.5 397.5t-73.5 382q-28 93 -75 181l211 130q44 -66 76.5 -148t54.5 -185.5t35 -182t29 -205.5q31 -231 31 -714v-105h-253z" />
<glyph unicode="&#x6f2;" horiz-adv-x="1138" d="M766 1318q0 61 -12 139l247 44q19 -146 19 -211q0 -210 -118 -359q-109 -132 -297 -132q-71 0 -132 15q37 -292 37 -664q0 -37 0.5 -103.5t0.5 -96.5h-253q0 615 -57 950q-24 144 -64 255q-2 6 -7.5 17.5t-7.5 17.5l-12 33q-27 73 -62 130l212 136q46 -70 80 -159l14 -34 q5 -11 20.5 -46t21.5 -48.5t21.5 -40.5t28 -41t32.5 -30t42 -26q33 -14 77 -14q161 0 167 176q2 62 2 92z" />
<glyph unicode="&#x6f3;" horiz-adv-x="1461" d="M1111 1178q0 103 -47 265l249 46l10 -55q1 -7 7.5 -41.5t8 -47t5.5 -39t5 -49t1 -46.5q0 -274 -184 -371q-53 -28 -120 -28q-152 0 -236 103q-34 -34 -48.5 -47t-46 -35t-66 -30.5t-78.5 -8.5q-55 0 -92 10v-6q39 -305 39 -847h-254q4 60 4 99v100q0 252 -15 447.5 t-62.5 394t-128.5 336.5l228 133q57 -92 110 -230q2 -4 13 -29t14.5 -31.5t13.5 -26.5t17 -28.5t17.5 -22t22 -22t24.5 -15.5q20 -10 49 -10q26 0 45 13t29 34.5t15.5 49.5t7 56.5t2.5 57.5v11v28q0 66 -7 107l240 31q4 -117 50 -286h-1q28 -83 94 -83q65 0 65 113z" />
<glyph unicode="&#x6f4;" horiz-adv-x="1313" d="M822 924q151 0 302 90l111 -207q-179 -132 -409 -132q-179 0 -305 80q41 -337 41 -800h-253q0 231 -8 404t-31 363.5t-72.5 346.5t-124.5 275l213 134q80 -135 113 -216q56 106 156 171t239 65q122 0 216.5 -41.5t149.5 -115.5l-143 -178l-20 13q-40 28 -97 48t-114 22 q-64 -7 -120.5 -41.5t-87.5 -80.5q-18 -26 -18 -55q0 -2 0.5 -5.5t0.5 -5.5q14 -68 88.5 -101t172.5 -33z" />
<glyph unicode="&#x6f5;" horiz-adv-x="1368" d="M681 59q-106 -119 -249 -119q-139 0 -236 110q-115 131 -115 335q0 150 37.5 273.5t107.5 261.5q31 62 74 135.5t66.5 110.5t86.5 135l-39 41l176 173q29 -28 85 -79.5t87.5 -81.5t76 -74t81.5 -84q138 -150 238 -328q70 -124 113 -258q30 -102 30 -202 q0 -148 -54.5 -257t-152.5 -167q-72 -42 -171 -45h-2q-148 0 -240 120zM793 512q0 -198 61 -289q24 -36 66 -38q53 9 91.5 49.5t59.5 95.5q13 35 13 73q0 69 -19 134q-29 86 -75 166.5t-109 155.5t-113.5 127.5t-127.5 127.5l-8 8t-7.5 7t-8.5 8q-165 -203 -264 -445 q-65 -156 -65 -323q0 -57 24.5 -100t64.5 -67q24 -14 56 -14q58 0 109 78q43 66 64 248z" />
<glyph unicode="&#x6f6;" horiz-adv-x="1105" d="M839 1169q-35 20 -55.5 30t-55 19.5t-71.5 9.5q-116 0 -201 -55q-75 -61 -75 -140q0 -36 21.5 -59.5t47 -32t66.5 -15.5q33 -6 68 -6h15q34 0 70.5 3.5t63 7.5t67 14t58.5 14.5t62.5 17.5t56.5 16l92 -219l-75 -35q-241 -94 -427 -328q-163 -202 -254 -435 q-10 -26 -10 -28l-238 76q8 24 63 134q125 249 258 422q50 64 108 108q-110 2 -188.5 61t-117.5 151q-26 61 -26 135q0 141 101 267q59 73 153 122t204 55q24 3 26 3h25q80 0 148.5 -25t147.5 -69z" />
<glyph unicode="&#x6f7;" horiz-adv-x="1291" d="M513 -50q0 180 -27 350.5t-66.5 303.5t-106 278t-123.5 246t-141 236l211 135q278 -463 392 -954q114 441 267 791q43 98 88 170l210 -135q-96 -155 -213 -457q-143 -371 -195 -612q-43 -196 -44 -352h-252z" />
<glyph unicode="&#x6f8;" horiz-adv-x="1319" d="M57 56q83 132 141.5 237t123.5 249.5t105 279.5t66.5 306.5t26.5 351.5l272 -5q5 -187 48 -364.5t116 -394.5q141 -415 295 -655l-210 -134q-145 230 -281 611q-45 126 -82 265q-63 -233 -163.5 -440t-246.5 -441z" />
<glyph unicode="&#x6f9;" horiz-adv-x="1198" d="M640 671q-66 -15 -152 -15h-22q-66 0 -172 28q-221 60 -221 347q0 165 103 304q110 147 262 147q81 0 141 -36.5t113 -99.5q139 -164 165 -563q35 -277 143 -496q39 -79 91 -137l-131 -212q-204 152 -276 494q-23 107 -38 203v1zM456 915q31 0 151 12q-12 161 -95 259 q-32 38 -76 54q-46 -7 -82 -51.5t-56 -98.5q-13 -35 -13 -69q0 -106 171 -106z" />
<glyph unicode="&#x2000;" horiz-adv-x="1263" />
<glyph unicode="&#x2001;" horiz-adv-x="2527" />
<glyph unicode="&#x2002;" horiz-adv-x="1263" />
<glyph unicode="&#x2003;" horiz-adv-x="2527" />
<glyph unicode="&#x2004;" horiz-adv-x="842" />
<glyph unicode="&#x2005;" horiz-adv-x="631" />
<glyph unicode="&#x2006;" horiz-adv-x="421" />
<glyph unicode="&#x2007;" horiz-adv-x="421" />
<glyph unicode="&#x2008;" horiz-adv-x="315" />
<glyph unicode="&#x2009;" horiz-adv-x="505" />
<glyph unicode="&#x200a;" horiz-adv-x="140" />
<glyph unicode="&#x200c;" horiz-adv-x="246" />
<glyph unicode="&#x2010;" horiz-adv-x="848" d="M115 672h651v-281h-651v281z" />
<glyph unicode="&#x2011;" horiz-adv-x="848" d="M115 672h651v-281h-651v281z" />
<glyph unicode="&#x2012;" horiz-adv-x="848" d="M115 672h651v-281h-651v281z" />
<glyph unicode="&#x2013;" horiz-adv-x="1135" d="M-4 636h1139v-210h-1139v210z" />
<glyph unicode="&#x2014;" horiz-adv-x="2048" d="M0 636h2048v-210h-2048v210z" />
<glyph unicode="&#x2018;" horiz-adv-x="515" d="M152 872v201q0 124 21 193.5t80 125.5q60 57 148 88l55 -116q-80 -27 -119 -75t-40 -136h136v-281h-281z" />
<glyph unicode="&#x2019;" horiz-adv-x="503" d="M421 1462v-201q0 -125 -20.5 -193.5t-80.5 -125.5t-148 -88l-55 116q78 25 117 73t42 138h-136v281h281z" />
<glyph unicode="&#x201a;" horiz-adv-x="488" d="M421 281v-201q0 -125 -20.5 -194t-80.5 -125q-60 -57 -148 -88l-55 116q78 25 117 73t42 138h-136v281h281z" />
<glyph unicode="&#x201c;" horiz-adv-x="990" d="M132 872v201q0 124 21 193.5t80 125.5q60 57 148 88l55 -116q-80 -27 -119 -75t-40 -136h136v-281h-281zM601 872v201q0 124 21 193.5t80 125.5q60 57 148 88l55 -116q-81 -27 -119.5 -74.5t-39.5 -136.5h136v-281h-281z" />
<glyph unicode="&#x201d;" horiz-adv-x="985" d="M905 1480v-201q0 -125 -20.5 -193.5t-80.5 -125.5t-148 -88l-55 116q81 27 119.5 74.5t39.5 136.5h-136v281h281zM436 1480v-201q0 -125 -21 -193.5t-81 -125.5t-147 -88l-55 116q80 27 119 75t40 136h-136v281h281z" />
<glyph unicode="&#x201e;" horiz-adv-x="947" d="M881 281v-202q0 -125 -21 -193t-81 -125q-58 -58 -147 -89l-55 117q81 28 119 74.5t39 136.5h-135v281h281zM409 281v-202q0 -125 -20.5 -193.5t-80.5 -124.5q-59 -57 -148 -89l-55 117q78 25 117 73t42 138h-136v281h281z" />
<glyph unicode="&#x2020;" horiz-adv-x="1151" d="M433 830h-365v232h365v386h263v-386h363v-232h-363v-1180h-263v1180z" />
<glyph unicode="&#x2021;" horiz-adv-x="1201" d="M436 -17h-368v233h368v656h-368v233h368v343h262v-343h361v-233h-361v-656h361v-233h-361v-333h-262v333z" />
<glyph unicode="&#x2022;" horiz-adv-x="761" d="M362 1019q122 0 208.5 -86.5t86.5 -208.5t-87 -209t-208 -87t-208.5 87.5t-87.5 208.5t87 208t209 87z" />
<glyph unicode="&#x2026;" horiz-adv-x="2059" d="M1566 281h282v-281h-282v281zM884 281h281v-281h-281v281zM201 281h281v-281h-281v281z" />
<glyph unicode="&#x202f;" horiz-adv-x="505" />
<glyph unicode="&#x2030;" horiz-adv-x="2057" d="M1 1119q0 168 73.5 270t216.5 102q127 0 207 -92q81 -91 81 -282q0 -206 -80 -301q-79 -93 -210 -93t-210 91q-78 92 -78 305zM196 1107q0 -106 15 -158q19 -70 77 -70q55 0 78 70q15 52 15 158q0 89 -8.5 137.5t-38.5 74.5q-19 16 -46 16q-54 0 -77 -70 q-15 -53 -15 -158zM893 1491h196l-612 -1543h-197zM1089 710q143 0 215 -101.5t72 -271.5q0 -207 -80 -302q-79 -94 -209 -94q-132 0 -210 91q-78 92 -78 306q0 168 73.5 270t216.5 102zM993 326q0 -110 16 -158q19 -70 77 -70t77 70q16 48 16 158q0 109 -16 158 q-19 70 -77 70t-77 -71q-16 -48 -16 -157zM1469 338q0 168 73.5 270t216.5 102q127 0 207 -92q81 -92 81 -281q0 -207 -80 -302q-79 -94 -210 -94t-210 91q-78 92 -78 306zM1664 326v-45q0 -66 7 -100.5t29 -58.5q24 -25 55 -25q57 0 79 70q15 54 15 159q0 88 -8.5 137.5 t-38.5 74.5q-19 16 -45 16q-31 0 -49 -18.5t-29 -52.5q-15 -53 -15 -157z" />
<glyph unicode="&#x2039;" horiz-adv-x="718" d="M329 532l283 -462h-221l-316 462l316 451h221z" />
<glyph unicode="&#x203a;" horiz-adv-x="647" d="M376 522l-301 461h221l316 -461l-316 -452h-221z" />
<glyph unicode="&#x205f;" horiz-adv-x="631" />
<glyph unicode="&#x20ac;" horiz-adv-x="1144" d="M1016 1153q-85 85 -248 85q-133 0 -223.5 -77.5t-121.5 -204.5h550l-32 -155h-538q-1 -7 -1 -26v-69q0 -11 2 -37h509l-32 -155h-456q26 -108 77 -168q100 -118 260 -118q192 0 306 118v-306q-135 -65 -303 -65q-292 0 -480 200q-129 138 -169 339h-148l32 155h98 q-1 8 -1 25v26q0 8 0.5 22.5t0.5 21.5q0 26 1 37h-131l32 155h119q42 199 167 333q189 202 497 202q171 0 292 -61z" />
<glyph unicode="&#x2122;" horiz-adv-x="2195" d="M469 1324h-253v142h665v-142h-246v-677h-166v677zM980 1466h259l149 -564l150 564h259v-819h-158v653l-177 -653h-150l-176 653v-653h-156v819z" />
<glyph unicode="&#x25cc;" horiz-adv-x="1217" d="M337 272q0 -49 -50 -49t-50 49q0 51 50 51t50 -51zM485 178q0 -52 -51 -52q-49 0 -49 48q0 52 49 52q51 0 51 -48zM238 422q0 -49 -50 -49t-50 49q0 51 50 51t50 -51zM658 141q0 -51 -50 -51t-50 51q0 49 50 49t50 -49zM202 599v-6q0 -47 -48 -47q-52 0 -52 50t52 50 q48 0 48 -47zM238 770q0 -51 -48 -51q-52 0 -52 51q0 49 50 49t50 -49zM832 174q0 -48 -48 -48q-52 0 -52 48q0 52 52 52q48 0 48 -52zM980 272q0 -49 -48 -49q-52 0 -52 49q0 51 52 51q48 0 48 -51zM337 918q0 -50 -50 -50t-50 47q0 53 50 53t50 -50zM1079 422 q0 -49 -51 -49q-49 0 -49 49q0 51 49 51q51 0 51 -51zM485 1016q0 -49 -51 -49q-49 0 -49 49q0 51 49 51q51 0 51 -51zM658 1053q0 -51 -50 -51t-50 51q0 49 50 49t50 -49zM1115 596q0 -50 -48 -50q-52 0 -52 50t52 50q48 0 48 -50zM1079 770q0 -51 -51 -51q-49 0 -49 51 q0 49 51 49q49 0 49 -49zM832 1016q0 -49 -48 -49q-52 0 -52 49q0 51 52 51q48 0 48 -51zM980 918q0 -50 -48 -50q-52 0 -52 50t52 50q48 0 48 -50z" />
<glyph unicode="&#x25fc;" horiz-adv-x="1060" d="M0 1060h1060v-1060h-1060v1060z" />
<glyph unicode="&#xfd3e;" horiz-adv-x="1206" d="M760 655q63 -53 101 -133.5t38 -176.5q0 -99 -39 -214q-39 -119 -39 -199q0 -64 24 -99q46 -64 243 -64v-225q-314 0 -426 156q-67 93 -67 236q0 118 52 268l-1 -1q27 79 27 140q0 50 -18.5 87.5t-53 60.5t-72.5 35.5t-88 19.5l1 224h31q223 37 223 245q0 64 -13 113 q-26 118 -26 211q0 208 116 318.5t330 110.5v-226q-137 0 -181 -57q-40 -49 -40 -147q0 -48 20 -159.5t20 -163.5q0 -113 -43.5 -207t-118.5 -153z" />
<glyph unicode="&#xfd3f;" horiz-adv-x="1206" d="M516 654q-64 54 -101.5 133t-37.5 177t39 214q39 119 39 199q0 65 -24 99q-46 64 -243 64v225q314 0 426 -156q67 -93 67 -236q0 -118 -52 -268l1 1q-27 -81 -27 -140q0 -179 232 -203l-1 -224h-14q-2 0 -5 -0.5t-5 -0.5h-7q-102 -14 -162.5 -75t-60.5 -169 q0 -64 13 -113q26 -118 26 -211q0 -207 -116 -318t-330 -111v226q139 0 181 57q40 49 40 147q0 71 -21 160q-19 83 -19 163q0 113 43.5 207t118.5 153z" />
<glyph />
<glyph horiz-adv-x="2052" d="M1277 1024q100 131 241 131q135 0 262 -127q125 -143 167 -374q13 -71 13 -146q0 -78 -17.5 -143.5t-47 -115.5t-76 -90.5t-97 -68.5t-118 -49.5t-132 -34t-145.5 -20.5t-150.5 -11.5t-155.5 -4.5q-163 1 -295.5 16.5t-255.5 51t-211.5 101t-134.5 158.5v-1 q-45 87 -45 192q0 156 105 340q1 3 11 19t15 26l186 -156q-34 -46 -63 -111t-37 -124q-2 -16 -2 -23q0 -26 10 -48q44 -89 236 -137q185 -48 466 -48q354 0 632 80q37 11 62 23h-102q-264 0 -372 136q-68 84 -68 213q0 40 6 79q29 164 113 268v-1zM1652 770q-22 48 -57 87.5 t-77 39.5q-18 0 -40 -11q-37 -20 -66 -58.5t-44 -83.5q-9 -27 -9 -56q0 -65 43 -84q72 -31 216 -31q23 0 101 3q-26 106 -67 194z" />
<glyph horiz-adv-x="2106" d="M2238 98q0 -56 -36.5 -92t-92.5 -36h-9q-202 0 -396 46q-57 14 -117 45q-39 -27 -152 -49q-210 -42 -469 -42q-306 3 -511.5 74.5t-307.5 234.5q-71 122 -71 268q0 77 20 155q31 130 79 203l193 -121q-35 -61 -55 -116.5t-20 -124.5q1 -56 21.5 -101t51 -74.5t77 -52 t90.5 -35t101 -22.5q116 -21 327 -32l361 7q-62 43 -100.5 117t-38.5 170q0 94 29 163.5t85 139.5q124 151 279 151q164 0 282 -141q109 -131 109 -297q0 -143 -102 -286q138 -24 244 -24q56 0 92.5 -36t36.5 -92zM1584 717q-114 -20 -172 -127q-21 -39 -21 -95 q0 -39 61 -103q63 -66 136 -87h1l2 -1q46 23 85 63t60 87q13 29 13 59q0 59 -32.5 105.5t-78.5 75.5q-30 19 -54 23z" />
<glyph horiz-adv-x="1024" d="M524 1033l-192 192l191 191l192 -192z" />
<glyph horiz-adv-x="1024" d="M335 852l-172 171l170 171l172 -172zM713 850l-172 172l170 170l172 -171z" />
<glyph horiz-adv-x="1151" d="M383 984l-172 171l170 171l172 -172zM761 982l-172 172l170 170l172 -171zM571 1599l157 -157l-156 -156l-157 157z" />
<glyph horiz-adv-x="1057" d="M180 -246l172 171l170 -170l-172 -172zM558 -245l172 172l170 -171l-172 -171zM697 -533l-157 -157l-156 156l157 157z" />
<glyph d="M395 1555q0 -51 -24.5 -89t-67 -59.5t-92.5 -31.5t-109 -10q-37 0 -77 4q-1 0 -2.5 0.5t-2.5 0.5h-5q-38 4 -62 21.5t-49 49.5q-8 5 -20 5q-26 0 -66 -28q-22 -15 -35 -27l-31 93q72 33 109 44q18 5 29 5q20 0 58 -21l23 -15q20 33 35.5 55.5t41.5 51.5t52 46.5t62.5 30 t77.5 12.5q60 0 107.5 -39t47.5 -99zM318 1548q-8 50 -82 50q-57 0 -118 -53h1q-42 -43 -68 -83q14 -2 27 -2h26q136 0 190 41q22 19 24 47z" />
</font>
</defs>
</svg>
